<svg width="22" height="16" viewBox="0 0 22 16" fill="none" xmlns="http://www.w3.org/2000/svg">
<mask id="mask0" mask-type="alpha" maskUnits="userSpaceOnUse" x="0" y="0" width="22" height="16">
<path d="M20.4286 0H1.57143C0.703552 0 0 0.716344 0 1.6V14.4C0 15.2837 0.703552 16 1.57143 16H20.4286C21.2964 16 22 15.2837 22 14.4V1.6C22 0.716344 21.2964 0 20.4286 0Z" fill="white"/>
</mask>
<g mask="url(#mask0)">
<path d="M20.4286 0H1.57143C0.703552 0 0 0.716344 0 1.6V14.4C0 15.2837 0.703552 16 1.57143 16H20.4286C21.2964 16 22 15.2837 22 14.4V1.6C22 0.716344 21.2964 0 20.4286 0Z" fill="white"/>
<path d="M22 0H0V16H22V0Z" fill="#0A5CA7"/>
<path fill-rule="evenodd" clip-rule="evenodd" d="M23.0077 -1.5332L24.1793 0.23541L16.7556 5.3332L22 5.33329V10.6666L16.7556 10.666L24.1793 15.7645L23.0077 17.5331L13.6183 11.0844L13.6191 17.0666H8.38096L8.38071 11.0844L-1.00765 17.5331L-2.17929 15.7645L5.24414 10.666L5.72205e-06 10.6666V5.33329L5.24414 5.3332L-2.17929 0.23541L-1.00765 -1.5332L8.38071 4.9148L8.38096 -1.06671H13.6191L13.6183 4.9148L23.0077 -1.5332Z" fill="white"/>
<path d="M14.6677 5.06566L24.6191 -1.6001" stroke="#E14B5D" stroke-width="0.666667" stroke-linecap="round"/>
<path d="M15.7243 10.9581L24.6452 17.0803" stroke="#E14B5D" stroke-width="0.666667" stroke-linecap="round"/>
<path d="M6.29006 5.04824L-3.01517 -1.33691" stroke="#E14B5D" stroke-width="0.666667" stroke-linecap="round"/>
<path d="M7.29931 10.8839L-3.01517 17.8484" stroke="#E14B5D" stroke-width="0.666667" stroke-linecap="round"/>
<path fill-rule="evenodd" clip-rule="evenodd" d="M0 9.6H9.42857V16H12.5714V9.6H22V6.4H12.5714V0H9.42857V6.4H0V9.6Z" fill="#E14B5D"/>
</g>
</svg>
