<svg width="52" height="50" viewBox="0 0 52 50" fill="none" xmlns="http://www.w3.org/2000/svg">
<path d="M25.4139 40.7414C25.5726 40.8879 25.7804 40.9697 25.9964 40.9707C26.2124 40.9716 26.4209 40.8917 26.5809 40.7466C27.1566 40.2227 40.6956 27.7983 40.6956 15.035C40.6956 6.79293 34.2417 0.338655 26 0.338655C17.7584 0.338655 11.3044 6.79293 11.3044 15.035C11.3044 27.577 24.8382 40.2089 25.4139 40.7414ZM26 2.06763C33.391 2.06763 38.9667 7.64186 38.9667 15.035C38.9667 25.5765 28.6055 36.3654 26.0052 38.907C23.4101 36.336 13.0333 25.4054 13.0333 15.035C13.0333 7.64186 18.609 2.06763 26 2.06763Z" fill="white"/>
<path fill-rule="evenodd" clip-rule="evenodd" d="M10.9653 15.0349C10.9653 6.60638 17.5706 0 26 0C34.4295 0 41.0348 6.60638 41.0348 15.0349C41.0348 21.5256 37.5979 27.895 34.1289 32.6791C30.6529 37.4726 27.1054 40.7274 26.8094 40.9968C26.5866 41.1988 26.2958 41.3105 25.9949 41.3092C25.694 41.3079 25.4046 41.1939 25.1837 40.99C24.8879 40.7164 21.3421 37.4077 17.868 32.5895C14.4014 27.7817 10.9653 21.4154 10.9653 15.0349ZM25.6441 40.4927C25.7406 40.5818 25.8668 40.6314 25.9979 40.632C26.129 40.6326 26.2556 40.5841 26.3529 40.4959C26.6352 40.239 30.1435 37.0203 33.5795 32.2819C37.0238 27.532 40.3565 21.3076 40.3565 15.0349C40.3565 6.97936 34.0539 0.6772 26 0.6772C17.9462 0.6772 11.6435 6.97936 11.6435 15.0349C11.6435 21.1964 14.9743 27.4171 18.4185 32.1939C21.8542 36.9589 25.3624 40.2321 25.6441 40.4927ZM26 2.40618C18.7968 2.40618 13.3724 7.82832 13.3724 15.0349C13.3724 20.1181 15.9208 25.3741 18.8279 29.7072C21.5647 33.7866 24.5903 37.0057 26.0068 38.4297C27.4253 37.022 30.447 33.843 33.1796 29.7821C36.0824 25.468 38.6276 20.2044 38.6276 15.0349C38.6276 7.82832 33.2033 2.40618 26 2.40618ZM12.6942 15.0349C12.6942 7.45528 18.4212 1.72898 26 1.72898C33.5788 1.72898 39.3059 7.45528 39.3059 15.0349C39.3059 20.407 36.6704 25.8085 33.7426 30.1597C30.8092 34.519 27.551 37.8698 26.2424 39.1489L26.0036 39.3823L25.7663 39.1473C24.4607 37.8537 21.2004 34.4605 18.2643 30.0841C15.3342 25.7166 12.6942 20.3221 12.6942 15.0349Z" fill="white"/>
<path d="M33.913 16.14C33.913 11.7841 30.3627 8.23932 26 8.23932C21.6373 8.23932 18.087 11.7841 18.087 16.14C18.087 20.4959 21.6373 24.0407 26 24.0407C30.3627 24.0407 33.913 20.4959 33.913 16.14ZM26 22.285C22.6062 22.285 19.8454 19.5285 19.8454 16.14C19.8454 12.7515 22.6062 9.99503 26 9.99503C29.3938 9.99503 32.1546 12.7515 32.1546 16.14C32.1546 19.5285 29.3938 22.285 26 22.285Z" fill="white"/>
<path fill-rule="evenodd" clip-rule="evenodd" d="M17.5218 16.14C17.5218 11.4724 21.3251 7.67499 26 7.67499C30.6749 7.67499 34.4782 11.4724 34.4782 16.14C34.4782 20.8076 30.6749 24.605 26 24.605C21.3251 24.605 17.5218 20.8076 17.5218 16.14ZM26 8.80366C21.9495 8.80366 18.6522 12.0958 18.6522 16.14C18.6522 20.1842 21.9495 23.4763 26 23.4763C30.0506 23.4763 33.3478 20.1842 33.3478 16.14C33.3478 12.0958 30.0506 8.80366 26 8.80366ZM26 10.5594C22.9184 10.5594 20.4106 13.0632 20.4106 16.14C20.4106 19.2168 22.9184 21.7206 26 21.7206C29.0817 21.7206 31.5894 19.2168 31.5894 16.14C31.5894 13.0632 29.0817 10.5594 26 10.5594ZM19.2802 16.14C19.2802 12.4398 22.294 9.43069 26 9.43069C29.706 9.43069 32.7198 12.4398 32.7198 16.14C32.7198 19.8402 29.706 22.8493 26 22.8493C22.294 22.8493 19.2802 19.8402 19.2802 16.14Z" fill="white"/>
<path fill-rule="evenodd" clip-rule="evenodd" d="M12.7148 16.242C13.0772 16.4074 13.3257 16.7509 13.3689 17.1464L16.1509 42.6403L26.1662 47.607L35.8482 42.6481L38.6311 17.1464C38.6743 16.7509 38.9228 16.4074 39.2852 16.242C39.6476 16.0767 40.0704 16.1141 40.3981 16.3405L51.5127 24.018C51.9004 24.2858 52.081 24.7659 51.9656 25.2223L45.9179 49.1475C45.8311 49.491 45.5878 49.7739 45.2608 49.9114C44.9339 50.049 44.5612 50.0253 44.2543 49.8474L36.2453 45.2052C36.1799 45.1673 36.1192 45.1235 36.0639 45.0747L26.6904 49.8756C26.3711 50.0391 25.9929 50.0416 25.6715 49.8822L15.9507 45.0615C15.8915 45.1156 15.826 45.1639 15.7547 45.2052L7.74568 49.8474C7.43883 50.0253 7.06614 50.049 6.73917 49.9114C6.41221 49.7739 6.1689 49.491 6.08207 49.1475L0.0344328 25.2223C-0.0809527 24.7659 0.0995665 24.2858 0.487339 24.018L11.6019 16.3405C11.9296 16.1141 12.3524 16.0767 12.7148 16.242ZM13.9838 43.6216L11.3269 19.2753L2.41842 25.429L7.9073 47.1436L13.9838 43.6216ZM38.0162 43.6216L44.0927 47.1436L49.5816 25.429L40.6731 19.2753L38.0162 43.6216Z" fill="white"/>
</svg>
