<svg width="145" height="149" viewBox="0 0 145 149" fill="none" xmlns="http://www.w3.org/2000/svg">
<g filter="url(#filter0_d)">
<path d="M5.26 142L8.844 120.888H14.276L18.504 132.144L22.704 120.888H28.136L31.72 142H26.26L24.44 129.848L19.456 142H17.272L12.54 129.848L10.72 142H5.26ZM46.6764 134.16L44.2124 127.132L41.7484 134.16H46.6764ZM48.1324 138.332H40.2924L39.0324 142H33.1804L41.2164 120.888H47.2084L55.2444 142H49.3924L48.1324 138.332ZM63.1336 130.576H64.9536C66.9696 130.576 67.9776 129.699 67.9776 127.944C67.9776 126.189 66.9696 125.312 64.9536 125.312H63.1336V130.576ZM63.1336 142H57.6456V120.888H66.3816C68.7523 120.888 70.5629 121.504 71.8136 122.736C73.0829 123.968 73.7176 125.704 73.7176 127.944C73.7176 130.184 73.0829 131.92 71.8136 133.152C70.5629 134.384 68.7523 135 66.3816 135H63.1336V142ZM86.1621 123.885V142H82.9766V123.885H78.123V120.891H91.002V123.885H86.1621ZM92.1094 131.35C92.1094 128.378 93.1986 125.826 95.377 123.693C97.5462 121.561 100.153 120.494 103.197 120.494C106.205 120.494 108.785 121.57 110.936 123.721C113.096 125.872 114.176 128.456 114.176 131.473C114.176 134.508 113.091 137.083 110.922 139.197C108.743 141.321 106.114 142.383 103.033 142.383C100.308 142.383 97.8607 141.439 95.6914 139.553C93.3034 137.465 92.1094 134.731 92.1094 131.35ZM95.3223 131.391C95.3223 133.724 96.1061 135.643 97.6738 137.146C99.2324 138.65 101.033 139.402 103.074 139.402C105.289 139.402 107.158 138.637 108.68 137.105C110.202 135.556 110.963 133.669 110.963 131.445C110.963 129.194 110.211 127.307 108.707 125.785C107.212 124.254 105.362 123.488 103.156 123.488C100.96 123.488 99.1048 124.254 97.5918 125.785C96.0788 127.298 95.3223 129.167 95.3223 131.391ZM118.072 140.469C118.072 139.958 118.259 139.516 118.633 139.143C119.007 138.769 119.453 138.582 119.973 138.582C120.492 138.582 120.939 138.769 121.312 139.143C121.686 139.516 121.873 139.963 121.873 140.482C121.873 141.011 121.686 141.462 121.312 141.836C120.948 142.201 120.501 142.383 119.973 142.383C119.435 142.383 118.984 142.201 118.619 141.836C118.255 141.471 118.072 141.016 118.072 140.469ZM126.713 140.469C126.713 139.958 126.9 139.516 127.273 139.143C127.647 138.769 128.094 138.582 128.613 138.582C129.133 138.582 129.579 138.769 129.953 139.143C130.327 139.516 130.514 139.963 130.514 140.482C130.514 141.011 130.327 141.462 129.953 141.836C129.589 142.201 129.142 142.383 128.613 142.383C128.076 142.383 127.624 142.201 127.26 141.836C126.895 141.471 126.713 141.016 126.713 140.469ZM135.354 140.469C135.354 139.958 135.54 139.516 135.914 139.143C136.288 138.769 136.734 138.582 137.254 138.582C137.773 138.582 138.22 138.769 138.594 139.143C138.967 139.516 139.154 139.963 139.154 140.482C139.154 141.011 138.967 141.462 138.594 141.836C138.229 142.201 137.783 142.383 137.254 142.383C136.716 142.383 136.265 142.201 135.9 141.836C135.536 141.471 135.354 141.016 135.354 140.469Z" fill="white"/>
</g>
<g filter="url(#filter1_d)">
<path d="M63.3842 81.4087C63.6863 81.687 64.0819 81.8424 64.4932 81.8442C64.9044 81.8461 65.3013 81.6942 65.606 81.4185C66.7021 80.4231 92.4782 56.8167 92.4782 32.5664C92.4782 16.9066 80.1908 4.64344 64.5 4.64344C48.8092 4.64344 36.5218 16.9066 36.5218 32.5664C36.5218 56.3962 62.2881 80.3969 63.3842 81.4087ZM64.5 7.9285C78.5714 7.9285 89.1866 18.5195 89.1866 32.5664C89.1866 52.5954 69.4604 73.0942 64.5099 77.9232C59.5693 73.0383 39.8134 52.2702 39.8134 32.5664C39.8134 18.5195 50.4286 7.9285 64.5 7.9285Z" fill="white"/>
<path fill-rule="evenodd" clip-rule="evenodd" d="M35.8762 32.5663C35.8762 16.5521 48.4516 4 64.5 4C80.5484 4 93.1239 16.5521 93.1239 32.5663C93.1239 44.8986 86.5807 57.0006 79.9761 66.0902C73.3584 75.198 66.6045 81.3821 66.0409 81.8939C65.6168 82.2777 65.0631 82.49 64.4903 82.4875C63.9175 82.4849 63.3665 82.2684 62.9459 81.8809C62.3828 81.3612 55.6321 75.0746 49.018 65.9201C42.4181 56.7852 35.8762 44.6893 35.8762 32.5663ZM63.8225 80.9362C64.0062 81.1054 64.2465 81.1997 64.4961 81.2008C64.7456 81.2019 64.9866 81.1098 65.1718 80.9423C65.7094 80.454 72.3886 74.3386 78.9302 65.3357C85.4877 56.3107 91.8326 44.4844 91.8326 32.5663C91.8326 17.2608 79.8333 5.28668 64.5 5.28668C49.1668 5.28668 37.1675 17.2608 37.1675 32.5663C37.1675 44.2732 43.5087 56.0924 50.066 65.1683C56.6071 74.2218 63.286 80.4409 63.8225 80.9362ZM64.5 8.57174C50.7862 8.57174 40.459 18.8738 40.459 32.5663C40.459 42.2244 45.3107 52.2108 50.8453 60.4438C56.0558 68.1945 61.8162 74.3108 64.5129 77.0164C67.2136 74.3418 72.9665 68.3016 78.1688 60.5859C83.6954 52.3893 88.541 42.3884 88.541 32.5663C88.541 18.8738 78.2139 8.57174 64.5 8.57174ZM39.1677 32.5663C39.1677 18.165 50.0711 7.28506 64.5 7.28506C78.9289 7.28506 89.8323 18.165 89.8323 32.5663C89.8323 42.7733 84.8148 53.0362 79.2407 61.3035C73.6561 69.5861 67.4529 75.9526 64.9616 78.3828L64.5069 78.8264L64.0551 78.3798C61.5694 75.9221 55.3624 69.475 49.7725 61.1598C44.194 52.8616 39.1677 42.612 39.1677 32.5663Z" fill="white"/>
<path d="M79.5652 34.666C79.5652 26.3898 72.8059 19.6547 64.5 19.6547C56.1941 19.6547 49.4348 26.3898 49.4348 34.666C49.4348 42.9422 56.1941 49.6772 64.5 49.6772C72.8059 49.6772 79.5652 42.9422 79.5652 34.666ZM64.5 46.3414C58.0387 46.3414 52.7826 41.1041 52.7826 34.666C52.7826 28.2278 58.0387 22.9905 64.5 22.9905C70.9613 22.9905 76.2174 28.2278 76.2174 34.666C76.2174 41.1041 70.9613 46.3414 64.5 46.3414Z" fill="white"/>
<path fill-rule="evenodd" clip-rule="evenodd" d="M48.3587 34.666C48.3587 25.7976 55.5998 18.5825 64.5 18.5825C73.4002 18.5825 80.6413 25.7976 80.6413 34.666C80.6413 43.5344 73.4002 50.7495 64.5 50.7495C55.5998 50.7495 48.3587 43.5344 48.3587 34.666ZM64.5 20.7269C56.7884 20.7269 50.5109 26.9819 50.5109 34.666C50.5109 42.35 56.7884 48.605 64.5 48.605C72.2116 48.605 78.4891 42.35 78.4891 34.666C78.4891 26.9819 72.2116 20.7269 64.5 20.7269ZM64.5 24.0628C58.633 24.0628 53.8587 28.82 53.8587 34.666C53.8587 40.512 58.633 45.2692 64.5 45.2692C70.367 45.2692 75.1413 40.512 75.1413 34.666C75.1413 28.82 70.367 24.0628 64.5 24.0628ZM51.7066 34.666C51.7066 27.6356 57.4444 21.9183 64.5 21.9183C71.5556 21.9183 77.2935 27.6356 77.2935 34.666C77.2935 41.6963 71.5556 47.4136 64.5 47.4136C57.4444 47.4136 51.7066 41.6963 51.7066 34.666Z" fill="white"/>
<path fill-rule="evenodd" clip-rule="evenodd" d="M39.207 34.8599C39.897 35.174 40.3701 35.8268 40.4522 36.5782L45.7489 85.0166L64.8164 94.4534L83.2495 85.0314L88.5478 36.5782C88.6299 35.8268 89.103 35.174 89.793 34.8599C90.483 34.5458 91.2879 34.6169 91.9117 35.0469L113.072 49.6341C113.81 50.1431 114.154 51.0551 113.934 51.9224L102.421 97.3803C102.255 98.0329 101.792 98.5703 101.17 98.8317C100.547 99.0931 99.8376 99.0481 99.2534 98.7101L84.0054 89.89C83.8809 89.8179 83.7655 89.7346 83.6602 89.6418L65.8143 98.7636C65.2064 99.0743 64.4866 99.079 63.8747 98.7761L45.3677 89.6168C45.255 89.7196 45.1302 89.8115 44.9946 89.89L29.7466 98.7101C29.1624 99.0481 28.4528 99.0931 27.8303 98.8317C27.2079 98.5703 26.7446 98.0329 26.5793 97.3803L15.0656 51.9224C14.8459 51.0551 15.1896 50.1431 15.9278 49.6341L37.0883 35.0469C37.7121 34.6169 38.517 34.5458 39.207 34.8599ZM41.6229 86.881L36.5647 40.6231L19.6043 52.315L30.0543 93.5729L41.6229 86.881ZM87.3771 86.881L98.9457 93.5729L109.396 52.315L92.4353 40.6231L87.3771 86.881Z" fill="white"/>
</g>
<defs>
<filter id="filter0_d" x="0.259995" y="116.494" width="143.894" height="31.8887" filterUnits="userSpaceOnUse" color-interpolation-filters="sRGB">
<feFlood flood-opacity="0" result="BackgroundImageFix"/>
<feColorMatrix in="SourceAlpha" type="matrix" values="0 0 0 0 0 0 0 0 0 0 0 0 0 0 0 0 0 0 127 0"/>
<feOffset dy="1"/>
<feGaussianBlur stdDeviation="2.5"/>
<feColorMatrix type="matrix" values="0 0 0 0 0 0 0 0 0 0 0 0 0 0 0 0 0 0 0.08 0"/>
<feBlend mode="normal" in2="BackgroundImageFix" result="effect1_dropShadow"/>
<feBlend mode="normal" in="SourceGraphic" in2="effect1_dropShadow" result="shape"/>
</filter>
<filter id="filter1_d" x="10" y="0" width="109" height="105" filterUnits="userSpaceOnUse" color-interpolation-filters="sRGB">
<feFlood flood-opacity="0" result="BackgroundImageFix"/>
<feColorMatrix in="SourceAlpha" type="matrix" values="0 0 0 0 0 0 0 0 0 0 0 0 0 0 0 0 0 0 127 0"/>
<feOffset dy="1"/>
<feGaussianBlur stdDeviation="2.5"/>
<feColorMatrix type="matrix" values="0 0 0 0 0 0 0 0 0 0 0 0 0 0 0 0 0 0 0.08 0"/>
<feBlend mode="normal" in2="BackgroundImageFix" result="effect1_dropShadow"/>
<feBlend mode="normal" in="SourceGraphic" in2="effect1_dropShadow" result="shape"/>
</filter>
</defs>
</svg>
