<svg width="188" height="63" viewBox="0 0 188 63" fill="none" xmlns="http://www.w3.org/2000/svg">
<g filter="url(#filter0_d)">
<path d="M62.125 52L65.325 33.15H70.175L73.95 43.2L77.7 33.15H82.55L85.75 52H80.875L79.25 41.15L74.8 52H72.85L68.625 41.15L67 52H62.125ZM99.1039 45L96.9039 38.725L94.7039 45H99.1039ZM100.404 48.725H93.4039L92.2789 52H87.0539L94.2289 33.15H99.5789L106.754 52H101.529L100.404 48.725ZM113.798 41.8H115.423C117.223 41.8 118.123 41.0167 118.123 39.45C118.123 37.8833 117.223 37.1 115.423 37.1H113.798V41.8ZM113.798 52H108.898V33.15H116.698C118.815 33.15 120.431 33.7 121.548 34.8C122.681 35.9 123.248 37.45 123.248 39.45C123.248 41.45 122.681 43 121.548 44.1C120.431 45.2 118.815 45.75 116.698 45.75H113.798V52ZM134.723 35.8257V52H131.879V35.8257H127.545V33.1523H139.044V35.8257H134.723ZM140.033 42.4907C140.033 39.8377 141.006 37.5591 142.951 35.6548C144.888 33.7505 147.215 32.7983 149.933 32.7983C152.619 32.7983 154.922 33.7586 156.842 35.6792C158.771 37.5998 159.735 39.9069 159.735 42.6006C159.735 45.3105 158.767 47.6095 156.83 49.4976C154.885 51.3937 152.537 52.3418 149.787 52.3418C147.353 52.3418 145.168 51.4995 143.231 49.8149C141.099 47.9513 140.033 45.5099 140.033 42.4907ZM142.902 42.5273C142.902 44.6107 143.602 46.3237 145.001 47.6665C146.393 49.0093 148 49.6807 149.823 49.6807C151.801 49.6807 153.469 48.9971 154.828 47.6299C156.187 46.2464 156.867 44.5618 156.867 42.5762C156.867 40.5661 156.195 38.8815 154.853 37.5225C153.518 36.1553 151.866 35.4717 149.896 35.4717C147.935 35.4717 146.279 36.1553 144.928 37.5225C143.577 38.8734 142.902 40.5417 142.902 42.5273ZM163.214 50.6328C163.214 50.1771 163.381 49.7824 163.715 49.4487C164.049 49.1151 164.447 48.9482 164.911 48.9482C165.375 48.9482 165.774 49.1151 166.107 49.4487C166.441 49.7824 166.608 50.1812 166.608 50.645C166.608 51.117 166.441 51.5199 166.107 51.8535C165.782 52.179 165.383 52.3418 164.911 52.3418C164.431 52.3418 164.028 52.179 163.703 51.8535C163.377 51.528 163.214 51.1211 163.214 50.6328ZM170.929 50.6328C170.929 50.1771 171.096 49.7824 171.43 49.4487C171.763 49.1151 172.162 48.9482 172.626 48.9482C173.09 48.9482 173.489 49.1151 173.822 49.4487C174.156 49.7824 174.323 50.1812 174.323 50.645C174.323 51.117 174.156 51.5199 173.822 51.8535C173.497 52.179 173.098 52.3418 172.626 52.3418C172.146 52.3418 171.743 52.179 171.417 51.8535C171.092 51.528 170.929 51.1211 170.929 50.6328ZM178.644 50.6328C178.644 50.1771 178.811 49.7824 179.145 49.4487C179.478 49.1151 179.877 48.9482 180.341 48.9482C180.805 48.9482 181.203 49.1151 181.537 49.4487C181.871 49.7824 182.038 50.1812 182.038 50.645C182.038 51.117 181.871 51.5199 181.537 51.8535C181.212 52.179 180.813 52.3418 180.341 52.3418C179.861 52.3418 179.458 52.179 179.132 51.8535C178.807 51.528 178.644 51.1211 178.644 50.6328Z" fill="#0471D6"/>
<path d="M62.125 52L61.6321 51.9163L61.533 52.5H62.125V52ZM65.325 33.15V32.65H64.9027L64.8321 33.0663L65.325 33.15ZM70.175 33.15L70.6431 32.9742L70.5213 32.65H70.175V33.15ZM73.95 43.2L73.4819 43.3758L73.9516 44.6261L74.4185 43.3748L73.95 43.2ZM77.7 33.15V32.65H77.3529L77.2315 32.9752L77.7 33.15ZM82.55 33.15L83.0429 33.0663L82.9723 32.65H82.55V33.15ZM85.75 52V52.5H86.342L86.2429 51.9163L85.75 52ZM80.875 52L80.3805 52.0741L80.4443 52.5H80.875V52ZM79.25 41.15L79.7445 41.0759L79.4758 39.2818L78.7874 40.9603L79.25 41.15ZM74.8 52V52.5H75.1354L75.2626 52.1897L74.8 52ZM72.85 52L72.3841 52.1814L72.5081 52.5H72.85V52ZM68.625 41.15L69.0909 40.9686L68.4089 39.2171L68.1305 41.0759L68.625 41.15ZM67 52V52.5H67.4307L67.4945 52.0741L67 52ZM62.6179 52.0837L65.8179 33.2337L64.8321 33.0663L61.6321 51.9163L62.6179 52.0837ZM65.325 33.65H70.175V32.65H65.325V33.65ZM69.7069 33.3258L73.4819 43.3758L74.4181 43.0242L70.6431 32.9742L69.7069 33.3258ZM74.4185 43.3748L78.1685 33.3248L77.2315 32.9752L73.4815 43.0252L74.4185 43.3748ZM77.7 33.65H82.55V32.65H77.7V33.65ZM82.0571 33.2337L85.2571 52.0837L86.2429 51.9163L83.0429 33.0663L82.0571 33.2337ZM85.75 51.5H80.875V52.5H85.75V51.5ZM81.3695 51.9259L79.7445 41.0759L78.7555 41.2241L80.3805 52.0741L81.3695 51.9259ZM78.7874 40.9603L74.3374 51.8103L75.2626 52.1897L79.7126 41.3397L78.7874 40.9603ZM74.8 51.5H72.85V52.5H74.8V51.5ZM73.3159 51.8186L69.0909 40.9686L68.1591 41.3314L72.3841 52.1814L73.3159 51.8186ZM68.1305 41.0759L66.5055 51.9259L67.4945 52.0741L69.1195 41.2241L68.1305 41.0759ZM67 51.5H62.125V52.5H67V51.5ZM99.1039 45V45.5H99.809L99.5757 44.8346L99.1039 45ZM96.9039 38.725L97.3757 38.5596L96.9039 37.2138L96.4321 38.5596L96.9039 38.725ZM94.7039 45L94.2321 44.8346L93.9988 45.5H94.7039V45ZM100.404 48.725L100.877 48.5626L100.761 48.225H100.404V48.725ZM93.4039 48.725V48.225H93.047L92.931 48.5626L93.4039 48.725ZM92.2789 52V52.5H92.6358L92.7518 52.1624L92.2789 52ZM87.0539 52L86.5866 51.8221L86.3286 52.5H87.0539V52ZM94.2289 33.15V32.65H93.8842L93.7616 32.9721L94.2289 33.15ZM99.5789 33.15L100.046 32.9721L99.9236 32.65H99.5789V33.15ZM106.754 52V52.5H107.479L107.221 51.8221L106.754 52ZM101.529 52L101.056 52.1624L101.172 52.5H101.529V52ZM99.5757 44.8346L97.3757 38.5596L96.4321 38.8904L98.6321 45.1654L99.5757 44.8346ZM96.4321 38.5596L94.2321 44.8346L95.1757 45.1654L97.3757 38.8904L96.4321 38.5596ZM94.7039 45.5H99.1039V44.5H94.7039V45.5ZM100.404 48.225H93.4039V49.225H100.404V48.225ZM92.931 48.5626L91.806 51.8376L92.7518 52.1624L93.8768 48.8874L92.931 48.5626ZM92.2789 51.5H87.0539V52.5H92.2789V51.5ZM87.5212 52.1779L94.6962 33.3279L93.7616 32.9721L86.5866 51.8221L87.5212 52.1779ZM94.2289 33.65H99.5789V32.65H94.2289V33.65ZM99.1116 33.3279L106.287 52.1779L107.221 51.8221L100.046 32.9721L99.1116 33.3279ZM106.754 51.5H101.529V52.5H106.754V51.5ZM102.002 51.8376L100.877 48.5626L99.931 48.8874L101.056 52.1624L102.002 51.8376ZM113.798 41.8H113.298V42.3H113.798V41.8ZM113.798 37.1V36.6H113.298V37.1H113.798ZM113.798 52V52.5H114.298V52H113.798ZM108.898 52H108.398V52.5H108.898V52ZM108.898 33.15V32.65H108.398V33.15H108.898ZM121.548 34.8L121.197 35.1562L121.2 35.1588L121.548 34.8ZM121.548 44.1L121.2 43.7412L121.197 43.7438L121.548 44.1ZM113.798 45.75V45.25H113.298V45.75H113.798ZM113.798 42.3H115.423V41.3H113.798V42.3ZM115.423 42.3C116.384 42.3 117.199 42.0923 117.776 41.5897C118.367 41.0754 118.623 40.3299 118.623 39.45H117.623C117.623 40.1368 117.429 40.5662 117.12 40.8353C116.797 41.116 116.261 41.3 115.423 41.3V42.3ZM118.623 39.45C118.623 38.5701 118.367 37.8246 117.776 37.3103C117.199 36.8077 116.384 36.6 115.423 36.6V37.6C116.261 37.6 116.797 37.784 117.12 38.0647C117.429 38.3338 117.623 38.7632 117.623 39.45H118.623ZM115.423 36.6H113.798V37.6H115.423V36.6ZM113.298 37.1V41.8H114.298V37.1H113.298ZM113.798 51.5H108.898V52.5H113.798V51.5ZM109.398 52V33.15H108.398V52H109.398ZM108.898 33.65H116.698V32.65H108.898V33.65ZM116.698 33.65C118.73 33.65 120.203 34.1769 121.197 35.1562L121.899 34.4438C120.66 33.2231 118.899 32.65 116.698 32.65V33.65ZM121.2 35.1588C122.212 36.1411 122.748 37.5471 122.748 39.45H123.748C123.748 37.3528 123.151 35.6589 121.896 34.4412L121.2 35.1588ZM122.748 39.45C122.748 41.3528 122.212 42.7589 121.2 43.7412L121.896 44.4588C123.151 43.2411 123.748 41.5472 123.748 39.45H122.748ZM121.197 43.7438C120.203 44.7231 118.73 45.25 116.698 45.25V46.25C118.899 46.25 120.66 45.6769 121.899 44.4562L121.197 43.7438ZM116.698 45.25H113.798V46.25H116.698V45.25ZM113.298 45.75V52H114.298V45.75H113.298ZM134.723 35.8257V35.3257H134.223V35.8257H134.723ZM134.723 52V52.5H135.223V52H134.723ZM131.879 52H131.379V52.5H131.879V52ZM131.879 35.8257H132.379V35.3257H131.879V35.8257ZM127.545 35.8257H127.045V36.3257H127.545V35.8257ZM127.545 33.1523V32.6523H127.045V33.1523H127.545ZM139.044 33.1523H139.544V32.6523H139.044V33.1523ZM139.044 35.8257V36.3257H139.544V35.8257H139.044ZM134.223 35.8257V52H135.223V35.8257H134.223ZM134.723 51.5H131.879V52.5H134.723V51.5ZM132.379 52V35.8257H131.379V52H132.379ZM131.879 35.3257H127.545V36.3257H131.879V35.3257ZM128.045 35.8257V33.1523H127.045V35.8257H128.045ZM127.545 33.6523H139.044V32.6523H127.545V33.6523ZM138.544 33.1523V35.8257H139.544V33.1523H138.544ZM139.044 35.3257H134.723V36.3257H139.044V35.3257ZM142.951 35.6548L143.3 36.0121L143.301 36.0113L142.951 35.6548ZM156.842 35.6792L156.489 36.0328L156.489 36.0335L156.842 35.6792ZM156.83 49.4976L156.481 49.1395L156.481 49.1395L156.83 49.4976ZM143.231 49.8149L142.902 50.1914L142.903 50.1922L143.231 49.8149ZM145.001 47.6665L145.349 47.3067L145.348 47.3057L145.001 47.6665ZM154.828 47.6299L155.183 47.9824L155.185 47.9803L154.828 47.6299ZM154.853 37.5225L154.495 37.8717L154.497 37.8739L154.853 37.5225ZM144.928 37.5225L145.282 37.876L145.284 37.8739L144.928 37.5225ZM140.533 42.4907C140.533 39.976 141.449 37.825 143.3 36.0121L142.601 35.2975C140.563 37.2931 139.533 39.6994 139.533 42.4907H140.533ZM143.301 36.0113C145.144 34.199 147.346 33.2983 149.933 33.2983V32.2983C147.084 32.2983 144.631 33.3019 142.6 35.2982L143.301 36.0113ZM149.933 33.2983C152.484 33.2983 154.661 34.2047 156.489 36.0328L157.196 35.3256C155.183 33.3125 152.753 32.2983 149.933 32.2983V33.2983ZM156.489 36.0335C158.325 37.8613 159.235 40.0414 159.235 42.6006H160.235C160.235 39.7724 159.217 37.3382 157.195 35.3249L156.489 36.0335ZM159.235 42.6006C159.235 45.176 158.321 47.3458 156.481 49.1395L157.179 49.8556C159.213 47.8733 160.235 45.4451 160.235 42.6006H159.235ZM156.481 49.1395C154.631 50.9434 152.409 51.8418 149.787 51.8418V52.8418C152.666 52.8418 155.139 51.844 157.179 49.8556L156.481 49.1395ZM149.787 51.8418C147.481 51.8418 145.411 51.0478 143.56 49.4377L142.903 50.1922C144.926 51.9512 147.226 52.8418 149.787 52.8418V51.8418ZM143.56 49.4385C141.545 47.6767 140.533 45.3765 140.533 42.4907H139.533C139.533 45.6434 140.654 48.226 142.902 50.1914L143.56 49.4385ZM142.402 42.5273C142.402 44.7357 143.149 46.5828 144.655 48.0273L145.348 47.3057C144.054 46.0647 143.402 44.4857 143.402 42.5273H142.402ZM144.654 48.0263C146.133 49.453 147.862 50.1807 149.823 50.1807V49.1807C148.138 49.1807 146.653 48.5656 145.349 47.3067L144.654 48.0263ZM149.823 50.1807C151.93 50.1807 153.727 49.4467 155.183 47.9824L154.474 47.2774C153.211 48.5475 151.672 49.1807 149.823 49.1807V50.1807ZM155.185 47.9803C156.638 46.5008 157.367 44.6894 157.367 42.5762H156.367C156.367 44.4343 155.736 45.992 154.471 47.2795L155.185 47.9803ZM157.367 42.5762C157.367 40.4421 156.649 38.629 155.208 37.171L154.497 37.8739C155.742 39.1341 156.367 40.69 156.367 42.5762H157.367ZM155.21 37.1732C153.778 35.7063 151.996 34.9717 149.896 34.9717V35.9717C151.736 35.9717 153.257 36.6042 154.495 37.8717L155.21 37.1732ZM149.896 34.9717C147.805 34.9717 146.02 35.7066 144.573 37.171L145.284 37.8739C146.539 36.6039 148.066 35.9717 149.896 35.9717V34.9717ZM144.575 37.1689C143.126 38.6176 142.402 40.4149 142.402 42.5273H143.402C143.402 40.6685 144.029 39.1291 145.282 37.876L144.575 37.1689ZM166.107 51.8535L166.461 52.2071L166.107 51.8535ZM163.714 50.6328C163.714 50.3148 163.825 50.0459 164.068 49.8023L163.361 49.0952C162.938 49.5189 162.714 50.0393 162.714 50.6328H163.714ZM164.068 49.8023C164.31 49.5606 164.582 49.4482 164.911 49.4482V48.4482C164.312 48.4482 163.787 48.6696 163.361 49.0952L164.068 49.8023ZM164.911 49.4482C165.24 49.4482 165.512 49.5606 165.754 49.8023L166.461 49.0952C166.035 48.6696 165.51 48.4482 164.911 48.4482V49.4482ZM165.754 49.8023C165.996 50.044 166.108 50.3163 166.108 50.645H167.108C167.108 50.046 166.887 49.5208 166.461 49.0952L165.754 49.8023ZM166.108 50.645C166.108 50.9845 165.994 51.2601 165.754 51.5L166.461 52.2071C166.888 51.7796 167.108 51.2496 167.108 50.645H166.108ZM165.754 51.5C165.525 51.7291 165.254 51.8418 164.911 51.8418V52.8418C165.512 52.8418 166.039 52.629 166.461 52.2071L165.754 51.5ZM164.911 51.8418C164.557 51.8418 164.284 51.7273 164.056 51.5L163.349 52.2071C163.773 52.6308 164.305 52.8418 164.911 52.8418V51.8418ZM164.056 51.5C163.831 51.2743 163.714 50.9974 163.714 50.6328H162.714C162.714 51.2448 162.924 51.7817 163.349 52.2071L164.056 51.5ZM173.822 51.8535L174.176 52.2071L173.822 51.8535ZM171.429 50.6328C171.429 50.3148 171.54 50.0459 171.783 49.8023L171.076 49.0952C170.652 49.5189 170.429 50.0393 170.429 50.6328H171.429ZM171.783 49.8023C172.025 49.5606 172.297 49.4482 172.626 49.4482V48.4482C172.027 48.4482 171.502 48.6696 171.076 49.0952L171.783 49.8023ZM172.626 49.4482C172.955 49.4482 173.227 49.5606 173.469 49.8023L174.176 49.0952C173.75 48.6696 173.225 48.4482 172.626 48.4482V49.4482ZM173.469 49.8023C173.71 50.044 173.823 50.3163 173.823 50.645H174.823C174.823 50.046 174.601 49.5208 174.176 49.0952L173.469 49.8023ZM173.823 50.645C173.823 50.9845 173.709 51.2601 173.469 51.5L174.176 52.2071C174.603 51.7796 174.823 51.2496 174.823 50.645H173.823ZM173.469 51.5C173.24 51.7291 172.969 51.8418 172.626 51.8418V52.8418C173.227 52.8418 173.754 52.629 174.176 52.2071L173.469 51.5ZM172.626 51.8418C172.272 51.8418 171.998 51.7273 171.771 51.5L171.064 52.2071C171.488 52.6308 172.02 52.8418 172.626 52.8418V51.8418ZM171.771 51.5C171.545 51.2743 171.429 50.9974 171.429 50.6328H170.429C170.429 51.2448 170.639 51.7817 171.064 52.2071L171.771 51.5ZM181.537 51.8535L181.891 52.2071L181.537 51.8535ZM179.144 50.6328C179.144 50.3148 179.254 50.0459 179.498 49.8023L178.791 49.0952C178.367 49.5189 178.144 50.0393 178.144 50.6328H179.144ZM179.498 49.8023C179.74 49.5606 180.012 49.4482 180.341 49.4482V48.4482C179.742 48.4482 179.217 48.6696 178.791 49.0952L179.498 49.8023ZM180.341 49.4482C180.67 49.4482 180.942 49.5606 181.184 49.8023L181.891 49.0952C181.465 48.6696 180.94 48.4482 180.341 48.4482V49.4482ZM181.184 49.8023C181.425 50.044 181.538 50.3163 181.538 50.645H182.538C182.538 50.046 182.316 49.5208 181.891 49.0952L181.184 49.8023ZM181.538 50.645C181.538 50.9845 181.423 51.2601 181.184 51.5L181.891 52.2071C182.318 51.7796 182.538 51.2496 182.538 50.645H181.538ZM181.184 51.5C180.954 51.7291 180.684 51.8418 180.341 51.8418V52.8418C180.942 52.8418 181.469 52.629 181.891 52.2071L181.184 51.5ZM180.341 51.8418C179.987 51.8418 179.713 51.7273 179.486 51.5L178.779 52.2071C179.202 52.6308 179.734 52.8418 180.341 52.8418V51.8418ZM179.486 51.5C179.26 51.2743 179.144 50.9974 179.144 50.6328H178.144C178.144 51.2448 178.353 51.7817 178.779 52.2071L179.486 51.5Z" fill="white"/>
</g>
<g filter="url(#filter1_d)">
<mask id="path-3-outside-1" maskUnits="userSpaceOnUse" x="5" y="4" width="54" height="52" fill="black">
<rect fill="white" x="5" y="4" width="54" height="52"/>
<path d="M31.4139 45.7414C31.5726 45.8879 31.7804 45.9697 31.9964 45.9707C32.2124 45.9716 32.4209 45.8917 32.5809 45.7466C33.1566 45.2227 46.6956 32.7983 46.6956 20.035C46.6956 11.7929 40.2417 5.33866 32 5.33866C23.7584 5.33866 17.3044 11.7929 17.3044 20.035C17.3044 32.577 30.8382 45.2089 31.4139 45.7414ZM32 7.06763C39.391 7.06763 44.9667 12.6419 44.9667 20.035C44.9667 30.5765 34.6055 41.3654 32.0052 43.907C29.4101 41.336 19.0333 30.4054 19.0333 20.035C19.0333 12.6419 24.609 7.06763 32 7.06763Z"/>
<path fill-rule="evenodd" clip-rule="evenodd" d="M16.9653 20.0349C16.9653 11.6064 23.5706 5 32 5C40.4295 5 47.0348 11.6064 47.0348 20.0349C47.0348 26.5256 43.5979 32.895 40.1289 37.6791C36.6529 42.4726 33.1054 45.7274 32.8094 45.9968C32.5866 46.1988 32.2958 46.3105 31.9949 46.3092C31.694 46.3079 31.4046 46.1939 31.1837 45.99C30.8879 45.7164 27.3421 42.4077 23.868 37.5895C20.4014 32.7817 16.9653 26.4154 16.9653 20.0349ZM31.6441 45.4927C31.7406 45.5818 31.8668 45.6314 31.9979 45.632C32.129 45.6326 32.2556 45.5841 32.3529 45.4959C32.6352 45.239 36.1435 42.0203 39.5795 37.2819C43.0238 32.532 46.3565 26.3076 46.3565 20.0349C46.3565 11.9794 40.0539 5.6772 32 5.6772C23.9462 5.6772 17.6435 11.9794 17.6435 20.0349C17.6435 26.1964 20.9743 32.4171 24.4185 37.1939C27.8542 41.9589 31.3624 45.2321 31.6441 45.4927ZM32 7.40618C24.7968 7.40618 19.3724 12.8283 19.3724 20.0349C19.3724 25.1181 21.9208 30.3741 24.8279 34.7072C27.5647 38.7866 30.5903 42.0057 32.0068 43.4297C33.4253 42.022 36.447 38.843 39.1796 34.7821C42.0824 30.468 44.6276 25.2044 44.6276 20.0349C44.6276 12.8283 39.2033 7.40618 32 7.40618ZM18.6942 20.0349C18.6942 12.4553 24.4212 6.72898 32 6.72898C39.5788 6.72898 45.3059 12.4553 45.3059 20.0349C45.3059 25.407 42.6704 30.8085 39.7426 35.1597C36.8092 39.519 33.551 42.8698 32.2424 44.1489L32.0036 44.3823L31.7663 44.1473C30.4607 42.8537 27.2004 39.4605 24.2643 35.0841C21.3342 30.7166 18.6942 25.3221 18.6942 20.0349Z"/>
<path d="M39.913 21.14C39.913 16.7841 36.3627 13.2393 32 13.2393C27.6373 13.2393 24.087 16.7841 24.087 21.14C24.087 25.4959 27.6373 29.0407 32 29.0407C36.3627 29.0407 39.913 25.4959 39.913 21.14ZM32 27.285C28.6062 27.285 25.8454 24.5285 25.8454 21.14C25.8454 17.7515 28.6062 14.995 32 14.995C35.3938 14.995 38.1546 17.7515 38.1546 21.14C38.1546 24.5285 35.3938 27.285 32 27.285Z"/>
<path fill-rule="evenodd" clip-rule="evenodd" d="M23.5218 21.14C23.5218 16.4724 27.3251 12.675 32 12.675C36.6749 12.675 40.4782 16.4724 40.4782 21.14C40.4782 25.8076 36.6749 29.605 32 29.605C27.3251 29.605 23.5218 25.8076 23.5218 21.14ZM32 13.8037C27.9495 13.8037 24.6522 17.0958 24.6522 21.14C24.6522 25.1842 27.9495 28.4763 32 28.4763C36.0506 28.4763 39.3478 25.1842 39.3478 21.14C39.3478 17.0958 36.0506 13.8037 32 13.8037ZM32 15.5594C28.9184 15.5594 26.4106 18.0632 26.4106 21.14C26.4106 24.2168 28.9184 26.7206 32 26.7206C35.0817 26.7206 37.5894 24.2168 37.5894 21.14C37.5894 18.0632 35.0817 15.5594 32 15.5594ZM25.2802 21.14C25.2802 17.4398 28.294 14.4307 32 14.4307C35.706 14.4307 38.7198 17.4398 38.7198 21.14C38.7198 24.8402 35.706 27.8493 32 27.8493C28.294 27.8493 25.2802 24.8402 25.2802 21.14Z"/>
<path fill-rule="evenodd" clip-rule="evenodd" d="M18.7148 21.242C19.0772 21.4074 19.3257 21.7509 19.3689 22.1464L22.1509 47.6403L32.1662 52.607L41.8482 47.6481L44.6311 22.1464C44.6743 21.7509 44.9228 21.4074 45.2852 21.242C45.6476 21.0767 46.0704 21.1141 46.3981 21.3405L57.5127 29.018C57.9004 29.2858 58.081 29.7659 57.9656 30.2223L51.9179 54.1475C51.8311 54.491 51.5878 54.7739 51.2608 54.9114C50.9339 55.049 50.5612 55.0253 50.2543 54.8474L42.2453 50.2052C42.1799 50.1673 42.1192 50.1235 42.0639 50.0747L32.6904 54.8756C32.3711 55.0391 31.9929 55.0416 31.6715 54.8822L21.9507 50.0615C21.8915 50.1156 21.826 50.1639 21.7547 50.2052L13.7457 54.8474C13.4388 55.0253 13.0661 55.049 12.7392 54.9114C12.4122 54.7739 12.1689 54.491 12.0821 54.1475L6.03443 30.2223C5.91905 29.7659 6.09957 29.2858 6.48734 29.018L17.6019 21.3405C17.9296 21.1141 18.3524 21.0767 18.7148 21.242ZM19.9838 48.6216L17.3269 24.2753L8.41842 30.429L13.9073 52.1436L19.9838 48.6216ZM44.0162 48.6216L50.0927 52.1436L55.5816 30.429L46.6731 24.2753L44.0162 48.6216Z"/>
</mask>
<path d="M31.4139 45.7414C31.5726 45.8879 31.7804 45.9697 31.9964 45.9707C32.2124 45.9716 32.4209 45.8917 32.5809 45.7466C33.1566 45.2227 46.6956 32.7983 46.6956 20.035C46.6956 11.7929 40.2417 5.33866 32 5.33866C23.7584 5.33866 17.3044 11.7929 17.3044 20.035C17.3044 32.577 30.8382 45.2089 31.4139 45.7414ZM32 7.06763C39.391 7.06763 44.9667 12.6419 44.9667 20.035C44.9667 30.5765 34.6055 41.3654 32.0052 43.907C29.4101 41.336 19.0333 30.4054 19.0333 20.035C19.0333 12.6419 24.609 7.06763 32 7.06763Z" fill="#0471D6"/>
<path fill-rule="evenodd" clip-rule="evenodd" d="M16.9653 20.0349C16.9653 11.6064 23.5706 5 32 5C40.4295 5 47.0348 11.6064 47.0348 20.0349C47.0348 26.5256 43.5979 32.895 40.1289 37.6791C36.6529 42.4726 33.1054 45.7274 32.8094 45.9968C32.5866 46.1988 32.2958 46.3105 31.9949 46.3092C31.694 46.3079 31.4046 46.1939 31.1837 45.99C30.8879 45.7164 27.3421 42.4077 23.868 37.5895C20.4014 32.7817 16.9653 26.4154 16.9653 20.0349ZM31.6441 45.4927C31.7406 45.5818 31.8668 45.6314 31.9979 45.632C32.129 45.6326 32.2556 45.5841 32.3529 45.4959C32.6352 45.239 36.1435 42.0203 39.5795 37.2819C43.0238 32.532 46.3565 26.3076 46.3565 20.0349C46.3565 11.9794 40.0539 5.6772 32 5.6772C23.9462 5.6772 17.6435 11.9794 17.6435 20.0349C17.6435 26.1964 20.9743 32.4171 24.4185 37.1939C27.8542 41.9589 31.3624 45.2321 31.6441 45.4927ZM32 7.40618C24.7968 7.40618 19.3724 12.8283 19.3724 20.0349C19.3724 25.1181 21.9208 30.3741 24.8279 34.7072C27.5647 38.7866 30.5903 42.0057 32.0068 43.4297C33.4253 42.022 36.447 38.843 39.1796 34.7821C42.0824 30.468 44.6276 25.2044 44.6276 20.0349C44.6276 12.8283 39.2033 7.40618 32 7.40618ZM18.6942 20.0349C18.6942 12.4553 24.4212 6.72898 32 6.72898C39.5788 6.72898 45.3059 12.4553 45.3059 20.0349C45.3059 25.407 42.6704 30.8085 39.7426 35.1597C36.8092 39.519 33.551 42.8698 32.2424 44.1489L32.0036 44.3823L31.7663 44.1473C30.4607 42.8537 27.2004 39.4605 24.2643 35.0841C21.3342 30.7166 18.6942 25.3221 18.6942 20.0349Z" fill="#0471D6"/>
<path d="M39.913 21.14C39.913 16.7841 36.3627 13.2393 32 13.2393C27.6373 13.2393 24.087 16.7841 24.087 21.14C24.087 25.4959 27.6373 29.0407 32 29.0407C36.3627 29.0407 39.913 25.4959 39.913 21.14ZM32 27.285C28.6062 27.285 25.8454 24.5285 25.8454 21.14C25.8454 17.7515 28.6062 14.995 32 14.995C35.3938 14.995 38.1546 17.7515 38.1546 21.14C38.1546 24.5285 35.3938 27.285 32 27.285Z" fill="#0471D6"/>
<path fill-rule="evenodd" clip-rule="evenodd" d="M23.5218 21.14C23.5218 16.4724 27.3251 12.675 32 12.675C36.6749 12.675 40.4782 16.4724 40.4782 21.14C40.4782 25.8076 36.6749 29.605 32 29.605C27.3251 29.605 23.5218 25.8076 23.5218 21.14ZM32 13.8037C27.9495 13.8037 24.6522 17.0958 24.6522 21.14C24.6522 25.1842 27.9495 28.4763 32 28.4763C36.0506 28.4763 39.3478 25.1842 39.3478 21.14C39.3478 17.0958 36.0506 13.8037 32 13.8037ZM32 15.5594C28.9184 15.5594 26.4106 18.0632 26.4106 21.14C26.4106 24.2168 28.9184 26.7206 32 26.7206C35.0817 26.7206 37.5894 24.2168 37.5894 21.14C37.5894 18.0632 35.0817 15.5594 32 15.5594ZM25.2802 21.14C25.2802 17.4398 28.294 14.4307 32 14.4307C35.706 14.4307 38.7198 17.4398 38.7198 21.14C38.7198 24.8402 35.706 27.8493 32 27.8493C28.294 27.8493 25.2802 24.8402 25.2802 21.14Z" fill="#0471D6"/>
<path fill-rule="evenodd" clip-rule="evenodd" d="M18.7148 21.242C19.0772 21.4074 19.3257 21.7509 19.3689 22.1464L22.1509 47.6403L32.1662 52.607L41.8482 47.6481L44.6311 22.1464C44.6743 21.7509 44.9228 21.4074 45.2852 21.242C45.6476 21.0767 46.0704 21.1141 46.3981 21.3405L57.5127 29.018C57.9004 29.2858 58.081 29.7659 57.9656 30.2223L51.9179 54.1475C51.8311 54.491 51.5878 54.7739 51.2608 54.9114C50.9339 55.049 50.5612 55.0253 50.2543 54.8474L42.2453 50.2052C42.1799 50.1673 42.1192 50.1235 42.0639 50.0747L32.6904 54.8756C32.3711 55.0391 31.9929 55.0416 31.6715 54.8822L21.9507 50.0615C21.8915 50.1156 21.826 50.1639 21.7547 50.2052L13.7457 54.8474C13.4388 55.0253 13.0661 55.049 12.7392 54.9114C12.4122 54.7739 12.1689 54.491 12.0821 54.1475L6.03443 30.2223C5.91905 29.7659 6.09957 29.2858 6.48734 29.018L17.6019 21.3405C17.9296 21.1141 18.3524 21.0767 18.7148 21.242ZM19.9838 48.6216L17.3269 24.2753L8.41842 30.429L13.9073 52.1436L19.9838 48.6216ZM44.0162 48.6216L50.0927 52.1436L55.5816 30.429L46.6731 24.2753L44.0162 48.6216Z" fill="#0471D6"/>
<path d="M31.0471 45.4017L30.8169 45.6502L31.5505 46.3297L31.7807 46.0812L31.0471 45.4017ZM31.4139 45.7414L30.7349 46.4755L30.7356 46.4762L31.4139 45.7414ZM32.5809 45.7466L33.2527 46.4874L33.2539 46.4862L32.5809 45.7466ZM32.0052 43.907L31.3014 44.6174L32.0005 45.3099L32.7042 44.6221L32.0052 43.907ZM40.1289 37.6791L39.3193 37.092L39.3193 37.092L40.1289 37.6791ZM32.8094 45.9968L33.4811 46.7376L33.4824 46.7364L32.8094 45.9968ZM31.9949 46.3092L31.9994 45.3092L31.9949 46.3092ZM31.1837 45.99L30.5047 46.7241L30.5054 46.7248L31.1837 45.99ZM23.868 37.5895L23.0569 38.1744L23.0569 38.1744L23.868 37.5895ZM31.9979 45.632L32.0024 44.632L32.0024 44.632L31.9979 45.632ZM31.6441 45.4927L30.9651 46.2268L30.9658 46.2275L31.6441 45.4927ZM32.3529 45.4959L33.0245 46.2369L33.0259 46.2355L32.3529 45.4959ZM39.5795 37.2819L38.7699 36.6949L38.7699 36.6949L39.5795 37.2819ZM24.4185 37.1939L23.6074 37.7787L23.6074 37.7787L24.4185 37.1939ZM24.8279 34.7072L23.9974 35.2644L23.9974 35.2644L24.8279 34.7072ZM32.0068 43.4297L31.2978 44.1349L32.0022 44.8431L32.7112 44.1395L32.0068 43.4297ZM39.1796 34.7821L40.0092 35.3403L40.0092 35.3403L39.1796 34.7821ZM39.7426 35.1597L38.9129 34.6015L38.9129 34.6015L39.7426 35.1597ZM32.2424 44.1489L32.9414 44.864L32.9414 44.864L32.2424 44.1489ZM32.0036 44.3823L31.2998 45.0927L31.9989 45.7853L32.7026 45.0974L32.0036 44.3823ZM31.7663 44.1473L31.0625 44.8576L31.0625 44.8576L31.7663 44.1473ZM24.2643 35.0841L25.0948 34.527L24.2643 35.0841ZM19.3689 22.1464L18.3748 22.2549L18.3748 22.2549L19.3689 22.1464ZM22.1509 47.6403L21.1568 47.7488C21.1938 48.0878 21.4011 48.3847 21.7066 48.5362L22.1509 47.6403ZM32.1662 52.607L31.7219 53.5029C32.0059 53.6438 32.3399 53.6416 32.622 53.4971L32.1662 52.607ZM41.8482 47.6481L42.3041 48.5382C42.6036 48.3848 42.8058 48.0911 42.8423 47.7566L41.8482 47.6481ZM44.6311 22.1464L43.637 22.0379L43.637 22.0379L44.6311 22.1464ZM45.2852 21.242L44.8702 20.3322L44.8702 20.3322L45.2852 21.242ZM46.3981 21.3405L45.8297 22.1633L45.8297 22.1633L46.3981 21.3405ZM57.5127 29.018L58.081 28.1952L58.081 28.1952L57.5127 29.018ZM57.9656 30.2223L56.9961 29.9773L56.9961 29.9773L57.9656 30.2223ZM51.9179 54.1475L50.9484 53.9025L50.9484 53.9025L51.9179 54.1475ZM51.2608 54.9114L50.873 53.9897L50.873 53.9897L51.2608 54.9114ZM50.2543 54.8474L49.7528 55.7126L49.7528 55.7126L50.2543 54.8474ZM42.2453 50.2052L41.7438 51.0704L41.7438 51.0704L42.2453 50.2052ZM42.0639 50.0747L42.7257 49.325C42.4175 49.0529 41.9741 48.9972 41.6081 49.1846L42.0639 50.0747ZM32.6904 54.8756L32.2345 53.9855L32.2345 53.9855L32.6904 54.8756ZM31.6715 54.8822L32.1158 53.9863L32.1158 53.9863L31.6715 54.8822ZM21.9507 50.0615L22.395 49.1656C22.0252 48.9822 21.5806 49.0449 21.2759 49.3235L21.9507 50.0615ZM21.7547 50.2052L21.2533 49.3401L21.2532 49.3401L21.7547 50.2052ZM13.7457 54.8474L14.2472 55.7126L14.2472 55.7126L13.7457 54.8474ZM12.7392 54.9114L13.127 53.9897L13.127 53.9897L12.7392 54.9114ZM12.0821 54.1475L11.1126 54.3926L11.1126 54.3926L12.0821 54.1475ZM6.03443 30.2223L7.00394 29.9773L7.00394 29.9773L6.03443 30.2223ZM6.48734 29.018L5.91899 28.1952L6.48734 29.018ZM17.6019 21.3405L17.0336 20.5177L17.0336 20.5177L17.6019 21.3405ZM17.3269 24.2753L18.321 24.1668C18.2828 23.8166 18.0631 23.5123 17.7427 23.3659C17.4223 23.2194 17.0485 23.2523 16.7586 23.4525L17.3269 24.2753ZM19.9838 48.6216L20.4852 49.4868C20.8276 49.2883 21.0208 48.9065 20.9779 48.5131L19.9838 48.6216ZM8.41842 30.429L7.85007 29.6062C7.50653 29.8435 7.34659 30.2692 7.44891 30.674L8.41842 30.429ZM13.9073 52.1436L12.9378 52.3887C13.0147 52.6928 13.2298 52.9432 13.5188 53.0651C13.8079 53.1869 14.1374 53.1661 14.4088 53.0088L13.9073 52.1436ZM50.0927 52.1436L49.5912 53.0088C49.8626 53.1661 50.1921 53.1869 50.4812 53.0651C50.7702 52.9432 50.9853 52.6928 51.0622 52.3887L50.0927 52.1436ZM44.0162 48.6216L43.0222 48.5131C42.9792 48.9065 43.1724 49.2883 43.5148 49.4868L44.0162 48.6216ZM55.5816 30.429L56.5511 30.674C56.6534 30.2692 56.4935 29.8435 56.1499 29.6062L55.5816 30.429ZM46.6731 24.2753L47.2414 23.4525C46.9515 23.2523 46.5777 23.2194 46.2573 23.3659C45.9369 23.5123 45.7172 23.8166 45.679 24.1668L46.6731 24.2753ZM30.7356 46.4762C31.0779 46.7922 31.5261 46.9686 31.992 46.9706L32.0008 44.9707C32.0347 44.9708 32.0673 44.9836 32.0922 45.0066L30.7356 46.4762ZM31.992 46.9706C32.4578 46.9727 32.9076 46.8003 33.2527 46.4874L31.9092 45.0058C31.9343 44.9831 31.967 44.9705 32.0008 44.9707L31.992 46.9706ZM33.2539 46.4862C33.5658 46.2024 37.1501 42.913 40.6637 38.0676C44.1568 33.2504 47.6956 26.739 47.6956 20.035H45.6956C45.6956 26.0943 42.4649 32.1767 39.0446 36.8935C35.6448 41.5821 32.1717 44.7669 31.9079 45.007L33.2539 46.4862ZM47.6956 20.035C47.6956 11.2407 40.794 4.33866 32 4.33866V6.33866C39.6893 6.33866 45.6956 12.3452 45.6956 20.035H47.6956ZM32 4.33866C23.206 4.33866 16.3044 11.2407 16.3044 20.035H18.3044C18.3044 12.3452 24.3107 6.33866 32 6.33866V4.33866ZM16.3044 20.035C16.3044 26.6299 19.8437 33.1386 23.3321 37.9766C26.8426 42.8453 30.4237 46.1877 30.7349 46.4755L32.0929 45.0073C31.8284 44.7626 28.3547 41.5227 24.9544 36.8069C21.5319 32.0603 18.3044 25.9821 18.3044 20.035H16.3044ZM32 8.06763C38.8388 8.06763 43.9667 13.1942 43.9667 20.035H45.9667C45.9667 12.0895 39.9433 6.06763 32 6.06763V8.06763ZM43.9667 20.035C43.9667 25.0061 41.5099 30.1349 38.6314 34.4127C35.7691 38.6664 32.5814 41.9454 31.3062 43.1918L32.7042 44.6221C34.0292 43.327 37.3223 39.9407 40.2907 35.5292C43.2429 31.1418 45.9667 25.6054 45.9667 20.035H43.9667ZM32.709 43.1966C31.4353 41.9347 28.2434 38.6119 25.3765 34.3386C22.4919 30.039 20.0333 24.9185 20.0333 20.035H18.0333C18.0333 25.5218 20.7631 31.0519 23.7157 35.4529C26.6859 39.8802 29.98 43.3082 31.3014 44.6174L32.709 43.1966ZM20.0333 20.035C20.0333 13.1942 25.1612 8.06763 32 8.06763V6.06763C24.0567 6.06763 18.0333 12.0895 18.0333 20.035H20.0333ZM32 4C23.0182 4 15.9653 11.0542 15.9653 20.0349H17.9653C17.9653 12.1586 24.1229 6 32 6V4ZM48.0348 20.0349C48.0348 11.0542 40.9818 4 32 4V6C39.8771 6 46.0348 12.1586 46.0348 20.0349H48.0348ZM40.9384 38.2661C44.4439 33.4319 48.0348 26.8479 48.0348 20.0349H46.0348C46.0348 26.2032 42.752 32.3582 39.3193 37.092L40.9384 38.2661ZM33.4824 46.7364C33.8024 46.4452 37.4056 43.1381 40.9384 38.2661L39.3193 37.092C35.9002 41.8072 32.4083 45.0097 32.1363 45.2572L33.4824 46.7364ZM31.9905 47.3092C32.5417 47.3116 33.0737 47.1071 33.4811 46.7376L32.1376 45.256C32.0996 45.2905 32.0498 45.3094 31.9994 45.3092L31.9905 47.3092ZM30.5054 46.7248C30.9099 47.0982 31.4397 47.3067 31.9905 47.3092L31.9994 45.3092C31.9483 45.309 31.8993 45.2897 31.862 45.2552L30.5054 46.7248ZM23.0569 38.1744C26.5861 43.069 30.1856 46.429 30.5047 46.7241L31.8627 45.2559C31.5903 45.0038 28.0981 41.7464 24.6792 37.0047L23.0569 38.1744ZM15.9653 20.0349C15.9653 26.7393 19.5573 33.3208 23.0569 38.1744L24.6792 37.0047C21.2455 32.2426 17.9653 26.0915 17.9653 20.0349H15.9653ZM32.0024 44.632C32.1211 44.6325 32.2353 44.6775 32.3225 44.7579L30.9658 46.2275C31.2459 46.4861 31.6125 46.6303 31.9935 46.632L32.0024 44.632ZM31.6812 44.755C31.7691 44.6754 31.8836 44.6315 32.0024 44.632L31.9935 46.632C32.3743 46.6337 32.7421 46.4928 33.0245 46.2368L31.6812 44.755ZM38.7699 36.6949C35.3908 41.3549 31.9382 44.5212 31.6798 44.7564L33.0259 46.2355C33.3323 45.9567 36.8962 42.6858 40.389 37.869L38.7699 36.6949ZM45.3565 20.0349C45.3565 25.9852 42.1779 31.9951 38.7699 36.6949L40.389 37.869C43.8698 33.0688 47.3565 26.63 47.3565 20.0349H45.3565ZM32 6.6772C39.5015 6.6772 45.3565 12.5316 45.3565 20.0349H47.3565C47.3565 11.4271 40.6062 4.6772 32 4.6772V6.6772ZM18.6435 20.0349C18.6435 12.5316 24.4985 6.6772 32 6.6772V4.6772C23.3939 4.6772 16.6435 11.4271 16.6435 20.0349H18.6435ZM25.2296 36.609C21.8183 31.8779 18.6435 25.8725 18.6435 20.0349H16.6435C16.6435 26.5203 20.1302 32.9562 23.6074 37.7787L25.2296 36.609ZM32.3232 44.7586C32.0647 44.5195 28.6103 41.2976 25.2296 36.609L23.6074 37.7787C27.0982 42.6201 30.66 45.9446 30.9651 46.2268L32.3232 44.7586ZM20.3724 20.0349C20.3724 13.3807 25.349 8.40618 32 8.40618V6.40618C24.2445 6.40618 18.3724 12.276 18.3724 20.0349H20.3724ZM25.6583 34.1501C22.7852 29.8676 20.3724 24.8165 20.3724 20.0349H18.3724C18.3724 25.4198 21.0564 30.8806 23.9974 35.2644L25.6583 34.1501ZM32.7158 42.7245C31.3232 41.3245 28.3459 38.1561 25.6583 34.1501L23.9974 35.2644C26.7834 39.4171 29.8574 42.6868 31.2978 44.1349L32.7158 42.7245ZM38.3499 34.2238C35.6679 38.2096 32.696 41.3369 31.3024 42.7199L32.7112 44.1395C34.1547 42.7071 37.2262 39.4763 40.0092 35.3403L38.3499 34.2238ZM43.6276 20.0349C43.6276 24.9048 41.2159 29.9646 38.3499 34.2238L40.0092 35.3403C42.9489 30.9715 45.6276 25.504 45.6276 20.0349H43.6276ZM32 8.40618C38.651 8.40618 43.6276 13.3807 43.6276 20.0349H45.6276C45.6276 12.276 39.7555 6.40618 32 6.40618V8.40618ZM32 5.72898C23.869 5.72898 17.6942 11.903 17.6942 20.0349H19.6942C19.6942 13.0076 24.9735 7.72898 32 7.72898V5.72898ZM46.3059 20.0349C46.3059 11.903 40.1311 5.72898 32 5.72898V7.72898C39.0266 7.72898 44.3059 13.0076 44.3059 20.0349H46.3059ZM40.5722 35.718C43.537 31.312 46.3059 25.7066 46.3059 20.0349H44.3059C44.3059 25.1074 41.8039 30.3051 38.9129 34.6015L40.5722 35.718ZM32.9414 44.864C34.2749 43.5606 37.5858 40.1562 40.5722 35.718L38.9129 34.6015C36.0327 38.8819 32.8271 42.179 31.5435 43.4337L32.9414 44.864ZM32.7026 45.0974L32.9414 44.864L31.5435 43.4337L31.3046 43.6672L32.7026 45.0974ZM31.0625 44.8576L31.2998 45.0927L32.7074 43.6719L32.4701 43.4369L31.0625 44.8576ZM23.4339 35.6413C26.4217 40.0947 29.7331 43.5405 31.0625 44.8576L32.4701 43.4369C31.1884 42.167 27.9792 38.8264 25.0948 34.527L23.4339 35.6413ZM17.6942 20.0349C17.6942 25.6237 20.4698 31.2231 23.4339 35.6413L25.0948 34.527C22.1987 30.2102 19.6942 25.0205 19.6942 20.0349H17.6942ZM40.913 21.14C40.913 16.2303 36.9135 12.2393 32 12.2393V14.2393C35.8119 14.2393 38.913 17.3378 38.913 21.14H40.913ZM32 12.2393C27.0865 12.2393 23.087 16.2303 23.087 21.14H25.087C25.087 17.3378 28.1881 14.2393 32 14.2393V12.2393ZM23.087 21.14C23.087 26.0497 27.0865 30.0407 32 30.0407V28.0407C28.1881 28.0407 25.087 24.9421 25.087 21.14H23.087ZM32 30.0407C36.9135 30.0407 40.913 26.0497 40.913 21.14H38.913C38.913 24.9421 35.8119 28.0407 32 28.0407V30.0407ZM32 26.285C29.157 26.285 26.8454 23.9747 26.8454 21.14H24.8454C24.8454 25.0823 28.0554 28.285 32 28.285V26.285ZM26.8454 21.14C26.8454 18.3052 29.157 15.995 32 15.995V13.995C28.0554 13.995 24.8454 17.1977 24.8454 21.14H26.8454ZM32 15.995C34.843 15.995 37.1546 18.3052 37.1546 21.14H39.1546C39.1546 17.1977 35.9446 13.995 32 13.995V15.995ZM37.1546 21.14C37.1546 23.9747 34.843 26.285 32 26.285V28.285C35.9446 28.285 39.1546 25.0823 39.1546 21.14H37.1546ZM32 11.675C26.7743 11.675 22.5218 15.9187 22.5218 21.14H24.5218C24.5218 17.0262 27.8759 13.675 32 13.675V11.675ZM41.4782 21.14C41.4782 15.9187 37.2257 11.675 32 11.675V13.675C36.1241 13.675 39.4782 17.0262 39.4782 21.14H41.4782ZM32 30.605C37.2257 30.605 41.4782 26.3613 41.4782 21.14H39.4782C39.4782 25.2538 36.1241 28.605 32 28.605V30.605ZM22.5218 21.14C22.5218 26.3613 26.7743 30.605 32 30.605V28.605C27.8759 28.605 24.5218 25.2538 24.5218 21.14H22.5218ZM25.6522 21.14C25.6522 17.6495 28.5003 14.8037 32 14.8037V12.8037C27.3986 12.8037 23.6522 16.542 23.6522 21.14H25.6522ZM32 27.4763C28.5003 27.4763 25.6522 24.6305 25.6522 21.14H23.6522C23.6522 25.738 27.3986 29.4763 32 29.4763V27.4763ZM38.3478 21.14C38.3478 24.6305 35.4997 27.4763 32 27.4763V29.4763C36.6014 29.4763 40.3478 25.738 40.3478 21.14H38.3478ZM32 14.8037C35.4997 14.8037 38.3478 17.6495 38.3478 21.14H40.3478C40.3478 16.542 36.6014 12.8037 32 12.8037V14.8037ZM27.4106 21.14C27.4106 18.6169 29.4692 16.5594 32 16.5594V14.5594C28.3675 14.5594 25.4106 17.5094 25.4106 21.14H27.4106ZM32 25.7206C29.4692 25.7206 27.4106 23.6631 27.4106 21.14H25.4106C25.4106 24.7706 28.3675 27.7206 32 27.7206V25.7206ZM36.5894 21.14C36.5894 23.6631 34.5308 25.7206 32 25.7206V27.7206C35.6325 27.7206 38.5894 24.7706 38.5894 21.14H36.5894ZM32 16.5594C34.5308 16.5594 36.5894 18.6169 36.5894 21.14H38.5894C38.5894 17.5094 35.6325 14.5594 32 14.5594V16.5594ZM32 13.4307C27.7432 13.4307 24.2802 16.8861 24.2802 21.14H26.2802C26.2802 17.9936 28.8448 15.4307 32 15.4307V13.4307ZM39.7198 21.14C39.7198 16.8861 36.2568 13.4307 32 13.4307V15.4307C35.1552 15.4307 37.7198 17.9936 37.7198 21.14H39.7198ZM32 28.8493C36.2568 28.8493 39.7198 25.3939 39.7198 21.14H37.7198C37.7198 24.2864 35.1552 26.8493 32 26.8493V28.8493ZM24.2802 21.14C24.2802 25.3939 27.7432 28.8493 32 28.8493V26.8493C28.8448 26.8493 26.2802 24.2864 26.2802 21.14H24.2802ZM20.363 22.0379C20.2815 21.2914 19.8125 20.6436 19.1298 20.3322L18.2998 22.1519C18.3419 22.1711 18.3699 22.2105 18.3748 22.2549L20.363 22.0379ZM23.145 47.5318L20.363 22.0379L18.3748 22.2549L21.1568 47.7488L23.145 47.5318ZM32.6105 51.7112L22.5952 46.7444L21.7066 48.5362L31.7219 53.5029L32.6105 51.7112ZM41.3924 46.7581L31.7103 51.717L32.622 53.4971L42.3041 48.5382L41.3924 46.7581ZM43.637 22.0379L40.8541 47.5396L42.8423 47.7566L45.6252 22.2549L43.637 22.0379ZM44.8702 20.3322C44.1875 20.6436 43.7185 21.2914 43.637 22.0379L45.6252 22.2549C45.6301 22.2105 45.6581 22.1711 45.7002 22.1519L44.8702 20.3322ZM46.9664 20.5177C46.3491 20.0912 45.5528 20.0209 44.8702 20.3322L45.7002 22.1519C45.7424 22.1326 45.7918 22.137 45.8297 22.1633L46.9664 20.5177ZM58.081 28.1952L46.9664 20.5177L45.8297 22.1633L56.9443 29.8408L58.081 28.1952ZM58.9351 30.4674C59.1529 29.6056 58.8119 28.7 58.081 28.1952L56.9443 29.8408C56.989 29.8716 57.009 29.9261 56.9961 29.9773L58.9351 30.4674ZM52.8874 54.3926L58.9351 30.4674L56.9961 29.9773L50.9484 53.9025L52.8874 54.3926ZM51.6486 55.8332C52.2645 55.574 52.7236 55.0409 52.8874 54.3926L50.9484 53.9025C50.9386 53.9411 50.911 53.9737 50.873 53.9897L51.6486 55.8332ZM49.7528 55.7126C50.3309 56.0477 51.0328 56.0923 51.6486 55.8332L50.873 53.9897C50.8349 54.0057 50.7914 54.0029 50.7558 53.9823L49.7528 55.7126ZM41.7438 51.0704L49.7528 55.7126L50.7558 53.9823L42.7468 49.3401L41.7438 51.0704ZM41.4022 50.8244C41.5066 50.9165 41.6208 50.9991 41.7438 51.0704L42.7468 49.3401C42.7389 49.3355 42.7319 49.3304 42.7257 49.325L41.4022 50.8244ZM33.1462 55.7656L42.5198 50.9647L41.6081 49.1846L32.2345 53.9855L33.1462 55.7656ZM31.2273 55.7781C31.8327 56.0783 32.5447 56.0737 33.1462 55.7656L32.2345 53.9855C32.1974 54.0045 32.1532 54.0048 32.1158 53.9863L31.2273 55.7781ZM21.5064 50.9574L31.2273 55.7781L32.1158 53.9863L22.395 49.1656L21.5064 50.9574ZM22.2562 51.0704C22.3902 50.9928 22.5138 50.9017 22.6255 50.7995L21.2759 49.3235C21.2693 49.3295 21.2618 49.3351 21.2533 49.3401L22.2562 51.0704ZM14.2472 55.7126L22.2562 51.0704L21.2532 49.3401L13.2442 53.9823L14.2472 55.7126ZM12.3514 55.8332C12.9672 56.0923 13.6691 56.0477 14.2472 55.7126L13.2442 53.9823C13.2086 54.0029 13.1651 54.0057 13.127 53.9897L12.3514 55.8332ZM11.1126 54.3926C11.2764 55.0409 11.7355 55.574 12.3514 55.8332L13.127 53.9897C13.089 53.9737 13.0614 53.9411 13.0516 53.9025L11.1126 54.3926ZM5.06493 30.4674L11.1126 54.3926L13.0516 53.9025L7.00394 29.9773L5.06493 30.4674ZM5.91899 28.1952C5.18813 28.7 4.84709 29.6056 5.06493 30.4674L7.00394 29.9773C6.99101 29.9261 7.011 29.8716 7.05569 29.8408L5.91899 28.1952ZM17.0336 20.5177L5.91899 28.1952L7.05569 29.8408L18.1703 22.1633L17.0336 20.5177ZM19.1298 20.3322C18.4472 20.0209 17.6509 20.0912 17.0336 20.5177L18.1703 22.1633C18.2082 22.137 18.2576 22.1326 18.2998 22.1519L19.1298 20.3322ZM16.3328 24.3838L18.9897 48.7301L20.9779 48.5131L18.321 24.1668L16.3328 24.3838ZM8.98676 31.2517L17.8953 25.0981L16.7586 23.4525L7.85007 29.6062L8.98676 31.2517ZM14.8768 51.8986L9.38792 30.1839L7.44891 30.674L12.9378 52.3887L14.8768 51.8986ZM19.4823 47.7564L13.4058 51.2785L14.4088 53.0088L20.4852 49.4868L19.4823 47.7564ZM50.5942 51.2785L44.5177 47.7564L43.5148 49.4868L49.5912 53.0088L50.5942 51.2785ZM54.6121 30.1839L49.1232 51.8986L51.0622 52.3887L56.5511 30.674L54.6121 30.1839ZM46.1047 25.0981L55.0132 31.2517L56.1499 29.6062L47.2414 23.4525L46.1047 25.0981ZM45.0103 48.7301L47.6672 24.3838L45.679 24.1668L43.0222 48.5131L45.0103 48.7301Z" fill="white" mask="url(#path-3-outside-1)"/>
</g>
<defs>
<filter id="filter0_d" x="56.533" y="28.2983" width="131.005" height="30.5435" filterUnits="userSpaceOnUse" color-interpolation-filters="sRGB">
<feFlood flood-opacity="0" result="BackgroundImageFix"/>
<feColorMatrix in="SourceAlpha" type="matrix" values="0 0 0 0 0 0 0 0 0 0 0 0 0 0 0 0 0 0 127 0"/>
<feOffset dy="1"/>
<feGaussianBlur stdDeviation="2.5"/>
<feColorMatrix type="matrix" values="0 0 0 0 0 0 0 0 0 0 0 0 0 0 0 0 0 0 0.08 0"/>
<feBlend mode="normal" in2="BackgroundImageFix" result="effect1_dropShadow"/>
<feBlend mode="normal" in="SourceGraphic" in2="effect1_dropShadow" result="shape"/>
</filter>
<filter id="filter1_d" x="-6.10352e-05" y="0" width="64.0001" height="62" filterUnits="userSpaceOnUse" color-interpolation-filters="sRGB">
<feFlood flood-opacity="0" result="BackgroundImageFix"/>
<feColorMatrix in="SourceAlpha" type="matrix" values="0 0 0 0 0 0 0 0 0 0 0 0 0 0 0 0 0 0 127 0"/>
<feOffset dy="1"/>
<feGaussianBlur stdDeviation="2.5"/>
<feColorMatrix type="matrix" values="0 0 0 0 0 0 0 0 0 0 0 0 0 0 0 0 0 0 0.08 0"/>
<feBlend mode="normal" in2="BackgroundImageFix" result="effect1_dropShadow"/>
<feBlend mode="normal" in="SourceGraphic" in2="effect1_dropShadow" result="shape"/>
</filter>
</defs>
</svg>
