<svg width="123" height="35" viewBox="0 0 123 35" fill="none" xmlns="http://www.w3.org/2000/svg">
<path d="M39.2153 32.9L41.4512 19.705H44.84L47.4776 26.74L50.0978 19.705H53.4866L55.7225 32.9H52.3162L51.1808 25.305L48.0716 32.9H46.7091L43.757 25.305L42.6216 32.9H39.2153Z" fill="white"/>
<path d="M65.053 28L63.5159 23.6075L61.9787 28H65.053ZM65.9614 30.6075H61.0704L60.2843 32.9H56.6335L61.6468 19.705H65.3849L70.3982 32.9H66.7474L65.9614 30.6075Z" fill="white"/>
<path d="M75.3199 25.76H76.4553C77.713 25.76 78.3418 25.2117 78.3418 24.115C78.3418 23.0183 77.713 22.47 76.4553 22.47H75.3199V25.76ZM75.3199 32.9H71.8962V19.705H77.3462C78.8251 19.705 79.9547 20.09 80.7349 20.86C81.5268 21.63 81.9228 22.715 81.9228 24.115C81.9228 25.515 81.5268 26.6 80.7349 27.37C79.9547 28.14 78.8251 28.525 77.3462 28.525H75.3199V32.9Z" fill="white"/>
<path d="M89.9407 21.578V32.9H87.9534V21.578H84.9255V19.7066H92.9601V21.578H89.9407Z" fill="white"/>
<path d="M93.6509 26.2435C93.6509 24.3864 94.3304 22.7914 95.6894 21.4583C97.0427 20.1253 98.669 19.4588 100.568 19.4588C102.445 19.4588 104.054 20.131 105.396 21.4754C106.743 22.8198 107.417 24.4348 107.417 26.3204C107.417 28.2174 106.74 29.8267 105.387 31.1483C104.028 32.4756 102.388 33.1393 100.466 33.1393C98.7656 33.1393 97.2389 32.5497 95.8856 31.3705C94.3958 30.0659 93.6509 28.3569 93.6509 26.2435ZM95.6553 26.2691C95.6553 27.7275 96.1443 28.9266 97.1223 29.8666C98.0947 30.8065 99.2177 31.2765 100.491 31.2765C101.873 31.2765 103.039 30.7979 103.988 29.8409C104.938 28.8725 105.413 27.6933 105.413 26.3033C105.413 24.8963 104.944 23.7171 104.005 22.7657C103.073 21.8087 101.919 21.3302 100.543 21.3302C99.1722 21.3302 98.015 21.8087 97.0711 22.7657C96.1272 23.7114 95.6553 24.8792 95.6553 26.2691Z" fill="white"/>
<path d="M109.848 31.943C109.848 31.624 109.964 31.3477 110.198 31.1141C110.431 30.8805 110.709 30.7638 111.033 30.7638C111.358 30.7638 111.636 30.8805 111.869 31.1141C112.102 31.3477 112.219 31.6268 112.219 31.9515C112.219 32.2819 112.102 32.5639 111.869 32.7975C111.642 33.0253 111.363 33.1393 111.033 33.1393C110.698 33.1393 110.417 33.0253 110.189 32.7975C109.962 32.5696 109.848 32.2848 109.848 31.943Z" fill="white"/>
<path d="M115.238 31.943C115.238 31.624 115.355 31.3477 115.588 31.1141C115.821 30.8805 116.1 30.7638 116.424 30.7638C116.748 30.7638 117.027 30.8805 117.26 31.1141C117.493 31.3477 117.61 31.6268 117.61 31.9515C117.61 32.2819 117.493 32.5639 117.26 32.7975C117.032 33.0253 116.754 33.1393 116.424 33.1393C116.088 33.1393 115.807 33.0253 115.58 32.7975C115.352 32.5696 115.238 32.2848 115.238 31.943Z" fill="white"/>
<path d="M120.629 31.943C120.629 31.624 120.745 31.3477 120.979 31.1141C121.212 30.8805 121.49 30.7638 121.814 30.7638C122.139 30.7638 122.417 30.8805 122.65 31.1141C122.883 31.3477 123 31.6268 123 31.9515C123 32.2819 122.883 32.5639 122.65 32.7975C122.423 33.0253 122.144 33.1393 121.814 33.1393C121.479 33.1393 121.197 33.0253 120.97 32.7975C120.743 32.5696 120.629 32.2848 120.629 31.943Z" fill="white"/>
<path d="M17.7571 28.519C17.868 28.6215 18.0132 28.6788 18.1641 28.6795C18.315 28.6801 18.4607 28.6242 18.5725 28.5226C18.9747 28.1559 28.4346 19.4588 28.4346 10.5245C28.4346 4.75505 23.9251 0.237059 18.1666 0.237059C12.408 0.237059 7.89854 4.75505 7.89854 10.5245C7.89854 19.3039 17.3548 28.1462 17.7571 28.519ZM18.1666 1.44734C23.3308 1.44734 27.2266 5.3493 27.2266 10.5245C27.2266 17.9036 19.987 25.4557 18.1702 27.2349C16.357 25.4352 9.10654 17.7838 9.10654 10.5245C9.10654 5.3493 13.0024 1.44734 18.1666 1.44734Z" fill="white"/>
<path fill-rule="evenodd" clip-rule="evenodd" d="M7.66159 10.5244C7.66159 4.62447 12.2768 0 18.1666 0C24.0564 0 28.6716 4.62447 28.6716 10.5244C28.6716 15.0679 26.2702 19.5265 23.8463 22.8753C21.4176 26.2308 18.9389 28.5092 18.7321 28.6978C18.5765 28.8391 18.3732 28.9174 18.163 28.9164C17.9528 28.9155 17.7506 28.8357 17.5962 28.693C17.3896 28.5015 14.912 26.1854 12.4847 22.8127C10.0625 19.4472 7.66159 14.9908 7.66159 10.5244ZM17.9179 28.3449C17.9853 28.4072 18.0735 28.442 18.1651 28.4424C18.2567 28.4428 18.3452 28.4089 18.4131 28.3472C18.6104 28.1673 21.0617 25.9142 23.4625 22.5974C25.8691 19.2724 28.1977 14.9153 28.1977 10.5244C28.1977 4.88555 23.7939 0.47404 18.1666 0.47404C12.5393 0.47404 8.1355 4.88555 8.1355 10.5244C8.1355 14.8375 10.4627 19.1919 12.8693 22.5357C15.2699 25.8712 17.721 28.1624 17.9179 28.3449ZM18.1666 1.68432C13.1336 1.68432 9.34351 5.47982 9.34351 10.5244C9.34351 14.0827 11.1241 17.7619 13.1553 20.7951C15.0675 23.6506 17.1816 25.904 18.1713 26.9008C19.1625 25.9154 21.2738 23.6901 23.183 20.8474C25.2113 17.8276 26.9897 14.1431 26.9897 10.5244C26.9897 5.47982 23.1996 1.68432 18.1666 1.68432ZM8.8696 10.5244C8.8696 5.2187 12.8712 1.21028 18.1666 1.21028C23.462 1.21028 27.4636 5.2187 27.4636 10.5244C27.4636 14.2849 25.6222 18.066 23.5764 21.1118C21.5269 24.1633 19.2503 26.5089 18.336 27.4042L18.1691 27.5676L18.0033 27.4031C17.0911 26.4976 14.813 24.1224 12.7616 21.0589C10.7142 18.0016 8.8696 14.2255 8.8696 10.5244Z" fill="white"/>
<path d="M23.6955 11.298C23.6955 8.24886 21.2149 5.76753 18.1666 5.76753C15.1183 5.76753 12.6376 8.24886 12.6376 11.298C12.6376 14.3471 15.1183 16.8285 18.1666 16.8285C21.2149 16.8285 23.6955 14.3471 23.6955 11.298ZM18.1666 15.5995C15.7953 15.5995 13.8663 13.6699 13.8663 11.298C13.8663 8.92604 15.7953 6.99652 18.1666 6.99652C20.5379 6.99652 22.4669 8.92604 22.4669 11.298C22.4669 13.6699 20.5379 15.5995 18.1666 15.5995Z" fill="white"/>
<path fill-rule="evenodd" clip-rule="evenodd" d="M12.2427 11.298C12.2427 8.03069 14.9002 5.37249 18.1666 5.37249C21.433 5.37249 24.0904 8.03069 24.0904 11.298C24.0904 14.5653 21.433 17.2235 18.1666 17.2235C14.9002 17.2235 12.2427 14.5653 12.2427 11.298ZM18.1666 6.16256C15.3364 6.16256 13.0326 8.46703 13.0326 11.298C13.0326 14.129 15.3364 16.4334 18.1666 16.4334C20.9968 16.4334 23.3006 14.129 23.3006 11.298C23.3006 8.46703 20.9968 6.16256 18.1666 6.16256ZM18.1666 7.39155C16.0134 7.39155 14.2612 9.14421 14.2612 11.298C14.2612 13.4518 16.0134 15.2044 18.1666 15.2044C20.3198 15.2044 22.0719 13.4518 22.0719 11.298C22.0719 9.14421 20.3198 7.39155 18.1666 7.39155ZM13.4714 11.298C13.4714 8.70787 15.5772 6.60148 18.1666 6.60148C20.756 6.60148 22.8618 8.70787 22.8618 11.298C22.8618 13.8881 20.756 15.9945 18.1666 15.9945C15.5772 15.9945 13.4714 13.8881 13.4714 11.298Z" fill="white"/>
<path fill-rule="evenodd" clip-rule="evenodd" d="M8.88402 11.3694C9.13724 11.4851 9.31086 11.7257 9.34101 12.0025L11.2849 29.8482L18.2827 33.3249L25.0477 29.8537L26.9921 12.0025C27.0223 11.7257 27.1959 11.4851 27.4491 11.3694C27.7024 11.2537 27.9978 11.2799 28.2267 11.4383L35.9926 16.8126C36.2636 17.0001 36.3897 17.3361 36.3091 17.6556L32.0835 34.4033C32.0229 34.6437 31.8528 34.8417 31.6244 34.938C31.3959 35.0343 31.1355 35.0177 30.9211 34.8932L25.3251 31.6437C25.2794 31.6171 25.237 31.5864 25.1984 31.5523L18.6489 34.9129C18.4258 35.0274 18.1616 35.0291 17.9371 34.9175L11.145 31.543C11.1036 31.5809 11.0578 31.6148 11.008 31.6437L5.41202 34.8932C5.19762 35.0177 4.93721 35.0343 4.70876 34.938C4.4803 34.8417 4.3103 34.6437 4.24963 34.4033L0.0240587 17.6556C-0.0565628 17.3361 0.0695686 17.0001 0.340511 16.8126L8.10643 11.4383C8.33537 11.2799 8.63079 11.2537 8.88402 11.3694ZM9.77065 30.5351L7.91429 13.4927L1.68978 17.8003L5.52494 33.0005L9.77065 30.5351ZM26.5625 30.5351L30.8082 33.0005L34.6434 17.8003L28.4189 13.4927L26.5625 30.5351Z" fill="white"/>
</svg>
