<svg width="98" height="21" viewBox="0 0 98 21" fill="none" xmlns="http://www.w3.org/2000/svg">
<path d="M0.125 20L3.325 1.15H8.175L11.95 11.2L15.7 1.15H20.55L23.75 20H18.875L17.25 9.15L12.8 20H10.85L6.625 9.15L5 20H0.125ZM37.1039 13L34.9039 6.725L32.7039 13H37.1039ZM38.4039 16.725H31.4039L30.2789 20H25.0539L32.2289 1.15H37.5789L44.7539 20H39.5289L38.4039 16.725ZM51.7979 9.8H53.4229C55.2229 9.8 56.1229 9.01667 56.1229 7.45C56.1229 5.88333 55.2229 5.1 53.4229 5.1H51.7979V9.8ZM51.7979 20H46.8979V1.15H54.6979C56.8145 1.15 58.4312 1.7 59.5479 2.8C60.6812 3.9 61.2479 5.45 61.2479 7.45C61.2479 9.45 60.6812 11 59.5479 12.1C58.4312 13.2 56.8145 13.75 54.6979 13.75H51.7979V20ZM72.7231 3.82568V20H69.8789V3.82568H65.5454V1.15234H77.0444V3.82568H72.7231ZM78.0332 10.4907C78.0332 7.83773 79.0057 5.55908 80.9507 3.65479C82.8875 1.75049 85.215 0.79834 87.9331 0.79834C90.6187 0.79834 92.9217 1.75863 94.8423 3.6792C96.771 5.59977 97.7354 7.9069 97.7354 10.6006C97.7354 13.3105 96.7669 15.6095 94.8301 17.4976C92.8851 19.3937 90.5373 20.3418 87.7866 20.3418C85.3534 20.3418 83.1683 19.4995 81.2314 17.8149C79.0993 15.9513 78.0332 13.5099 78.0332 10.4907ZM80.9019 10.5273C80.9019 12.6107 81.6017 14.3237 83.0015 15.6665C84.3931 17.0093 86.0003 17.6807 87.8232 17.6807C89.8008 17.6807 91.4691 16.9971 92.8281 15.6299C94.1872 14.2464 94.8667 12.5618 94.8667 10.5762C94.8667 8.56608 94.1953 6.88151 92.8525 5.52246C91.5179 4.15527 89.8659 3.47168 87.8965 3.47168C85.9352 3.47168 84.2791 4.15527 82.9282 5.52246C81.5773 6.87337 80.9019 8.54167 80.9019 10.5273Z" fill="white"/>
</svg>
