<svg width="405" height="258" viewBox="0 0 405 258" fill="none" xmlns="http://www.w3.org/2000/svg">
<path fill-rule="evenodd" clip-rule="evenodd" d="M184.253 119.574C184.134 119.633 183.904 119.722 183.904 119.722C183.213 118.017 181.795 118.159 180.651 118.159C180.332 117.154 180.02 116.364 179.782 115.523C179.672 115.147 179.715 114.743 179.901 114.399C180.852 112.418 180.681 110.452 180.161 108.42C181.231 106.841 182.775 107.347 184.164 107.377C185.463 107.377 186.793 107.623 188.092 107.742C188.352 107.772 188.865 107.668 188.865 107.586C189.013 106.134 189.496 104.481 189.036 103.289C188.597 102.135 187.662 100.713 186.013 100.616C185.753 100.602 185.582 99.9314 185.085 99.1793C186.503 99.0304 187.602 98.9038 188.798 98.7698C188.759 98.3332 188.702 97.8985 188.627 97.4668C188.828 97.4072 189.006 97.2658 189.147 97.3328C189.799 97.5718 190.519 97.5433 191.15 97.2533C191.781 96.9633 192.273 96.4353 192.518 95.784C192.63 95.4937 192.919 95.2926 193.127 95.0395C193.677 94.4438 194.516 93.9375 194.687 93.2599C195.296 90.8251 197.197 90.6092 198.86 90.2443C199.9 90.0284 200.019 89.7231 199.789 88.8445C199.559 87.9286 199.209 87.0277 199.209 86.1044C199.15 84.0196 199.64 83.4388 201.653 82.7389C201.712 83.5803 201.794 84.4514 201.883 85.2928C202.031 85.2928 202.173 85.2928 202.343 85.3226C202.113 85.6949 201.853 86.0746 201.593 86.5437C201.935 86.9458 202.314 87.4149 202.692 87.8468C201.475 85.9034 203.643 86.0821 203.933 85.4417C203.175 83.3792 202.455 81.4954 201.705 79.4702C200.947 80.2222 200.242 81.004 199.492 81.689C198.541 82.5453 196.707 82.1432 196.098 80.937C195.949 80.6317 196.18 80.1254 196.239 79.5893C195.4 79.3287 195.4 78.8298 196.209 78.316C195.92 77.363 195.63 76.4844 195.4 75.5909C194.821 73.2156 196.67 72.5753 197.917 71.4733C198.341 71.0638 198.593 70.4756 199.12 70.2001C199.551 69.8948 200.019 69.6639 200.361 69.2693C201.125 68.4279 201.757 67.4972 202.425 66.5888C202.664 66.2424 202.795 65.8333 202.804 65.4124C202.633 63.8338 203.584 62.8286 204.245 61.6448C204.623 61.0342 204.883 60.3566 205.113 59.6567C205.143 59.5525 204.764 59.1504 204.594 59.1504C204.215 59.1802 203.843 59.3812 203.353 59.5227C204.103 58.3016 204.742 57.1996 205.403 56.1274L205.633 56.2167V57.2889L208.336 54.1021C208.537 54.2063 208.886 54.5563 209.287 54.6233C210.49 54.8541 210.49 53.365 211.27 52.9108C211.47 52.7916 211.5 52.3002 211.73 52.2183C212.629 51.8386 213.55 51.5184 214.738 51.0865L215.54 52.0694C215.859 51.7492 216.297 51.3397 216.698 50.8929C216.899 51.2876 217.107 51.6598 217.3 52.0098C218.362 51.0269 219.201 52.33 220.486 52.7767C219.803 53.3128 219.32 53.7149 218.822 54.0947C218.846 54.1997 218.855 54.3073 218.852 54.4148C219.513 54.2957 220.196 54.0947 220.835 54.0649C221.243 54.0202 221.904 54.1989 221.926 54.3702C222.097 55.5466 222.884 55.0477 223.493 55.1669C224.474 55.3679 225.491 55.6285 226.382 56.0976C227.763 56.8273 229.115 57.6463 230.378 58.6515C230.92 59.1132 231.558 60.2151 231.417 60.7959C231.187 61.6671 230.326 62.9403 229.672 62.9701C227.942 63.0446 226.159 62.5383 224.422 62.2479C224.162 62.2181 223.932 62.0766 223.56 62.099C225.64 62.9106 225.409 65.1145 226.107 66.7675C226.508 67.7504 228.32 68.3907 229.122 67.7504C228.261 67.1547 226.62 67.0579 227.682 65.0699C228.514 65.5092 229.382 65.941 230.274 66.3133C230.474 66.4176 230.823 66.4473 230.994 66.3282C231.113 66.2165 231.142 65.6953 231.053 65.5911C230.162 64.7646 230.481 63.953 231.113 63.2829C231.87 62.5159 232.479 61.2576 233.831 61.9351C233.979 61.9798 234.12 62.0394 234.239 62.0692C234.299 62.0692 234.328 62.0096 234.648 61.8384C234.128 60.029 233.601 58.1601 233.081 56.2688C234.239 56.3135 235.769 55.9785 236.408 58.0707C235.969 58.3752 235.535 58.688 235.108 59.0089C235.509 59.4482 235.769 60.0513 236.088 60.096C236.608 60.1258 237.492 59.9248 237.603 59.5748C238.272 57.7208 239.645 56.7379 241.094 55.7774C241.792 55.2711 242.482 54.7052 243.351 54.0649C243.351 55.9189 243.841 56.0827 245.052 55.1669C245.891 54.5042 247.035 54.2659 248.223 53.7745C248.371 54.2287 248.542 54.7052 248.713 55.1669C249.032 54.7052 249.389 54.2659 249.909 53.5437C249.032 52.8438 248.193 52.0768 247.287 51.4663C246.292 50.8483 246.181 50.6547 246.812 49.4261C248.163 51.0344 249.938 50.9674 251.698 51.295C253.807 51.6971 255.746 53.0448 257.728 53.9457C257.788 53.4096 256.741 51.712 256.006 51.7715C254.736 51.8609 254.936 50.7589 254.647 50.0664C254.446 49.5452 254.587 48.7634 254.238 48.4432C253.317 47.4306 253.607 46.6041 254.119 45.517C254.439 44.8767 254.238 43.9683 254.238 43.1939C254.268 42.4344 254.238 41.6824 254.238 40.8485L254.936 40.8038C257.899 40.573 258.137 40.8336 258.33 44.0353C258.36 44.6682 258.879 45.2713 259.154 45.8893C259.704 47.2221 260.172 48.5549 260.743 49.8505C261.204 50.7887 261.843 51.6003 262.31 52.531C263.231 54.1542 263.001 55.8519 262.4 57.49C262.199 58.041 261.672 58.443 261.382 58.8377C261.642 58.8526 262.281 58.9419 263.06 59.0238C263.35 58.0261 263.61 56.939 263.959 55.9189C264.338 54.8765 264.338 54.0202 263.499 53.2235C263.328 53.0746 263.528 52.2928 263.729 51.9205C263.959 51.5407 264.427 51.3025 264.969 50.8483C264.509 50.8185 264.219 50.6993 264.048 50.7887C262.288 51.7194 261.909 51.6003 261.501 49.4559C261.152 47.8923 261.041 46.351 259.592 45.3979C259.273 45.1968 259.303 44.2065 259.362 43.596C259.451 42.6131 259.711 41.6526 259.941 40.4687C260.231 41.1091 260.543 41.8909 260.803 42.6727C261.211 43.864 261.501 45.1373 263.09 44.8767C262.489 44.2959 261.88 43.7151 261.33 43.1716C261.56 42.4121 262.607 42.1589 261.85 41.3101C262.229 40.9676 262.711 40.2528 262.942 40.357C264.1 40.7666 265.14 41.4441 266.298 41.9058C266.952 42.1366 267.672 42.1217 268.333 42.2334L268.422 41.8313C267.405 41.3697 266.18 41.1389 265.429 40.3645C264.627 39.4784 264.219 38.1009 263.64 36.9022C265.519 36.031 267.241 35.2492 269.053 34.4376C267.969 33.5664 266.989 32.8293 265.868 31.973C267.583 30.1041 269.224 28.3469 270.962 26.4333C270.843 25.8972 270.903 25.1154 272.113 24.9888C272.343 24.9888 272.574 24.5122 272.841 24.3484C273.16 24.1772 273.509 24.1325 273.858 24.0283C273.918 24.3335 273.999 24.6388 274.051 24.9441C275.18 24.7282 275.759 23.9985 275.418 23.0007C275.618 22.9337 275.826 22.8146 276.027 22.7699C276.443 22.6657 276.873 22.5987 277.252 22.5242C275.797 21.0723 275.358 18.5779 276.383 16.9026C276.532 16.642 276.992 16.3516 277.222 16.4111C277.95 16.6122 278.916 16.3218 279.287 17.4536C279.435 17.8333 280.015 18.3545 280.275 18.2652C281.604 17.8556 281.715 18.6077 281.634 19.665C281.634 20 281.752 20.3053 281.804 20.6404H282.213L282.413 19.047C282.324 19.0768 282.502 19.047 282.644 18.9278C284.173 17.6844 285.562 18.2503 287.166 19.0768C288.302 19.6873 289.179 20.2979 289.84 21.4818C290.671 23.0454 290.122 24.4378 289.721 25.9195C289.461 26.9321 289.231 27.9448 288.963 28.95C288.694 29.8942 288.389 30.8281 288.05 31.7496L288.414 32.0549C289.171 31.2582 289.981 30.4764 290.642 29.7616C290.302 29.5582 289.965 29.3497 289.632 29.1361C290.062 28.6149 290.493 28.0788 290.783 27.7437C291.51 28.2203 291.911 28.5032 292.313 28.7862L292.892 27.7735C293.152 27.9448 293.501 28.2277 293.62 28.3245C295.35 27.8182 296.895 27.3714 298.565 26.9024C298.855 27.8554 298.684 29.4265 300.066 28.1235C300.155 28.049 300.385 28.0341 300.444 28.0937C301.684 29.3372 302.494 27.8927 303.311 27.6842C303.162 26.5524 303.051 25.51 302.932 24.6686C304.083 24.7877 305.16 25.0483 306.185 24.959C307.826 24.8399 309.126 25.8599 310.106 27.3342C311.146 29.017 312.653 30.3498 314.005 31.8017C314.175 31.973 314.643 31.8911 314.955 31.9209C315 31.5411 315.111 31.1465 315.029 30.8189C314.822 30.0073 314.532 29.2553 314.153 28.0341C314.822 28.5256 315.119 28.8457 315.468 28.9723C316.195 29.2478 316.945 29.6573 317.406 28.5181C317.53 28.3109 317.718 28.1491 317.941 28.0565C319.218 27.7065 320.488 27.4385 321.988 27.0736C321.297 26.4035 320.547 25.8823 320.139 25.1302C319.909 24.6909 320.287 23.8719 320.369 23.2167L320.807 23.2315C320.458 23.0454 320.109 22.8742 319.619 22.5987C319.879 22.4125 320.027 22.2338 320.139 22.2189C322.159 22.1445 324.186 22.1147 326.258 22.0179C326.57 22.003 326.859 21.7126 327.223 21.6828C328.181 21.586 329.162 21.4818 330.12 21.5413C330.35 21.5413 330.498 22.3232 330.788 23.0454C331.271 23.0156 332.088 23.857 333.239 23.4996C333.758 23.3432 334.59 24.2963 335.429 24.8473C336.261 24.3261 337.264 23.5741 338.333 23.0305C341.259 21.5711 343.19 22.4944 344.311 25.8897C345.359 25.9285 346.399 25.6896 347.326 25.1973C348.722 24.3559 350.364 24.0655 352.012 23.4996C352.012 23.2837 351.923 22.9039 352.072 22.6135C352.272 22.1742 352.591 21.8019 352.851 21.4073C353.171 21.8094 353.802 22.3604 353.72 22.6284C353.312 23.8347 353.928 23.9613 354.775 24.1474C355.265 24.2367 355.673 24.7282 356.245 25.1526C356.461 25.0186 356.75 24.7877 357.218 24.4378C356.698 23.8049 356.305 22.8742 355.763 22.755C354.366 22.4348 354.663 21.2063 354.255 20.4319C355.874 19.9703 357.426 19.315 358.986 19.1884C360.805 19.0693 362.632 19.3895 364.466 19.5905C366.026 19.7916 367.57 20.1415 369.108 20.3723C369.969 20.4766 370.897 20.2979 371.714 20.5213C372.375 20.6925 372.984 21.2435 373.749 21.7051C374.9 19.1587 377.002 20.1415 379.022 20.7521C378.613 21.9732 380.967 23.306 378.591 24.7579C380.291 25.3089 379.601 27.5129 381.16 27.9448C380.967 28.4064 380.878 29.1659 380.559 29.2776C379.801 29.5829 378.962 29.6275 378.16 29.6871C377.93 29.7169 377.611 29.5531 377.462 29.3669C376.482 28.0639 375.903 28.4809 375.45 29.8286C375.36 30.0296 375.16 30.1934 374.959 30.4689C374.38 30.0296 373.868 29.6275 373.296 29.2255C372.858 29.8584 372.858 30.4466 373.571 30.5881C374.841 30.8487 375.1 31.906 375.041 32.8963C374.952 34.1397 375.65 35.9863 373.296 36.0682C375.954 37.9818 378.724 39.3891 379.63 43.2311C375.932 42.1589 375.687 45.3458 374.841 47.4306C374.172 49.024 374.202 50.9376 373.949 52.8065C373.155 52.5012 372.108 51.645 371.328 51.8758C370.548 52.0768 370.021 53.4022 369.39 54.2659C369.271 54.0947 369.041 53.6851 368.952 53.5883C368.402 53.9904 367.852 54.2957 367.385 54.735C367.192 54.9063 366.984 55.3158 367.013 55.5764C367.214 57.0581 367.444 58.5026 367.704 59.9546C367.734 60.2152 367.852 60.446 367.964 60.7513C369.36 60.3492 369.962 60.7512 369.843 62.4787C369.843 63.0744 370.741 63.7222 371.239 64.3327C372.1 65.4198 371.618 65.7549 370.14 65.7251C370.66 66.8271 370.979 67.7802 371.506 68.5918C372.019 69.3736 372.338 69.865 371.246 70.3639C370.088 70.8851 370.377 71.9871 370.608 72.9476C370.726 73.305 371.016 73.6103 371.306 74.0645C370.147 74.541 369.969 75.2409 370.407 76.5663C370.726 77.5268 370.117 78.8298 369.917 79.9765L369.457 80.0733C369.055 79.4652 368.668 78.847 368.298 78.2192C367.147 76.2461 365.914 74.3027 364.815 72.2477C364.011 70.719 363.33 69.1279 362.78 67.4898C362.55 66.7228 362.78 65.7698 362.78 64.9135C362.78 64.2285 362.721 63.5509 362.661 62.5532C363.382 62.0468 363.887 61.0267 363.827 59.5525C363.768 57.7282 363.976 55.8891 364.147 54.0425C364.236 53.1863 365.476 52.7395 364.927 51.578C364.607 50.9004 364.347 50.2154 364.028 49.4931L363.827 46.8275C363.404 46.9839 363.055 47.1477 362.253 47.4678C363.003 48.3092 363.523 48.8602 364.087 49.441C363.857 49.8207 363.612 50.1707 363.404 50.5132C363.256 50.8036 363.115 51.0791 363.055 51.3844C362.855 52.1662 362.714 52.9629 362.543 53.7745L361.993 53.9308L360.293 51.0791C359.802 51.2131 358.956 51.3844 358.154 51.6971C357.805 51.8534 357.374 52.3374 357.315 52.7097C357.114 54.1319 357.055 55.6136 356.936 57.0581C356.936 57.4304 357.025 57.8548 357.055 58.2122C357.575 58.3984 357.983 58.5622 358.414 58.7334C358.443 58.8526 358.443 58.994 358.473 59.1429C357.404 59.8205 356.319 60.5353 355.198 61.1161C355.139 61.1608 354.678 60.3939 354.389 59.9843C354.448 59.8652 354.537 59.7535 354.619 59.6344C353.713 59.5748 352.814 59.4855 351.797 59.4184C351.708 59.8652 351.648 60.3045 351.567 60.8183C351.396 60.8183 351.166 60.7885 350.965 60.848C349.175 61.3395 347.378 61.8011 345.596 62.4117C345.188 62.5308 344.816 63.1637 344.697 63.67C344.415 64.8465 344.415 66.1197 344.081 67.2515C343.324 69.8724 342.455 72.4264 341.564 75.1664H343.294C343.465 75.6281 343.702 76.194 343.932 76.7747C344.103 76.328 344.237 75.8887 344.467 75.226C344.779 75.978 345.009 76.4992 345.329 77.2289C345.499 76.6333 345.648 76.2014 345.938 75.3451C347.193 75.8961 348.44 76.4695 349.799 77.08C350.846 76.5588 350.438 75.8366 349.859 74.8165C350.119 74.891 350.557 74.8761 350.668 75.0473C351.418 76.4248 352.109 77.8395 352.807 79.2468C352.978 79.6563 353.007 80.1328 353.215 80.4902C354.559 82.7538 355.911 85.0099 357.144 87.4372C356.654 87.0873 356.112 86.7597 355.54 86.3501C354.782 89.3061 356.706 90.9889 358.072 92.9174C357.953 92.9918 357.872 93.0663 357.753 93.1631C357.404 92.9621 357.025 92.8131 356.535 92.5525C356.416 93.044 356.364 93.4535 356.23 94.2651C355.8 93.5131 355.48 93.1035 355.369 92.6568C354.322 89.2093 353.386 85.7396 352.317 82.3219C352.168 81.8007 351.619 81.4359 351.247 80.9891C351.129 81.0189 350.987 81.0785 350.839 81.1082C351.069 82.3964 351.188 83.7738 351.641 84.9652C352.45 87.1096 352.22 89.1647 351.871 91.3612C351.463 94.1013 350.43 96.5807 349.554 99.1272C349.495 99.358 349.354 99.5889 349.265 99.8048C348.314 101.599 347.534 101.845 345.99 100.884C345.499 101.473 344.972 102.024 344.579 102.679C344.319 103.118 343.984 103.751 344.103 104.123C344.638 105.635 343.873 106.558 343.004 107.377C342.224 108.181 342.306 108.65 343.123 109.403C344.786 110.892 346.064 112.701 346.435 115.113C346.651 116.245 345.997 117.057 344.957 117.258C344.326 117.377 343.702 117.749 342.893 118.099C342.804 117.288 342.774 116.446 342.633 115.605C342.544 115.113 342.343 114.637 342.202 114.175C342.113 113.974 341.913 113.751 341.913 113.58C342.083 112.165 342.031 112.15 340.784 112.09C340.435 112.076 339.922 111.539 339.803 111.145C339.655 110.49 339.774 109.752 339.774 109.09C337.576 107.355 336.543 109.849 334.902 110.914L335.422 106.916C334.872 106.245 334.308 106.275 333.781 107.355C333.372 108.248 332.919 109.149 332.37 109.939C332.14 110.251 331.56 110.281 331.063 110.482C330.632 112.344 333.12 111.889 333.142 113.676C334.36 111.674 335.934 112.426 337.427 112.731C337.576 112.775 337.598 113.505 337.709 114.086C335.934 113.915 335.244 115.225 334.546 116.431C334.36 116.811 334.664 117.675 334.954 118.166C335.333 118.851 335.934 119.38 336.425 119.991C336.93 120.631 337.368 121.331 337.91 121.904C338.287 122.351 338.503 122.911 338.525 123.496C338.546 124.08 338.371 124.655 338.029 125.128C339.536 126.722 339.425 127.302 338.467 129.387C337.917 130.579 337.227 131.733 337.078 133.266C336.959 134.532 335.533 135.672 334.575 136.811C333.491 138.054 331.984 138.069 330.573 138.508C329.266 138.903 328.055 140.012 327.112 141.137C326.473 141.919 326.221 141.777 325.783 141.167C324.795 139.759 322.82 139.931 322.062 141.546C321.052 143.706 321.49 145.195 323.57 146.677C325.723 148.24 326.993 151.367 326.392 153.802C326.303 154.182 326.191 154.644 325.953 154.882C324.348 156.227 322.724 157.55 321.082 158.85L320.993 157.726C320.963 157.101 321.431 156.081 320.035 156.565C319.775 156.669 319.114 155.76 318.765 155.202C318.126 154.167 317.517 153.288 316.262 153.132C315.913 153.087 315.653 152.417 315.215 151.851C314.829 153.519 314.45 155.046 314.19 156.565C314.131 156.855 314.421 157.25 314.599 157.585C315.044 158.374 315.386 159.238 315.913 159.93C316.433 160.652 317.072 161.293 317.777 161.784C318.995 162.678 319.745 163.668 319.775 165.433C319.775 166.482 320.443 167.517 320.852 168.657C319.663 169.267 318.832 168.426 318.104 167.86C316.589 166.661 316.039 164.777 315.341 162.946C314.918 161.762 314.465 160.258 313.566 159.699C312.586 159.089 312.868 158.597 312.898 157.83C312.958 156.215 313.188 154.539 312.898 152.991C312.497 150.95 311.628 149.029 310.96 147.086C310.009 147.607 309.259 148.121 308.442 148.426C307.447 148.761 306.987 148.426 307.217 147.146C307.289 146.416 307.232 145.68 307.046 144.971C306.987 144.741 306.526 144.592 306.267 144.406C306.135 144.468 306.009 144.54 305.888 144.621V143.289C304.833 141.956 303.964 140.764 303.043 139.596C303.126 139.44 303.203 139.281 303.274 139.119C302.754 139.32 302.227 139.528 301.707 139.7C301.076 139.893 300.437 140.243 299.828 140.214C298.647 140.199 297.734 140.362 297.645 141.919C297.645 142.12 297.414 142.336 297.236 142.507C295.966 143.817 294.674 145.172 293.352 146.438C292.394 147.347 291.184 148.017 290.486 149.059C290.048 149.729 290.226 150.98 290.397 151.889C290.716 153.668 289.765 157.153 288.458 158.277C286.594 159.908 286.216 159.699 285.48 157.078C285.198 156.043 284.56 155.15 284.121 154.145C283.193 151.985 282.101 149.871 281.403 147.637C280.653 145.388 280.312 143.028 279.844 140.98C279.086 141.196 278.099 141.807 277.341 141.576C276.532 141.315 275.886 140.266 274.987 139.387C275.655 139.253 276.064 139.201 276.591 139.111C275.017 138.456 273.687 137.801 272.819 136.297C272.328 135.456 271.638 134.852 270.531 135.083C267.42 135.761 264.286 135.396 261.219 134.748C260.781 134.644 260.32 134.063 260.149 133.616C259.8 132.678 259.34 132.388 258.568 132.969C257.446 133.832 256.355 133.415 255.345 132.797C253.837 131.852 252.218 131.025 251.49 129.052C251.119 127.958 250.161 128.389 249.47 128.591C249.314 128.62 249.225 129.841 249.5 130.251C250.399 131.844 251.438 133.319 252.448 134.83C252.597 134.584 252.827 134.249 253.258 133.579C253.458 134.629 253.607 135.314 253.718 135.999C253.837 136.774 254.127 136.826 254.877 136.915C257.379 137.25 257.929 134.8 259.474 133.46C259.563 134.242 259.474 134.942 259.733 135.433C260.112 136.148 260.803 137.25 261.263 137.205C262.882 137.086 263.521 138.449 263.922 139.409C264.182 139.998 263.164 141.263 262.704 142.216C262.392 142.827 262.043 143.408 261.523 144.376C260.855 145.016 259.934 146.103 258.82 147.004C258.271 147.443 257.431 147.443 256.8 147.786C256.265 148.047 255.857 148.545 255.404 148.925C255.114 149.156 254.825 149.431 254.505 149.61C252.686 150.466 250.837 151.375 248.973 152.134C247.465 152.745 245.861 153.169 244.331 153.668C244.361 153.497 244.48 153.341 244.45 153.236C243.351 150.623 243.812 147.332 241.502 145.247C241.331 145.091 241.272 144.711 241.094 144.473C240.715 143.884 240.366 143.169 239.824 142.79C238.821 142.082 238.42 141.167 238.242 139.945C238.123 139.111 237.893 137.846 237.38 137.578C235.888 136.766 235.769 135.083 234.878 133.966C234.239 133.207 233.749 132.299 233.192 131.427L231.892 132.083C231.922 134.622 234.41 136.007 234.321 138.59C234.291 138.709 234.469 138.896 234.581 138.94C236.489 139.722 236.341 141.651 236.72 143.304C236.838 143.884 237.225 144.398 237.514 144.912C238.056 145.857 238.636 146.796 239.215 147.726C239.69 148.426 240.121 149.141 240.641 149.752C241.829 151.092 243.099 152.365 244.317 153.631C244.168 154.733 244.799 155.403 245.468 155.976C245.698 156.177 246.136 156.237 246.455 156.177C248.03 155.82 249.574 155.403 251.141 155.038C251.743 154.882 252.471 154.882 253.02 154.547C254.349 153.691 254.409 154.502 254.32 155.612C254.26 156.289 254.29 157.071 253.971 157.629C252.211 160.891 251.112 164.606 248.208 167.108C245.705 169.282 243.307 171.642 241.079 174.129C240.15 175.179 239.72 176.743 239.096 178.046C239.037 178.135 238.977 178.307 239.007 178.336C240.232 179.729 239.178 181.583 239.861 183.064C239.972 183.288 240.002 183.548 240.143 183.757C240.403 184.196 241.012 184.658 240.952 184.978C240.514 187.227 241.561 189.647 240.314 191.731C239.883 192.498 239.118 193.079 238.42 193.645C236.982 194.866 235.491 196.021 233.95 197.107C233.222 197.614 233.281 198.098 233.4 198.835C233.571 200.034 233.63 201.255 233.749 202.483C233.92 203.913 233.051 204.427 232.019 204.747C231.001 205.037 230.34 205.283 230.4 206.832C230.407 207.576 230.254 208.313 229.952 208.993C229.649 209.672 229.204 210.279 228.647 210.77C227.303 212.021 226.375 213.771 225.135 215.208C223.345 217.286 221.147 218.343 218.414 218.142C217.33 218.082 216.23 218.551 215.161 218.633C214.121 218.723 213.052 218.604 211.953 218.544C211.923 215.454 211.782 212.572 210.26 210.458C208.611 208.083 208.18 205.454 207.846 202.759C207.557 200.13 206.287 198.016 205.269 195.73C205.009 195.179 204.69 194.568 204.69 193.995C204.809 191.471 205.15 189.066 206.948 187.122C207.297 186.743 207.386 185.842 207.356 185.209C207.237 183.988 207.126 182.744 206.747 181.642C205.938 179.349 205.618 176.788 203.598 175.179C203.132 174.752 202.723 174.267 202.381 173.735C201.801 172.759 201.281 171.814 201.89 170.511C202.351 169.528 202.499 168.366 202.73 167.257C203.041 165.574 201.861 164.234 200.316 164.584C198.697 164.949 197.323 165.053 196.714 162.797C196.395 161.687 194.835 161.494 193.068 162.104C192.229 162.395 191.479 162.908 190.654 163.214C189.585 163.623 188.605 163.973 187.342 163.72C185.954 163.43 184.394 163.69 183.005 164.13C181.995 164.45 181.171 164.539 180.302 163.899C178.787 162.812 177.25 161.784 175.832 160.593C175.361 160.12 175.023 159.532 174.851 158.888C174.242 156.773 172.623 155.671 171.22 154.338C170.529 153.668 170.002 153.095 170.18 151.933C170.24 151.382 169.839 150.72 169.631 150.064C170.559 148.195 171.48 146.312 170.819 143.936C170.618 143.155 170.878 142.276 170.121 141.613C169.95 141.442 170.091 140.578 170.321 140.191C171.695 137.868 172.765 135.381 174.525 133.244C175.483 132.105 176.611 131.591 177.621 130.735C178.125 130.37 178.531 129.885 178.801 129.323C179.07 128.761 179.196 128.141 179.166 127.518C179.196 126.439 179.745 124.882 180.555 124.384C182.426 123.2 183.614 121.688 184.253 119.574C184.803 120.676 185.582 121.13 186.741 120.824C187.06 120.75 187.431 120.981 187.78 120.973C188.271 120.944 188.835 120.958 189.243 120.728C190.684 119.856 192.058 118.814 193.825 118.829C194.917 118.844 196.024 118.71 197.093 118.598C199.276 118.397 201.43 117.667 203.22 118.338C203.45 119.328 203.658 119.991 203.68 120.683C203.668 121.148 203.549 121.605 203.331 122.016C203.183 122.336 202.871 122.567 202.321 123.207C204.259 123.758 205.849 124.13 207.416 124.6C208.21 124.801 209.079 124.949 209.25 126.104C209.309 126.364 209.658 126.61 209.94 126.759C210.936 127.22 211.953 127.675 212.963 128.084C213.282 128.203 213.772 128.375 213.951 128.218C214.24 128.002 214.589 127.436 214.5 127.131C214.211 126.156 214.27 125.277 215.131 124.786C216.149 124.25 217.24 124.086 218.332 124.86C218.681 125.091 219.03 125.366 219.424 125.471C221.295 125.977 223.174 126.439 225.053 126.848C225.513 126.938 226.011 126.759 226.464 126.729C227.392 126.669 228.335 126.528 229.256 126.61C230.37 126.729 231.581 127.191 232.078 125.627C232.776 123.468 233.898 121.368 232.977 118.65C232.487 118.822 231.878 118.956 231.35 119.231C230.489 119.678 229.657 119.998 228.729 119.246C228.358 118.926 227.444 118.65 227.273 118.851C226.234 120.05 225.365 119.76 224.436 118.777C224.206 119.231 223.976 119.626 223.865 119.864C222.907 118.486 222.008 117.213 221.147 115.925C221.436 115.694 221.837 115.419 222.476 114.89C221.978 114.987 221.478 115.074 220.976 115.151C221.095 114.428 221.265 113.877 221.206 113.356C221.206 112.917 220.976 112.172 220.768 112.157C220.159 112.089 219.542 112.158 218.963 112.359C218.934 114.272 217.946 113.326 217.07 113.252C217.916 114.414 218.763 115.575 219.446 116.491C218.874 117.213 218.146 117.675 218.057 118.271C217.909 119.358 217.285 119.127 216.951 118.807C216.273 118.107 215.671 117.339 215.154 116.513C214.782 115.977 214.582 115.307 214.292 114.719C213.884 113.937 213.045 113.148 213.074 112.396C213.134 110.14 212.064 109.164 210.26 108.688C209.97 108.613 209.74 108.308 209.48 108.107C208.723 107.444 207.958 106.744 207.178 106.082C206.628 105.62 206.079 105.129 205.351 104.488C205.292 104.548 204.801 104.868 204.831 105.188C204.831 105.717 205.032 106.342 205.321 106.811C205.782 107.571 206.361 108.204 206.911 108.866C207.23 109.276 207.542 109.886 207.98 109.998C209.473 110.43 210.393 111.681 211.686 112.396C211.975 112.552 212.064 113.155 212.205 113.528C212.005 113.699 211.767 113.907 211.567 114.064C211.448 113.758 211.448 113.394 211.277 113.207C211.106 113.036 210.646 112.947 210.557 113.036C210.401 113.297 210.252 113.706 210.312 113.967C210.765 115.62 210.163 116.871 208.663 117.295C208.593 117.943 208.506 118.588 208.403 119.231L205.091 117.236C205.091 117.116 205.091 116.975 205.121 116.863C205.462 116.744 205.782 116.603 206.16 116.543C206.74 116.484 207.378 116.558 207.92 116.394C208.396 116.245 209.064 115.94 209.176 115.568C209.294 115.032 209.176 114.19 208.826 113.803C208.215 112.97 207.419 112.289 206.502 111.815C204.452 110.974 203.264 109.291 202.135 107.452C201.586 106.566 200.947 105.985 199.863 106.975C198.704 108.047 197.479 109.015 195.771 108.099C194.791 107.571 194.264 108.189 194.264 109.261C194.323 110.676 193.773 111.405 192.504 111.889C191.145 112.388 190.521 114.25 191.055 115.523C190.721 116.044 190.491 116.625 190.12 117.027C189.54 117.667 188.902 118.397 188.137 118.673C186.912 119.142 185.553 119.283 184.253 119.574ZM215.911 65.0922C214.671 65.0922 213.572 64.7795 212.785 65.1964C212.324 65.4719 212.384 66.8345 212.153 67.6759C212.005 68.2418 211.864 68.8524 211.515 69.2842C211.054 69.8948 210.475 70.3713 209.881 70.8925C208.091 72.5157 207.898 75.0399 209.51 76.6928C210.713 77.914 210.624 79.1128 209.25 80.1403C208.322 80.8402 208.062 82.5155 208.581 83.5356C208.96 84.2653 208.93 84.8386 208.091 85.4194C207.297 85.9257 205.967 85.4492 205.618 86.8937C205.589 87.0128 204.608 86.8341 204.141 86.782C203.851 87.2734 203.561 88.2414 203.041 88.4499C202.522 88.636 201.772 88.0403 200.992 87.7723C201.801 89.3061 202.989 89.4253 205.099 88.3531L205.878 90.006C206.977 89.2764 207.876 88.5839 208.871 88.1074C209.421 87.8616 210.624 87.7499 210.735 88.018C211.166 88.8892 211.515 88.4573 211.923 88.152C212.384 87.8095 212.814 87.4447 213.312 87.0203C212.933 83.4686 213.111 82.9027 214.901 82.2549L215.948 83.8334C216.787 82.039 216.676 81.6741 215.221 81.0189L213.78 82.2624C213.899 81.4656 213.869 80.9296 214.069 80.5275C214.649 79.3064 215.748 78.8149 216.877 78.3979C218.362 77.8469 220.226 79.1202 221.332 77.1396C219.951 76.0376 218.34 76.2982 216.966 77.08C215.488 77.9214 214.359 77.5863 213.23 76.5886C212.891 76.3075 212.658 75.9187 212.569 75.4866C212.339 73.8039 212.161 72.0913 211.99 70.6468C213.951 69.448 214.671 67.3706 215.911 65.0922ZM225.981 102.396C225.313 104.161 223.753 105.382 223.753 107.414C223.753 107.504 223.664 107.601 223.605 107.675C222.476 108.717 223.055 109.73 223.724 110.624C224.184 111.279 226.724 111.383 227.281 110.884C227.888 110.341 228.633 109.976 229.434 109.832C230.235 109.687 231.06 109.768 231.818 110.065C233.549 110.668 235.205 111.785 237.143 111.204C237.759 111.033 238.658 110.854 238.858 110.393C239.059 109.909 238.769 108.799 238.368 108.449C237.113 107.355 235.695 106.491 234.336 105.553C233.846 105.203 233.378 104.823 233.088 104.622C233.608 103.312 234.016 102.314 234.536 100.944C233.437 101.428 232.516 101.718 231.729 102.217C231.321 102.448 231.12 103.029 230.808 103.461C231.239 103.58 231.64 103.721 232.078 103.84C232.279 103.9 232.516 103.93 232.717 103.96C232.747 104.109 232.806 104.22 232.836 104.369C231.737 104.882 230.633 105.383 229.523 105.873C228.99 105.201 228.46 104.526 227.934 103.848L228.915 103.409C227.845 103.036 226.961 102.746 225.981 102.396ZM254.862 117.437C254.424 116.074 254.312 114.339 253.451 113.349C252.114 111.785 252.463 109.827 251.914 108.844C250.846 107.608 249.762 106.387 248.661 105.181C249.567 104.31 250.324 103.55 251.074 102.805C251.238 102.835 251.446 102.895 251.617 102.925C251.386 102.225 251.156 100.951 250.896 100.951C249.819 100.922 248.654 100.542 247.696 101.614C247.087 102.314 246.121 102.664 245.483 103.349C244.903 104.004 244.361 104.905 245.393 105.754C245.594 105.925 245.854 106.216 245.884 106.484C246.292 109.053 248.386 110.251 249.441 111.718C249.107 113.118 248.765 114.302 248.624 115.516C248.564 115.88 248.884 116.58 249.196 116.752C250.963 117.638 252.693 118.673 254.862 117.437ZM308.791 87.3553C311.628 86.7448 313.589 80.6615 311.658 78.1373C312.007 81.7039 310.9 84.7195 308.791 87.3553ZM231.64 173.586C232.048 172.886 232.509 172.32 232.739 171.672C232.858 171.293 232.709 170.496 232.479 170.362C231.402 169.826 230.429 170.622 230.4 171.925L230.311 173.586H231.64ZM258.694 104.779C259.318 104.689 260.246 104.853 260.469 104.488C260.818 103.937 260.699 103.044 260.788 102.165C258.783 102.552 258.523 102.865 258.694 104.779ZM223.694 77.0949C224.154 76.6184 224.845 76.0525 224.786 75.9483C224.325 75.092 223.716 74.3251 223.107 73.4092C221.615 75.2111 223.233 75.844 223.694 77.0949ZM226.345 72.6572C227.043 73.4688 227.637 74.1091 228.216 74.742C228.306 74.6825 228.387 74.6229 228.499 74.5708C228.216 73.8485 227.897 73.1263 227.578 72.3817C227.221 72.4561 226.932 72.5083 226.345 72.6572ZM233.148 189.133C233.296 189.118 233.437 189.118 233.586 189.088C233.437 187.383 233.355 185.693 233.237 183.98C233.118 183.98 233.014 184.01 232.925 184.01C232.977 185.723 233.088 187.428 233.148 189.133ZM227.013 175.7C227.244 180.019 227.214 179.669 227.957 179.818C227.667 178.515 227.333 177.085 227.013 175.7ZM282.391 28.049C281.463 28.265 280.891 28.4139 280.252 28.5553C280.341 28.8159 280.453 29.1808 280.661 29.8882C281.292 29.2255 281.752 28.7415 282.391 28.049Z" fill="#C7C7C7"/>
<path fill-rule="evenodd" clip-rule="evenodd" d="M86.7759 45.1153C86.6274 49.1287 89.234 49.635 92.2268 49.7839C92.7466 49.0542 93.1773 47.7586 94.6106 48.1011L94.67 48.2203C94.9596 48.6298 95.279 49.0319 95.7394 49.7616C95.8582 50.253 94.1799 50.6923 95.1007 51.7868C95.4201 50.7444 95.6503 49.8286 96.9573 49.702C97.4771 49.6424 97.9376 48.9202 98.5465 48.399L97.6182 47.8182C98.0564 47.2672 98.398 46.7832 98.6282 46.4705C98.1678 45.6142 97.2395 44.6835 97.2692 43.79C97.2989 42.5987 97.8188 40.9978 98.6282 40.3947C101.071 38.6896 101.539 35.8452 102.72 33.4104C103.21 32.4276 103.804 31.1767 105.022 31.3852C106.121 31.5862 107.161 32.2117 108.171 32.718C108.26 32.7775 108.23 33.5891 108.022 33.8349C107.319 34.75 106.515 35.5818 105.624 36.3143C105.186 36.6568 104.436 36.5005 103.834 36.5749C104.035 36.7462 104.265 36.9026 104.465 37.0664L102.022 39.0097V44.7952C101.762 45.0111 101.242 45.4504 100.596 45.9716C101.361 46.3514 101.94 46.6566 102.43 46.9024L101.502 49.5978L101.673 49.7467C102.163 49.0244 102.631 48.2947 103.21 47.4533C103.834 48.6745 104.384 49.5829 103.455 50.8487C103.032 51.3699 103.24 52.4123 103.181 53.209C103.381 53.2835 103.634 53.3132 103.834 53.3802C104.035 52.6133 104.265 51.8539 104.554 50.7295C104.814 51.2954 104.903 51.5709 105.163 52.1517C105.535 50.2232 107.391 49.6275 107.421 47.7139C107.421 47.3193 108.03 46.9321 108.371 46.5524C107.503 46.1429 106.374 45.8376 105.594 45.1005C105.074 44.6239 105.045 43.4921 104.785 42.6359C104.903 42.5465 105.074 42.4646 105.186 42.3753C105.735 42.6061 106.285 42.8667 106.834 43.105C106.894 43.0156 106.923 42.9188 106.983 42.8146C106.634 42.6135 106.285 42.3083 105.884 42.1817C104.903 41.8615 104.844 41.3105 105.304 40.3798C106.314 38.2056 107.673 36.3516 109.471 34.8996C110.755 33.887 111.973 33.9465 113.34 35.1453C110.926 36.0835 109.953 38.2056 109.411 40.5808C109.292 41.0201 109.701 41.6083 110.042 42.1221C109.894 40.9903 109.352 39.7916 110.978 39.4863C110.768 38.8377 110.812 38.1332 111.102 37.5162C111.392 36.8992 111.905 36.4162 112.538 36.1654C114.632 35.2496 115.939 35.3091 116.459 36.4409C116.629 36.1952 116.748 35.8601 116.919 35.8006C118.456 35.4804 120.58 37.8556 120.127 39.4863C120.098 39.6203 119.697 39.6352 119.437 39.7171C118.887 39.6277 118.308 39.3671 117.818 39.4863C116.488 39.8511 116.199 39.181 116.139 37.9375C116.05 38.5928 115.939 39.3895 116.258 39.6948C116.57 40.0075 117.298 39.8958 117.847 39.8958C118.397 39.866 118.917 39.7767 119.466 39.7245C119.867 40.5361 120.335 41.318 120.699 42.1891C120.848 42.5167 120.729 42.956 120.729 43.1571C121.338 43.4624 122.229 43.6336 122.637 44.1697C123.573 45.3759 124.301 46.7385 125.14 48.1533C124.991 48.3096 124.702 48.5777 124.412 48.8532C125.43 48.2128 125.652 48.9723 125.741 49.7243C125.831 50.387 125.712 51.0869 125.652 51.8092L123.922 52.9707C124.85 54.579 126.699 55.1151 127.071 56.7085C127.769 57.4308 128.43 58.0265 128.95 58.7338C129.12 58.9647 128.92 59.7167 128.66 59.9773C128.021 60.6102 127.182 61.0793 126.521 61.7196C126.202 62.0323 126.083 62.6206 125.712 63.4173C125.251 62.911 124.672 62.4865 124.382 61.9207C123.922 61.0495 123.662 60.0517 123.202 58.8306C122.259 60.64 121.768 61.9728 123.462 63.2386C124.13 63.7151 124.011 66.4105 123.58 67.2817C123.35 67.8029 123.35 68.4581 123.239 69.091C122.266 68.0933 121.226 66.9913 120.172 65.9191L119.912 66.1797C120.506 67.3785 121.835 68.2496 121.434 70.1186C120.457 69.6223 119.499 69.0908 118.56 68.5251C118.07 68.2496 117.892 67.2519 117.053 67.8848C116.704 67.1626 116.124 66.4626 116.043 65.7255C115.813 63.6704 114.424 62.4344 112.5 62.9259C111.602 63.1567 110.792 63.2162 110.466 62.2929C110.347 61.8536 110.971 61.1314 111.26 60.5357C111.379 60.29 111.58 60.089 111.81 60.2602H115.753C114.944 58.9274 115.634 58.4881 116.362 57.7956C117.231 56.9543 118.649 56.4777 118.471 54.6684C118.352 53.2462 117.833 52.6357 116.474 52.8367L116.503 52.8665L116.763 51.489C116.503 51.5039 116.132 51.5635 115.753 51.5932C115.664 50.0892 115.582 48.6372 115.464 47.0438C114.855 47.4533 114.164 47.7437 113.644 48.2352C113.05 48.8159 112.731 48.5553 112.211 48.1756C111.81 47.8629 110.993 47.5799 110.696 47.8033C110.176 48.2352 110.577 48.6149 111.112 49.0468C111.75 49.6573 110.666 51.3922 109.478 51.623C109.419 53.276 110.028 55.0183 107.97 56.1724C106.292 57.1032 104.993 57.2595 103.693 55.7257C103.574 56.5522 103.522 57.0734 103.463 57.5946C103.247 57.7137 103.039 57.8254 102.869 57.9446C101.911 59.0763 100.945 60.1783 100.017 61.3101C99.408 62.0323 98.747 62.4865 97.9079 61.8313C97.3574 62.2675 96.7978 62.692 96.2295 63.1046C96.081 63.4396 95.8285 64.2959 95.7097 64.2661C94.2022 63.9236 93.6749 65.4574 92.858 66.1499C91.1425 67.654 89.5459 69.3963 88.9444 71.9428C88.625 73.1639 88.5953 73.8043 89.9543 73.6702V77.6463C91.6178 76.7305 92.9174 77.9888 93.9719 79.1504C96.5489 82.0245 96.4597 82.099 100.076 82.9329C99.4377 85.5538 98.0564 88.2939 100.767 90.7436C101.94 90.5277 102.49 89.6267 102.371 88.0631C102.312 86.9233 102.341 85.7806 102.46 84.6454C102.512 84.2936 102.699 83.9759 102.98 83.7594C103.464 83.4606 103.983 83.223 104.525 83.052C107.421 81.9798 107.421 78.3984 106.173 76.4997C105.973 76.2093 106.032 75.4275 106.262 75.1668C107.28 73.9308 108.49 72.8735 107.681 70.945C108.609 70.0441 108.26 68.8155 108.49 67.7135C108.72 66.7307 109.537 66.8126 110.317 67.0211C111.283 67.2817 112.3 67.3115 113.206 67.654C113.696 67.8252 114.134 68.4135 114.394 68.9272C115.003 70.2005 115.582 71.5109 117.112 71.3918C116.912 72.4938 116.563 73.5213 116.563 74.5488C116.6 75.3613 116.797 76.1583 117.142 76.8943C117.491 77.7357 118.182 77.8101 118.701 77.1996C119.652 76.1125 120.506 74.8764 121.405 73.7223C121.553 73.5362 121.664 73.3277 121.924 72.9256C122.615 75.8221 123.269 78.51 123.937 81.3916C123.629 81.8127 123.312 82.2273 122.986 82.635C124.227 83.6477 125.474 84.638 126.685 85.6804C126.951 85.9277 127.167 86.2233 127.323 86.5516C127.583 86.9834 127.702 87.594 128.014 87.9142C128.563 88.4652 128.623 88.9938 128.712 89.798C128.883 91.5477 127.643 91.8977 126.833 92.7093L126.893 92.6646C125.964 92.4487 125.214 92.5753 124.553 93.4464C123.543 94.7792 122.08 94.608 120.669 94.4889C119.325 94.3697 117.996 94.1687 116.659 94.0272C116.399 94.0272 116.05 93.9974 115.879 94.1464C114.61 95.1292 113.362 96.1716 112.248 97.0875C113.392 96.7301 114.662 96.2312 115.991 95.9855C116.451 95.8887 117.06 96.3801 117.528 96.7301C117.639 96.8194 117.55 97.363 117.469 97.6608C117.298 98.182 116.949 98.6437 116.86 99.2021C116.741 99.8797 116.83 100.594 116.83 101.287L117.238 101.272L117.038 100.029C117.877 100.453 118.575 100.81 119.325 101.168C119.236 101.473 119.125 101.838 119.036 102.218L119.295 102.478C120.016 101.719 120.729 100.974 121.479 100.155C121.739 100.825 121.969 101.399 122.259 102.18C119.786 103.379 117.276 104.615 114.61 105.903C113.6 105.114 114.149 104.265 115.07 103.275C114.632 103.32 114.26 103.245 114.201 103.349C113.681 104.414 112.679 104.146 111.877 104.437C110.592 104.898 109.144 105.293 108.735 106.99C108.617 107.482 108.884 108.063 109.144 108.643C108.505 110.066 107.094 109.455 105.936 109.76C105.906 109.745 105.936 109.805 105.965 109.82C105.995 109.835 106.025 109.82 106.084 109.835C106.054 110.066 106.025 110.468 105.995 110.468C104.695 110.378 104.346 111.428 103.656 112.329C102.72 113.573 102.193 115.106 101.094 116.514V114.809C100.878 115.025 100.73 115.129 100.73 115.188C100.789 115.799 100.76 116.38 100.878 116.938C101.064 117.67 100.998 118.443 100.689 119.131C100.38 119.819 99.8471 120.382 99.1778 120.728C98.2272 121.279 97.4103 122.128 96.5489 122.843C96.2295 123.118 95.9399 123.453 95.5686 123.639C93.5561 124.682 92.9768 125.642 93.2962 128.003C93.4447 129.336 93.8308 130.639 94.0611 131.956C94.186 132.477 94.1758 133.02 94.0314 133.535C93.8308 134.146 93.3556 134.637 93.0065 135.188C92.5981 134.726 92.056 134.354 91.848 133.825C91.3876 132.493 90.2737 131.376 90.8826 129.663C91.0312 129.239 90.1623 128.39 89.7241 127.705C89.2043 127.936 88.7958 128.114 88.3948 128.33C87.0061 126.625 85.2164 127.213 83.5232 127.295C83.3227 127.325 83.1816 128.397 82.9142 129.254C81.7854 129.008 80.3225 128.539 78.8224 128.405C77.9832 128.33 77.0846 128.703 76.2157 128.978C75.6921 129.168 75.2029 129.442 74.7676 129.79C74.2032 130.281 73.3641 130.847 73.3121 131.472C72.9928 134.548 71.4481 137.437 72.1536 140.661C72.5026 142.135 74.2404 144.763 75.5251 145.098C75.8667 145.188 76.3049 144.949 76.7059 144.897C77.4337 144.778 78.1837 144.667 78.9338 144.562C78.9932 144.696 79.0823 144.808 79.164 144.942C79.6244 143.803 80.0923 142.649 80.5824 141.539C80.7309 141.249 80.9611 140.839 81.1913 140.765C82.2756 140.534 83.3747 140.355 84.4886 140.229C85.4986 140.11 85.558 140.668 85.209 141.524C84.8005 142.492 84.548 143.542 84.1693 144.488C83.6346 145.813 83.0256 147.101 82.4241 148.553C84.0876 148.553 85.6471 148.479 87.1769 148.553C89.0335 148.658 89.4642 149.596 89.0558 151.532C88.7067 153.192 87.667 154.852 89.0558 156.595C90.0954 157.92 91.0534 158.3 92.509 157.555C94.0536 156.759 95.1824 157.421 96.4226 158.843C97.0316 157.92 97.5514 157.019 98.1604 156.23C98.5487 155.791 99.0081 155.421 99.5194 155.135C100.477 154.584 101.472 154.1 102.482 153.654C102.891 153.482 103.381 153.453 103.886 153.371C103.906 153.519 103.944 153.663 103.997 153.803C103.708 154.212 103.381 154.644 103.062 155.113C104.695 155.649 104.636 153.966 105.163 153.423C106.144 154.234 107.042 155.054 107.822 155.724C108.921 155.917 109.901 156.185 110.926 156.297C111.305 156.357 111.706 156.081 112.114 155.992L114.847 155.374L115.018 155.798C114.788 156.007 114.558 156.23 114.32 156.431C114.409 156.535 114.491 156.617 114.55 156.707C115.07 156.267 115.619 155.835 116.169 155.403C116.228 155.478 116.34 155.552 116.429 155.619C116.34 155.977 116.139 156.357 116.199 156.707C116.318 157.287 116.459 158.039 116.808 158.389C117.558 159.089 118.605 159.439 119.236 160.221C120.216 161.435 121.33 162.135 122.838 162.09C125.742 161.986 127.568 163.318 128.697 166.118C129.187 167.287 130.175 168.136 130.086 169.722C130.086 170.228 131.631 170.973 132.529 171.367C133.732 171.881 135.032 172.075 136.242 172.551C136.591 172.708 136.792 173.393 137 173.728C137.809 173.787 138.619 173.787 139.428 173.899C140.713 174.093 141.96 174.331 143.215 174.703C143.676 174.837 144.084 175.373 144.515 175.723C145.124 176.207 145.703 177.056 146.305 177.056C148.043 177.056 148.302 178.396 148.644 179.67C148.827 180.343 148.843 181.051 148.692 181.732C148.54 182.413 148.226 183.047 147.775 183.579C146.505 185.209 145.228 186.832 144.018 188.478C143.847 188.709 143.869 189.133 143.869 189.468C143.928 191.553 144.129 193.616 143.238 195.641C142.599 197.175 142.577 199.006 141.864 200.481C141.463 201.263 140.304 201.873 139.421 202.015C136.792 202.469 134.794 203.988 133.116 206.006C132.767 206.408 132.64 207.405 132.826 207.994C133.175 209.088 132.856 209.907 132.351 210.771C131.653 211.962 131.363 213.541 130.442 214.427C129.098 215.715 128.578 217.45 127.709 218.976C126.662 220.696 125.942 220.57 124.182 220.279C123.722 220.19 123.313 220.004 122.897 219.87C123.291 220.83 123.491 221.858 124.041 222.535C124.991 223.757 124.041 224.739 123.632 225.32C122.318 227.085 120.335 227.129 118.315 226.899C118.375 227.814 118.486 228.715 118.434 229.579C118.375 230.666 117.706 231.053 116.785 230.845C116.325 230.741 115.857 230.45 115.196 230.16C115.337 230.964 115.426 231.56 115.538 232.275C116.028 232.245 116.466 232.185 116.986 232.155C117.365 232.885 117.647 233.518 116.577 233.98C115.798 234.33 115.389 234.97 115.649 236.035C115.768 236.541 115.419 237.286 115.1 237.762C114.662 238.38 114.06 238.857 113.54 239.4C114.209 240.011 114.899 240.584 115.59 241.165C115.649 241.224 115.738 241.224 115.85 241.269C116.37 242.356 116.05 243.227 115.36 244.128C115.018 244.568 114.899 245.223 114.699 245.781C114.61 245.967 114.639 246.243 114.528 246.347C112.515 248.015 113.778 249.519 114.847 251.135H113.689C113.889 251.291 113.978 251.381 114.067 251.44C114.379 251.634 114.966 251.798 115.018 252.088C115.597 254.217 117.216 254.739 118.865 255.267C118.984 255.297 119.065 255.416 119.414 255.677C118.256 256.25 117.246 256.719 116.206 257.255L116.466 258C115.587 257.666 114.711 257.326 113.837 256.98C113.874 256.849 113.924 256.721 113.986 256.6C113.726 256.771 113.317 257.181 113.228 257.092C112.664 256.712 112.233 256.191 111.973 255.938L107.644 253.287C108.572 251.805 107.495 251.299 106.604 250.606C107.124 250.39 107.473 250.227 107.904 250.055C107.755 249.616 107.644 249.259 107.495 248.931C107.295 249.288 107.094 249.72 106.805 250.294C106.196 248.499 105.676 247.069 105.215 245.625C104.926 244.694 104.205 243.682 105.594 242.959C105.854 242.825 105.854 242.155 106.002 241.641C105.802 241.537 105.624 241.396 105.423 241.366C104.993 241.321 104.525 241.336 104.094 241.336C104.294 240.681 104.413 239.921 104.762 239.393C105.282 238.663 105.453 238.142 104.933 237.39C104.814 237.241 105.134 236.779 105.275 236.459C105.413 236.497 105.549 236.542 105.683 236.593C105.52 236.366 105.367 236.133 105.223 235.893C105.572 235.819 105.861 235.789 106.151 235.759V232.513C106.032 232.513 105.98 232.483 105.891 232.483C105.691 233.406 105.453 234.367 105.252 235.298C105.141 235.268 104.993 235.253 104.881 235.238C104.762 235.067 104.591 234.903 104.621 234.747C104.651 232.729 104.77 230.718 104.74 228.693C104.707 227.827 104.542 226.97 104.25 226.154C103.96 225.439 104.101 225.022 104.309 224.307C105.089 221.381 105.757 218.366 105.238 215.201C105.007 213.742 105.126 212.193 105.156 210.667C105.215 208.537 105.356 206.408 105.416 204.278C105.446 202.513 105.186 200.712 105.356 198.947C105.676 195.931 103.737 194.777 101.844 193.496C100.76 192.767 99.4897 192.208 98.6505 191.203C97.6702 190.042 97.0613 188.508 96.3112 187.115C95.5612 185.574 94.8928 183.981 94.0834 182.477C93.6081 181.591 93.1179 180.533 92.3679 180.072C91.4173 179.506 91.1648 178.836 90.9643 177.808C90.6747 176.468 91.3133 175.865 92.2193 175.254C91.9 174.584 91.3505 173.921 91.4099 173.341C91.5584 171.65 91.9594 170.049 93.2887 168.843C94.2839 167.957 95.3235 166.915 95.8508 165.694C96.2221 164.741 96.0216 163.348 95.732 162.261C95.3532 160.809 94.6329 159.447 94.0536 158.054H93.5189C93.2887 158.695 93.1105 159.424 92.7392 159.931C92.509 160.236 91.7886 160.459 91.499 160.295C90.6706 159.801 89.782 159.415 88.8553 159.149C87.6151 158.814 86.5383 157.63 85.5283 156.639C85.1496 156.245 85.1793 155.366 84.9193 154.8C84.0802 152.946 82.4241 152.276 80.7309 152.06C78.8224 151.8 77.5525 150.571 76.3049 149.246C75.5251 148.412 74.7973 148.308 73.8022 148.702C73.1661 148.95 72.4626 148.96 71.8194 148.732C69.9109 147.95 68.0914 147.019 66.2646 146.096C65.0929 145.453 63.9506 144.757 62.8411 144.011C61.9573 143.431 61.586 142.701 61.8459 141.398C62.0285 140.257 61.8246 139.088 61.2667 138.077C60.4572 136.632 59.1873 135.426 58.1996 134.079C57.91 133.714 57.9694 133.073 57.8506 132.44C56.4619 130.668 54.9618 128.755 54.3677 126.186C54.2192 125.397 53.6473 124.727 53.2686 123.967C53.0384 124.071 52.8082 124.138 52.578 124.243C52.7265 125.233 52.6374 126.342 53.0384 127.161C54.338 129.827 56.0015 132.269 56.2911 135.389C56.3505 135.754 56.9297 136.029 57.2194 136.424C57.6798 137.064 57.9694 137.712 56.9892 138.122C56.3208 137.347 55.7713 136.588 55.0806 135.903C54.5459 135.352 54.3677 134.845 54.338 134.004C54.3083 133.304 53.4988 132.612 52.979 132.001C52.5186 131.48 51.9542 131.07 51.1447 130.348C52.6671 130.028 52.8676 129.187 52.073 128.345C50.6546 126.834 50.2535 124.816 49.9936 122.917C49.6743 120.378 48.1148 119.581 46.2656 118.889C45.924 117.333 45.5156 115.784 45.1666 114.235C44.7019 112.096 44.2736 109.949 43.8818 107.795C43.8521 107.713 43.8001 107.601 43.8224 107.527C44.112 105.866 44.2606 104.191 44.6913 102.597C45.1666 100.944 46.0057 99.4031 46.4959 97.7427C46.8449 96.5663 46.9043 95.293 47.1865 94.0868C47.7657 91.6371 46.9563 89.7533 45.4562 87.9961C44.9809 87.4451 44.7804 86.6186 44.4611 85.9112C44.5799 85.7772 44.721 85.6655 44.8324 85.5315L46.8746 86.8345C45.8646 85.3751 45.0106 84.0944 46.1171 82.7616C45.5082 81.6299 44.6319 80.5874 44.4017 79.4259C44.2309 78.5845 44.9809 77.5719 45.2557 76.8124C44.8621 76.0604 44.5205 75.3902 44.2606 74.9286C44.0857 75.4261 43.9223 75.9276 43.7704 76.4326C43.4808 76.0603 43.31 75.7997 43.1318 75.5615C43.0426 75.7104 42.9313 75.9412 42.8124 76.1571L42.4857 76.1274C42.4857 75.5913 42.2555 74.7797 42.456 74.6456C43.6887 73.8191 42.5971 73.149 42.3966 72.4566C42.3074 72.1959 41.9064 72.0173 41.9064 71.7939C41.847 70.1409 41.8767 68.5177 41.8767 67.1402C41.1247 65.5319 40.3623 63.9285 39.5894 62.3302L39.8791 62.2557C39.3155 61.9149 38.756 61.5674 38.2007 61.2133C37.77 60.9527 37.3318 60.4836 36.9011 60.4538C36.0917 60.4017 35.6609 60.223 35.1782 59.3816C34.8589 58.8604 33.7895 58.8306 33.0395 58.5849C33.2697 58.1456 33.5296 57.7137 33.8786 57.066H31.5542C32.0146 57.7733 32.334 58.2796 32.683 58.786C30.8784 59.3221 29.111 59.8656 27.351 60.3645C26.9008 60.5098 26.4182 60.5201 25.9622 60.3943C27.4995 58.8828 27.351 55.5842 30.4997 55.6066C30.1804 55.4577 29.7199 55.1151 29.5491 55.2268C28.7397 55.7778 27.9896 56.5001 27.1801 57.1106C26.1405 57.8924 25.0562 58.6147 23.868 59.4337C24.6181 60.1858 24.3285 60.7219 23.4076 61.3175C21.0238 62.7769 18.6845 64.3033 16.3972 65.9414C15.2091 66.8298 13.8779 67.5073 12.4613 67.9444C10.4489 68.516 8.45295 69.1442 6.47574 69.8282C6.35692 69.6718 6.27523 69.5229 6.14155 69.3814C6.59456 69.0166 6.99557 68.5698 7.456 68.3092C8.43627 67.788 9.45367 67.3636 10.4339 66.9019C10.6939 66.7679 10.9241 66.4477 11.1543 66.4477C13.1222 66.4924 14.4367 64.8841 15.9813 63.9608C17.3106 63.1194 18.2983 61.5111 19.4197 60.2453C19.3306 60.0964 19.2489 59.9252 19.1598 59.7837L17.4815 59.8731C17.3404 58.2499 15.7883 59.2625 14.8377 58.9721C15.1793 57.6989 15.4986 56.5075 15.8477 55.2715C13.5901 55.2566 12.8549 53.894 13.85 51.8911C13.9688 51.69 14.0802 51.3699 13.9985 51.2135C13.345 49.8062 13.9985 48.9351 14.9788 48.0788C16.0036 47.1927 16.8428 46.0908 17.8231 45.1675C18.1127 44.9069 18.7216 44.8026 19.0113 44.9664C20.1401 45.6217 20.4891 45.4876 20.8084 44.2442C21.358 44.4303 22.1674 44.9664 22.3679 44.7654C22.9769 44.1325 23.3928 43.2315 23.8309 42.4199C24.0017 42.0923 24.0611 41.6679 24.2096 41.2286C24.2096 41.2286 24.0091 41.1467 23.9497 41.1988C22.5759 42.5316 21.1277 41.3701 19.7093 41.3999C19.2786 41.3999 18.4989 40.6478 18.4989 40.2085C18.4691 39.4267 18.9296 38.63 19.2192 37.6397C19.1301 37.4982 18.8108 37.0291 18.3206 36.2399C20.1401 35.6293 21.707 35.0187 23.3333 34.5571C23.7715 34.438 24.2616 34.6762 24.7221 34.7581L24.3433 36.1952C25.1231 36.7909 25.9177 37.6695 26.846 36.3292C26.5691 33.495 26.2696 30.6629 25.9474 27.8335C26.1479 27.6027 26.4672 27.0368 26.9277 26.6719C27.247 26.4113 27.8782 26.1954 28.1975 26.3667C29.4674 27.0368 30.4254 26.3965 31.4057 25.7189C32.2449 25.1083 33.0098 24.3265 33.9083 23.8053C34.4876 23.4702 35.2376 23.4851 35.8912 23.2543C36.411 23.083 36.8788 22.7331 37.369 22.5469C37.9342 22.3531 38.5159 22.211 39.1067 22.1225C39.738 22.0183 40.4954 22.197 41.045 21.9215C42.2629 21.3705 43.0798 21.7204 43.4585 23.1649C43.4882 23.3362 43.4585 23.6862 43.4585 23.6862C45.4413 23.7755 44.7284 25.7114 45.3819 26.8283C46.3325 26.4932 46.9414 26.873 47.6989 27.7665C48.6495 28.8387 50.157 29.3301 51.4269 30.097C51.7388 30.2683 52.1472 30.4023 52.2958 30.6778C52.6026 31.3525 53.0734 31.9392 53.665 32.3841C54.2567 32.829 54.9502 33.1179 55.6821 33.2243C55.0732 34.706 55.7416 35.5846 56.5213 36.2845L59.9077 34.6018C60.0562 35.0411 60.1676 35.3836 60.2567 35.7187C61.9351 35.2421 63.6282 34.7805 65.3437 34.3188C65.5442 35.7336 66.5022 36.0016 67.1409 34.9294C67.3711 34.4678 67.4602 33.8721 67.9503 33.4179V38.1758C68.7301 37.4387 69.3984 36.843 70.3193 35.9271C70.0594 37.0887 69.8589 37.9152 69.6287 38.898C69.9183 38.7864 70.2376 38.697 70.4975 38.5109C71.4481 37.7365 72.3912 37.9748 72.8814 39.1586C73.2089 39.9377 73.7087 40.632 74.3429 41.1892C74.9771 41.7464 75.7292 42.152 76.5425 42.3753C77.1515 42.5465 77.7604 43.4251 77.9312 44.1027C78.2208 45.1898 77.3223 45.0185 76.691 45.1005C76.4311 45.1302 76.1712 45.3759 75.7925 45.6217C77.4114 47.2151 79.0897 47.2449 80.9389 46.6045C81.1691 47.0364 81.3102 47.4906 81.6146 47.7363C81.9043 47.9969 82.4538 48.2575 82.684 48.1086C83.4341 47.6916 84.0876 47.0662 84.5777 46.6939C84.2287 46.4928 83.2039 46.2024 83.2039 45.9791C83.293 44.7728 84.3178 45.0111 85.0382 44.9813C85.6174 44.9664 86.2263 45.1004 86.8056 45.1526L86.7759 45.1153ZM93.3184 99.284C93.467 99.1425 93.5784 99.0085 93.7417 98.8819C93.1179 97.765 92.6575 96.5216 91.8777 95.5611C91.3876 94.9207 90.5039 94.8909 89.7241 95.5909C89.1449 96.1121 88.3651 96.3578 87.6745 96.7226C87.0358 97.0651 86.4046 97.4151 85.7659 97.7502C87.4443 99.835 88.6028 97.2438 89.8429 97.4449C90.1548 100.386 92.457 98.1597 93.3184 99.284ZM67.3711 49.1957C66.2126 50.0073 65.1729 50.7072 64.059 51.489C65.6036 52.8516 66.0938 50.1264 67.4305 50.9082C67.3711 51.2433 67.282 51.6305 67.1409 52.3155C68.0097 51.2582 68.5296 49.501 69.8886 51.139C70.3787 50.454 70.8169 49.8658 71.4258 48.9946C70.0668 49.6871 69.2276 49.4265 68.5964 48.2128C69.1757 47.9522 69.6955 47.7363 70.2153 47.5352C70.1559 47.431 70.1559 47.3342 70.0965 47.23L63.7768 48.2128C64.9947 48.7043 66.5245 47.8852 67.3711 49.1957ZM95.4201 105.568C95.8582 104.392 96.2592 103.268 96.6603 102.084L97.7593 103.186C97.9079 103.111 98.049 103.014 98.1678 102.94C97.9079 102.285 97.8188 101.265 97.3583 101.041C96.0884 100.386 94.6997 99.5595 93.1254 100.982C94.5289 101.555 94.8185 102.545 94.3284 103.469C94.722 104.258 95.0116 104.779 95.4201 105.568ZM88.5062 107.683L89.234 107.847C89.5459 107.043 89.984 106.253 90.1623 105.434C90.4222 103.908 90.4222 102.329 92.056 101.585C92.3456 101.436 92.4941 100.922 92.7763 100.49C91.2614 100.289 90.0435 100.594 89.5236 101.905C89.0038 103.171 88.8033 104.6 88.5434 105.993C88.4171 106.521 88.5062 107.102 88.5062 107.683ZM69.4504 62.2632C68.3216 62.8588 67.4008 63.3503 66.4428 63.8268C67.022 65.1447 68.2325 64.6235 69.1905 64.214C71.1288 63.3726 72.9631 62.2706 74.8568 61.2729C74.3369 61.0569 73.8022 60.9974 73.4829 61.258C71.9531 62.5014 70.5495 62.978 69.3093 60.7368C69.3613 61.2729 69.4207 61.809 69.4504 62.2632ZM93.6972 107.877C93.7417 108.078 93.7714 108.286 93.7937 108.487C95.5612 108.867 96.8014 107.445 98.3089 106.879C98.2792 106.745 98.2198 106.633 98.2198 106.514C96.7197 106.953 95.2121 107.437 93.6972 107.877ZM81.6072 88.0929C81.5775 87.3259 81.5033 86.6037 81.5033 85.874C81.5033 85.0922 81.6889 84.2508 80.4933 84.0498C80.2631 85.6134 80.0626 87.0653 81.6072 88.0929ZM98.5688 105.159C98.5985 105.293 98.6282 105.434 98.6876 105.568C102.059 105.635 102.059 105.635 102.089 104.377C100.878 104.638 99.7273 104.898 98.5688 105.159ZM49.1247 89.4406C49.0653 89.5001 48.9762 89.5746 48.9242 89.6416L49.0951 91.5552C49.0951 91.7264 49.0356 91.9051 49.0059 92.0764C49.2064 92.0764 49.5555 92.136 49.5852 92.0466C49.7337 91.6371 49.9342 91.1904 49.8451 90.8255C49.7263 90.3415 49.3772 89.9245 49.1247 89.4406ZM72.7031 69.2623L70.8391 70.6249L74.0027 70.0441C73.5772 69.771 73.1438 69.5102 72.7031 69.2623Z" fill="#C7C7C7"/>
<path fill-rule="evenodd" clip-rule="evenodd" d="M170.804 12.5543C171.175 12.7851 171.539 13.0457 172.118 13.4255C171.68 13.8722 171.294 14.2818 170.886 14.6689C171.769 14.5647 172.92 15.2795 173.24 13.5521C173.27 13.4031 174.079 13.3212 174.48 13.4031C174.651 13.4478 174.918 14.1552 174.799 14.3339C174.362 15.1187 173.86 15.8659 173.299 16.5676C173.099 16.7985 172.809 16.9325 172.571 17.1186C172.631 17.2675 172.72 17.3941 172.802 17.543C173.782 16.9325 174.77 16.307 175.78 15.7039C175.75 15.5699 175.69 15.4731 175.638 15.3242C175.98 15.4731 176.27 15.6444 176.619 15.7784C176.619 14.9519 177.718 14.2818 178.891 14.4605C179.314 14.5378 179.723 14.6731 180.109 14.8625C181.802 15.6741 181.973 16.9548 180.54 18.1387C179.76 18.8014 179.032 19.4715 178.156 20.2236C178.126 20.3725 178.126 20.8192 177.955 21.1245C177.235 22.1818 176.277 23.1274 175.757 24.2816C175.126 25.6441 174.829 27.1854 174.458 28.6448C174.257 29.516 174.198 30.4318 174.027 31.4891L173.396 31.5338C173.685 31.8093 173.856 32.0252 173.975 32.0104C175.074 31.9359 175.215 32.5762 174.985 33.5293C174.725 34.5568 174.495 35.5844 174.235 36.6715C173.975 35.5695 173.715 34.5568 173.455 33.5293H172.794C172.675 34.0505 172.534 34.5866 172.415 35.2419L171.896 35.1525C171.896 35.2419 171.896 35.3014 171.866 35.3684C172.297 35.5025 172.705 35.6439 173.455 35.9045C173.255 37.2374 172.995 38.5999 172.846 40.0221C172.817 40.3125 173.195 40.6922 173.537 41.2953C173.047 41.6751 172.408 42.2261 172.066 42.5165C171.918 43.2908 171.977 44.028 171.688 44.3184C171.235 44.7204 170.514 44.8396 170.254 44.9289C170.165 46.1501 170.084 47.118 169.995 48.0562L169.534 48.2274C168.881 47.4754 168.22 46.7532 167.47 45.8671C167.782 46.5223 167.93 47.2744 168.368 47.6243C170.202 49.0167 170.321 50.9303 170.032 53.0002C167.937 53.7076 167.358 52.144 166.72 50.6101C166.72 51.1313 166.838 51.6972 166.66 52.1514C166.519 52.546 166.029 52.7694 165.71 53.0524C166.838 53.2832 167.997 53.5438 169.163 53.7895C169.222 53.9235 169.282 54.0352 169.334 54.1692C167.759 55.2563 166.229 56.5296 164.521 57.3412C163.073 58.0709 161.269 58.0113 159.791 58.7038C158.647 59.1952 157.808 60.3568 156.798 61.1981C155.818 61.9799 154.8 62.7394 153.79 63.4915C153.563 63.6998 153.283 63.8415 152.981 63.901C152.691 63.9308 152.402 63.7297 152.142 63.6255L149.565 65.0179C149.075 66.3953 148.696 67.6388 148.154 68.8004C147.515 70.1629 146.735 71.4287 146.045 72.7467C145.376 74.0646 145.555 75.9186 143.928 76.626C143.869 76.5664 143.817 76.477 143.817 76.41C143.557 75.5389 142.369 76.1047 142.124 74.8836C141.894 73.3721 140.705 74.3922 139.77 74.3326C139.832 74.203 139.884 74.0685 139.926 73.9306C139.421 72.9924 138.99 72.3372 138.693 71.6075C138.314 70.5948 138.054 69.5077 137.765 68.4504C137.643 67.9224 137.537 67.391 137.445 66.857C137.297 65.7103 137.274 64.5339 137.007 63.4393C136.287 60.7142 136.576 58.2198 138.225 55.9935C138.284 55.9116 138.515 55.8818 138.515 55.852C138.344 53.9086 139.354 54.9213 140.037 55.1372C141.255 52.4865 141.255 52.4865 139.584 51.0941C139.614 51.2951 139.614 51.4366 139.673 51.5557C139.948 52.077 140.928 52.6056 139.918 53.1938C139.153 53.6331 138.195 53.9757 137.705 52.6577C137.616 52.3971 137.475 52.1067 137.445 51.8163C137.356 50.9452 138.195 50.3644 138.166 49.4411C138.166 49.3518 139.124 49.2103 139.673 49.1507C140.007 49.1209 140.349 49.1805 140.698 49.2103C140.549 48.9348 140.349 48.6593 140.267 48.3838C140.178 48.0562 140.208 47.6764 140.148 47.2967C138.225 47.937 137.935 47.602 138.396 45.4725C138.626 44.512 138.106 43.0973 139.525 42.859C139.324 41.0347 139.153 39.1435 138.975 37.2895L138.626 37.3341C138.69 37.2685 138.748 37.1961 138.797 37.1182C139.176 36.5002 138.767 33.2464 138.247 32.7996C137.876 32.5092 137.586 32.0774 137.178 31.8838C136.458 31.5487 135.938 30.5956 134.861 31.1988C134.4 31.4594 133.621 30.9233 132.982 30.8488C132.663 30.8488 132.306 31.1094 131.608 31.37C131.229 30.819 130.68 30.067 130.219 29.2554C130.153 29.1958 130.68 28.764 130.947 28.4885C130.687 28.2428 130.219 27.9524 129.982 27.5428C129.811 27.2673 129.692 26.6717 129.863 26.4557C129.99 26.2946 130.15 26.1623 130.332 26.0673C130.513 25.9724 130.713 25.917 130.918 25.9048C132.017 25.8303 133.101 25.8601 134.23 25.5697C133.999 25.5101 133.821 25.4208 133.591 25.3984C132.9 25.324 131.987 25.5474 131.608 25.1527C130.874 24.3315 130.336 23.3538 130.034 22.2935C129.915 21.8542 130.598 20.8267 131.088 20.6405C132.559 20.1044 134.111 19.8289 135.67 19.5236C136.16 19.4194 136.71 19.5981 137.52 19.68C138.01 18.9875 138.678 18.0568 139.428 16.9846C138.797 16.6644 138.21 16.374 137.698 16.0837C138.388 13.3883 141.441 11.4449 143.394 12.7181C143.713 11.8767 144.084 11.1247 144.322 10.2982C144.641 9.159 145.302 8.95052 145.859 9.5313C146.32 9.20368 146.639 8.77927 147.047 8.66014C148.057 8.38464 149.097 8.20593 150.152 8.03468C150.671 7.96767 151.102 7.58793 151.54 8.60057C152.157 10.0674 152.506 10.4993 152.305 11.5715H153.493L153.872 7.9081C156.011 9.01009 155.81 11.6459 157.4 12.9489C157.08 11.1694 156.85 9.55364 156.56 7.86343H158.669C158.699 7.7294 158.699 7.58793 158.729 7.46879C158.417 7.33477 158.068 7.20819 157.719 7.07417C157.933 6.66936 158.234 6.31697 158.6 6.04217C158.965 5.76737 159.387 5.57693 159.835 5.48447C160.282 5.392 160.745 5.39979 161.189 5.50726C161.633 5.61474 162.049 5.81925 162.405 6.1062C162.375 5.68923 162.316 5.30949 162.256 4.64681L162.954 5.35417C163.823 4.81807 164.544 4.13305 165.323 3.96179C167.202 3.52249 171.443 5.20526 172.586 6.9178C171.502 6.97737 170.663 6.99971 169.801 7.05928C169.796 7.12046 169.776 7.17937 169.742 7.23053L172.126 7.40178C172.438 7.43156 173.054 7.43157 173.054 7.47624C173.203 8.88351 174.413 8.98775 175.193 9.59087C176.411 10.5886 176.463 11.3183 175.022 11.8693C173.693 12.3607 172.215 12.3607 170.789 12.5767C168.725 11.3481 167.217 13.0011 165.219 13.5521C167.262 13.1872 169.022 12.867 170.804 12.5618" fill="#C7C7C7"/>
<path fill-rule="evenodd" clip-rule="evenodd" d="M350.52 191.776C351.329 190.436 351.73 189.356 352.458 188.657C353.156 188.001 354.173 187.748 355.131 187.279C354.96 187.063 354.723 186.803 354.292 186.319C356.676 186.87 358.763 187.368 361.013 187.912C360.575 188.597 360.151 189.252 359.713 189.908C359.914 190.034 360.293 190.265 360.694 190.54C360.033 190.816 359.453 191.047 358.904 191.285C358.874 191.486 358.874 191.694 358.844 191.896C360.033 192.819 361.243 193.72 362.431 194.643C362.632 194.814 362.914 194.904 363.092 195.105C364.414 196.445 365.105 196.296 365.565 194.382C366.026 192.521 366.308 190.578 366.709 188.694C366.909 187.741 367.169 186.795 367.459 185.648C368.706 186.49 368.677 187.912 368.996 189.118C369.226 189.907 368.877 190.972 370.207 190.928C370.467 190.928 370.845 191.568 370.934 191.977C371.283 193.831 371.454 195.76 371.922 197.599C372.063 198.254 372.902 198.686 373.333 199.282C373.868 199.922 374.328 200.607 374.759 201.292C375.219 202.081 374.989 203.362 376.281 203.63C376.511 203.69 376.452 204.71 376.712 205.172C377.262 206.199 377.9 207.145 378.509 208.142C378.693 207.942 378.895 207.757 379.111 207.591C379.17 207.74 379.259 207.807 379.259 207.867C379.111 209.736 378.97 211.605 378.739 213.459C378.65 214.233 378.309 214.97 378.049 215.707C377.529 217.234 377.091 218.842 376.37 220.227C375.256 222.282 373.838 224.129 372.665 226.146C371.967 227.375 371.573 228.827 370.934 230.13C370.704 230.651 370.177 231.493 369.858 231.433C367.919 231.202 366.828 232.684 365.387 233.808C364.904 233.086 364.436 232.364 363.976 231.694C363.152 232.535 362.231 233.429 360.924 231.954C360.352 231.284 359.335 231.009 358.785 230.301C358.406 229.847 358.525 228.931 358.436 228.246C358.353 227.533 358.288 226.818 358.243 226.102L355.161 226.705C355.621 225.231 358.243 226.616 357.604 224.158C357.084 224.531 356.475 224.933 355.889 225.342C355.807 225.263 355.739 225.169 355.688 225.067C356.319 223.853 357.003 222.617 357.641 221.433L357.471 221.329L354.218 224.158C354.307 224.248 353.988 224.039 353.913 223.749C353.631 222.558 353.431 221.344 353.141 220.123C353.111 219.922 352.911 219.691 352.703 219.609C350.534 218.589 348.425 217.427 345.982 218.835C345.433 219.14 344.683 219.021 344.088 219.244C342.93 219.698 341.66 220.019 340.732 220.823C339.982 221.463 339.373 222.007 338.415 221.768C336.521 221.262 334.872 222.036 333.35 223.056C331.82 224.136 330.231 223.176 329.422 221.843C329.251 221.582 329.362 220.852 329.592 220.622C330.691 219.549 330.751 218.217 330.55 216.794C330.32 214.806 330.142 212.818 329.823 210.86C329.652 209.862 329.184 208.917 328.723 207.629L330.35 208.15C328.954 206.318 330.38 204.464 330.55 202.551C330.58 202.26 331.152 202.014 331.501 201.769C333.818 200.019 336.551 199.624 339.165 198.716C340.093 198.411 340.843 197.19 341.504 196.266C341.942 195.626 342.083 194.74 342.455 193.638C342.974 194.338 343.212 194.636 343.613 195.142C343.562 194.666 343.523 194.19 343.494 193.712H344.556C344.675 192.208 346.71 190.146 348.069 190.146C348.329 190.146 348.589 190.302 348.826 190.466C349.48 190.95 350.089 191.456 350.52 191.776Z" fill="#C7C7C7"/>
<path fill-rule="evenodd" clip-rule="evenodd" d="M125.949 13.1501V11.311L128.578 11.5865C126.87 10.8344 125.192 10.1122 123.573 9.32293C122.37 8.77194 122.169 7.69973 122.548 6.45627C122.749 5.72658 123.053 5.03411 123.261 4.43099C123.061 4.38632 122.756 4.31186 122.466 4.25974C122.556 3.96935 122.615 3.50026 122.815 3.40347C123.462 3.09819 124.189 2.89715 124.88 2.68867C125.259 2.56953 125.637 2.53975 126.18 2.45784L127.449 3.20243C127.888 2.45784 128.14 1.48988 128.69 1.21439C129.989 0.581488 129.559 2.66632 130.465 2.86736C130.925 2.1749 131.274 1.38564 131.824 0.842091C132.574 0.0602758 133.257 0.149627 133.398 1.21439C133.598 0.842093 134.007 0.000706237 134.118 0.0453814C134.809 0.320878 135.448 0.782521 136.086 1.1846C136.116 1.11758 136.146 0.663391 136.205 0.000709475C138.002 -0.029074 139.614 0.886765 141.314 1.25906C142.948 1.62391 144.337 3.12797 145.696 4.02892C145.985 4.75117 146.245 5.4213 146.535 6.11376C146.943 7.1264 146.594 7.97523 145.755 8.37731C144.337 9.06232 142.889 9.56864 141.552 10.1196C141.522 10.1196 141.782 10.2686 142.161 10.4324C141.7 11.7056 140.572 12.0556 139.599 12.4353C137.52 13.2171 135.752 14.4233 134.252 16.1285C134.015 16.4056 133.685 16.5858 133.324 16.6348C132.121 16.7911 130.94 16.8656 129.796 16.9549C130.116 17.4017 130.442 17.8857 130.762 18.3771C130.643 18.4888 130.561 18.6079 130.442 18.7196C130.116 18.6005 129.766 18.5037 129.239 18.3473L129.937 19.3153C129.529 19.8961 129.158 20.3726 128.808 20.8938C128.14 21.8245 127.509 22.7255 126.232 22.4425C126.113 22.4128 125.912 22.3979 125.823 22.4872L123.105 25.2422C124.145 25.9123 124.204 26.7239 123.105 27.3047C122.221 27.811 121.182 27.9674 119.919 28.3769C120.12 27.7663 120.209 27.5057 120.484 26.8133C119.08 27.6398 118.1 25.7113 116.823 26.9026C116.622 27.059 115.842 26.4931 115.345 26.225C114.565 25.8304 113.815 25.3985 112.991 24.989C113.384 26.2101 112.649 26.0017 111.951 25.8304C112.241 27.61 113.406 28.5556 115.033 28.4811C116.191 28.4365 117.461 28.3248 118.56 28.6673C119.191 28.8981 119.89 29.8884 120.06 30.6702C120.261 31.7126 118.902 33.2614 117.981 33.2316C116.941 33.1869 115.961 32.9263 114.914 32.7253C113.986 32.554 112.991 32.4498 112.062 32.1445C111.082 31.8006 110.146 31.338 109.277 30.767C108.178 30.1118 108.149 28.8088 108.988 27.4759C109.448 26.7165 109.768 25.8527 110.206 24.922C109.277 24.4827 108.646 24.1923 108.067 23.9392C107.978 23.3286 107.918 22.7478 107.777 22.1968C107.406 21.0651 108.156 20.7151 108.787 20.8938C109.456 21.0427 110.436 21.6756 110.495 22.1819C110.614 23.5147 111.409 23.2392 112.129 23.3882C112.606 23.513 113.103 23.5364 113.589 23.4569C114.075 23.3774 114.539 23.1967 114.951 22.9265C115.441 22.6064 116.169 22.7255 116.83 22.6659C117.06 21.8841 115.931 20.5066 117.379 20.1716C117.84 20.0524 118.508 20.9683 118.998 21.3629C119.028 20.998 119.726 20.0747 118.308 19.8216C118.278 19.8216 118.189 19.7918 118.189 19.762C117.699 18.3026 116.429 18.876 115.471 18.5409C114.632 18.2282 114.112 17.558 114.171 16.4858C114.283 15.153 114.402 13.8351 116.488 14.0064C115.53 13.3288 114.26 13.299 114.751 11.9066C115.07 11.0355 115.441 10.2015 115.79 9.25592C116.251 9.50163 116.719 9.70267 117.12 9.90371C116.77 9.28904 116.414 8.67843 116.05 8.07202C117.409 7.0296 118.568 6.15844 119.667 5.30216C119.539 4.98078 119.403 4.66297 119.258 4.34909C119.778 4.42355 120.543 4.30441 120.721 4.60969C121.036 5.24594 121.164 5.95834 121.093 6.66475C121.011 7.72207 120.781 8.76449 122.021 9.21869C123.135 9.63566 122.452 10.477 122.333 11.1025C122.244 11.6684 121.932 12.1896 121.702 12.7853C121.991 13.3511 121.902 14.0734 121.353 16.4263C121.471 16.4542 121.587 16.489 121.702 16.5305C121.932 15.503 122.452 14.4308 122.392 13.4256C122.273 12.1672 122.511 11.0057 123.476 10.7004C123.967 10.5292 124.865 11.6163 125.534 12.1821C125.719 12.3087 125.719 12.5917 125.949 13.1501Z" fill="#C7C7C7"/>
<path fill-rule="evenodd" clip-rule="evenodd" d="M86.7982 45.1894C86.6793 44.9288 86.5977 44.6682 86.4491 44.4374C86.3309 44.2096 86.2046 43.986 86.0704 43.7673C83.7163 44.9586 81.2953 45.4202 78.4956 44.7799C78.5847 43.9981 78.6664 43.1567 78.7555 42.2036C78.4362 42.0845 77.7753 42.0845 77.5376 41.7271C77.0346 41.0651 76.7236 40.2766 76.639 39.4487C76.5574 38.4509 77.3371 38.1158 78.1986 38.2722C79.1788 38.4732 80.1368 38.7785 81.1171 39.0391C81.5924 39.1732 82.0305 39.3295 82.7212 39.5752C82.0899 38.1978 81.3473 37.5053 80.1071 37.5053C79.4174 37.5052 78.7359 37.3553 78.1094 37.066C77.7381 36.8947 77.3594 36.2842 77.3891 35.8746C77.3891 35.4949 77.8495 34.9737 78.1986 34.8322C78.7184 34.6014 79.2976 34.6833 80.1665 34.6014C79.5873 34.4525 79.1862 34.4525 78.9486 34.2887C78.5773 34.0281 78.1094 33.6632 78.0203 33.2537C77.9312 32.9261 78.1911 32.2857 78.4808 32.0698C79.6987 31.1391 80.9686 30.3424 82.2533 29.4712C82.417 29.3801 82.5712 29.2728 82.7137 29.151C83.293 29.0319 83.9019 28.9351 84.5257 28.8309C86.2858 28.7564 84.9565 29.8733 84.9862 30.0743C85.7362 30.4838 86.3452 30.6849 86.7833 31.1018C87.0135 31.3476 87.0135 31.9283 87.214 32.6655C87.1249 32.6357 87.4146 32.7399 87.823 32.8516L88.1646 31.3401C88.9444 31.6305 89.3231 32.457 89.0929 33.5143C88.8924 34.4153 88.5433 35.2566 88.2537 36.1427C88.4022 36.2023 88.5136 36.2767 88.6622 36.3288C89.3825 34.4153 90.1103 32.5017 90.8603 30.4392L92.4644 31.2508C92.5164 30.8412 92.5461 29.9328 92.806 29.8584C93.4382 29.6643 94.1179 29.6959 94.7294 29.9477C94.9002 30.0371 94.9299 31.4592 94.67 31.6454C92.6872 33.008 92.457 35.2864 91.5287 37.2968C90.5336 39.4114 91.9074 40.3422 92.3382 41.7048C92.5387 42.4121 93.4075 43.0227 92.6501 43.7077C92.3085 44.0427 91.4916 43.7821 90.9346 43.7821C90.7861 44.3927 90.5856 45.7851 90.4445 45.7553C89.2043 45.6957 87.9864 45.3756 86.7462 45.115L86.7982 45.1894Z" fill="#C7C7C7"/>
<path fill-rule="evenodd" clip-rule="evenodd" d="M356.357 176.669C355.904 175.894 355.569 175.254 355.191 174.554C355.829 174.405 356.475 174.249 357.114 174.115C357.055 174.174 357.025 174.271 356.995 174.345C355.77 173.713 354.552 173.087 353.327 172.432C353.386 172.283 353.416 172.127 353.446 171.978C354.73 171.844 355.829 170.518 357.203 171.516C357.599 171.795 357.911 172.179 358.102 172.625C358.414 173.497 358.614 174.42 358.963 175.686C359.543 175.001 359.721 174.74 359.921 174.509C361.31 172.745 362.03 172.536 364.043 173.325C366.137 174.129 368.194 174.978 370.303 175.73C372.123 176.393 372.702 178.768 374.685 179.178C374.566 179.654 374.425 180.138 374.224 180.875C375.442 182.26 376.846 183.824 378.205 185.38C378.116 185.44 378.004 185.529 377.915 185.581C376.868 185.38 375.761 185.335 374.833 184.874C374.061 184.494 373.534 183.578 372.821 182.945C372.33 182.484 371.811 181.843 371.202 181.694C370.764 181.56 369.954 181.896 369.694 182.335C368.833 183.653 366.753 184.36 365.721 183.199C364.83 182.201 364.021 182.074 362.899 182.379C362.676 182.454 362.387 182.35 361.83 182.305C362.379 181.56 362.788 181.024 363.189 180.436C362.899 178.649 361.83 177.666 360.129 177.227C359.112 176.981 358.191 176.356 357.203 175.894C356.966 176.118 356.706 176.378 356.357 176.669Z" fill="#C7C7C7"/>
<path fill-rule="evenodd" clip-rule="evenodd" d="M335.444 176.192C334.182 176.691 333.164 176.229 332.191 175.626C332.021 175.507 331.672 175.336 331.583 175.395C330.461 176.289 329.533 175.016 328.523 175.045C328.352 175.045 328.062 174.844 328.003 174.651C327.454 173.221 326.859 171.777 326.421 170.287C326.05 168.955 326.911 168.083 328.144 168.374C328.464 168.448 328.894 168.493 329.065 168.314C330.283 167.041 331.434 165.716 332.6 164.405C332.659 164.346 332.689 164.219 332.771 164.174C334.271 163.504 335.155 162.119 336.075 160.779C336.194 160.608 336.306 160.518 336.246 160.578C337.219 161.628 338.11 162.603 338.949 163.564C336.707 165.448 336.647 166.498 338.66 169.483C336.989 170.273 335.548 173.236 335.444 176.192Z" fill="#C7C7C7"/>
<path fill-rule="evenodd" clip-rule="evenodd" d="M251.914 186.363C252.263 188.217 252.671 189.728 252.782 191.262C252.842 191.858 252.233 192.476 252.003 193.146C250.881 196.601 249.805 200.108 248.579 203.533C247.822 205.737 245.208 206.31 243.938 204.672C243.299 203.816 243.128 200.309 243.767 199.408C244.599 198.165 245.267 197.033 244.569 195.32C244.057 194.047 244.977 192.446 246.195 192.059C247.889 191.523 249.329 190.927 249.983 188.85C250.206 188.046 251.052 187.443 251.914 186.363Z" fill="#C7C7C7"/>
<path fill-rule="evenodd" clip-rule="evenodd" d="M245.289 49.0165C245.408 50.0589 244.94 50.3195 244.168 50.2078C242.95 50.0365 241.561 50.379 240.982 48.6144C240.893 48.324 240.143 48.3687 239.742 48.1229C239.233 47.8428 238.807 47.4315 238.509 46.9316C238.39 46.6561 238.829 46.0753 239.029 45.6584C239.156 45.4178 239.253 45.1628 239.319 44.8989C238.19 44.1171 239.148 43.2459 239.2 42.4045C239.253 41.8732 239.233 41.3369 239.14 40.8111C240.017 38.2572 240.046 37.7657 239.46 36.418C240.046 35.532 240.626 34.7949 241.004 33.9684C241.762 32.442 242.594 31.2432 244.302 30.9081C244.823 30.8374 245.311 30.6116 245.703 30.2599C246.095 29.9081 246.372 29.4466 246.5 28.935C246.671 28.3691 247.584 27.8181 248.193 27.7287C248.542 27.6692 249.092 28.5105 249.418 29.0615C249.938 29.8434 249.537 30.4837 248.861 30.9156C246.7 32.3079 245.341 34.3258 244.19 36.6861C243.113 38.8082 241.992 43.0672 242.363 45.152C242.69 47.0359 243.76 48.1527 245.289 49.0165Z" fill="#C7C7C7"/>
<path fill-rule="evenodd" clip-rule="evenodd" d="M358.54 115.68C358.109 117.027 356.891 116.536 355.866 117.027C355.644 117.549 355.235 118.338 354.775 119.269C354.285 118.859 353.965 118.569 353.691 118.368C353.022 118.919 352.272 119.522 351.292 120.371C351.121 120.036 350.534 119.41 350.653 119.068C350.824 118.546 351.485 118.196 351.864 117.847C350.274 117.817 350.185 118.137 350.423 119.991C350.572 121.212 350.222 122.485 350.074 123.721C349.925 123.796 349.784 123.87 349.614 123.915C349.265 123.558 348.863 123.193 348.574 122.746C348.222 122.132 347.94 121.48 347.735 120.803C347.616 120.423 347.534 119.842 347.675 119.581C348.514 118.249 349.294 116.774 350.423 115.814C351.292 115.054 352.621 115.017 353.891 114.615L354.545 111.376C354.663 111.376 354.745 111.376 354.864 111.406L355.154 112.463C356.275 112.046 356.988 111.54 355.762 110.066C356.305 110.14 356.579 110.2 357.277 110.274C357.107 108.569 356.899 107.028 356.758 105.479C356.675 104.998 356.716 104.503 356.876 104.042C357.025 103.692 357.456 103.461 357.745 103.193C357.976 103.461 358.206 103.722 358.377 104.012C359.275 105.434 360.426 106.871 359.914 108.651C359.535 109.932 359.743 111.071 359.795 112.262C359.825 112.88 360.114 113.52 360.085 114.131C360.049 114.725 359.893 115.305 359.624 115.836C359.587 115.955 358.948 115.739 358.54 115.68Z" fill="#C7C7C7"/>
<path fill-rule="evenodd" clip-rule="evenodd" d="M322.894 178.694C322.285 178.888 321.631 178.89 321.021 178.701C320.41 178.512 319.872 178.141 319.478 177.636C317.978 175.983 316.522 174.442 315.505 172.208C314.339 169.543 312.861 166.892 310.514 165.045C309.897 164.47 309.465 163.724 309.274 162.901C310.633 163.407 312.2 162.812 313.232 164.472C313.93 165.596 315.267 166.281 316.314 167.16C317.406 168.091 318.587 168.962 319.619 169.989C320.027 170.369 320.139 171.091 320.228 171.695C320.718 172.335 321.186 172.99 321.646 173.645L322.716 172.789C323.154 173.549 323.495 174.122 323.904 174.792C322.166 175.723 322.975 177.361 322.827 178.731L322.894 178.694Z" fill="#C7C7C7"/>
<path fill-rule="evenodd" clip-rule="evenodd" d="M184.134 87.2963C184.045 86.9613 183.963 86.6336 183.934 86.589C183.845 85.2562 183.785 84.1691 183.733 83.0224C184.862 82.7916 184.951 79.9324 187.12 81.0939C186.919 81.5481 186.748 81.9949 186.511 82.531L188.241 82.732C188.3 82.9033 188.36 82.9628 188.33 83.0075C187.112 85.5168 188.53 87.14 189.993 88.7632C190.194 89.0089 190.313 89.3588 190.454 89.6641C190.625 90.029 190.684 90.5651 190.974 90.7065C192.348 91.4586 193.328 92.2999 191.969 94.0125C192.229 94.1316 192.489 94.2433 192.778 94.4071C191.39 96.075 189.786 95.725 188.382 96.1048L184.483 97.1025C185.033 96.1643 185.642 95.1443 186.214 94.1465C186.362 94.3029 186.503 94.4369 186.674 94.5858C186.503 94.5114 186.355 94.3997 186.184 94.3401C185.404 94.0497 183.666 94.1093 185.753 92.8286C185.864 92.769 185.894 92.3223 185.835 92.0766C185.776 91.7834 185.689 91.4967 185.575 91.2203C186.236 90.714 187.075 90.2449 187.023 90.1034C186.822 89.3886 186.852 88.3611 185.753 88.2866C185.404 88.2569 185.085 87.7505 184.944 87.1697C184.654 87.1995 184.364 87.2293 184.104 87.2442L184.134 87.2963Z" fill="#C7C7C7"/>
<path fill-rule="evenodd" clip-rule="evenodd" d="M204.72 23.5002C205.269 24.3267 205.299 25.4435 206.688 25.7041C207.415 25.8531 207.906 27.3273 208.552 28.1687C208.901 28.6155 209.279 29.0101 209.651 29.442C209.562 29.5462 209.502 29.643 209.421 29.7621C209.829 29.8143 210.2 29.9036 210.876 30.0227C210.312 30.9609 209.881 31.7651 209.161 32.9564C209.072 30.9237 208.21 32.1448 207.846 32.0703C207.534 30.462 207.215 28.9505 206.896 27.3571C205.596 28.1092 206.116 29.576 205.797 30.6631C205.418 32.0257 205.277 33.4553 204.957 34.8402C204.898 34.9966 204.148 35.1902 203.999 35.0412C203.288 34.3261 202.658 33.5346 202.121 32.6809C201.89 32.3161 201.95 31.6981 201.89 31.1843L202.299 31.0949C202.009 30.9758 201.608 30.9609 201.489 30.7524C200.791 29.6802 200.205 28.5187 199.596 27.4018C199.254 26.7168 198.816 26.0392 198.667 25.2946C198.578 24.7287 198.697 23.8203 199.076 23.53C199.566 23.1204 200.375 23.0087 201.029 23.0906C201.549 23.1651 202.009 23.7161 202.477 24.0214C202.536 23.5151 202.566 22.897 202.648 22.0184L204.497 23.0906C204.549 23.2247 204.668 23.3512 204.72 23.5002Z" fill="#C7C7C7"/>
<path fill-rule="evenodd" clip-rule="evenodd" d="M84.548 28.8312C83.9242 28.9354 83.3152 29.0322 82.736 29.1514C80.3627 29.6712 78.2241 30.9551 76.6465 32.8073C76.0152 33.5295 74.5077 33.3583 73.4235 33.5891C73.2527 32.3456 73.1116 31.2288 72.9036 29.9332C74.2329 28.6004 75.7479 27.0665 77.2554 25.5103C77.4559 25.2944 77.6342 24.9742 77.805 24.6987C78.0352 24.1924 78.3545 23.1872 78.4956 23.217C79.6244 23.433 80.8646 22.331 81.8968 23.6563C82.2125 24.072 82.6329 24.3958 83.1147 24.5945C84.949 25.2944 85.4986 26.9176 84.548 28.8312Z" fill="#C7C7C7"/>
<path fill-rule="evenodd" clip-rule="evenodd" d="M92.8877 22.182C93.4372 22.2713 93.9422 22.383 94.3209 22.4575C94.6403 21.281 94.8111 20.0822 95.3012 19.1068C95.5908 18.5558 96.4003 18.2952 97.2692 17.7145L96.9573 20.179C96.9003 20.6796 96.8508 21.181 96.8087 21.6831C97.5291 21.7724 97.9969 21.8171 98.4574 21.8841C98.346 22.45 98.4277 23.1871 98.1158 23.5967C96.987 25.1082 95.7468 26.3516 93.6749 25.1082C93.2144 24.8178 92.3159 25.3986 91.5881 25.4954C90.6227 25.5996 89.635 25.7113 88.6547 25.6294C88.3948 25.6294 88.0755 24.922 88.0161 24.4827C88.0161 24.3264 88.5953 23.9317 88.9146 23.8722C89.5572 23.7292 90.2261 23.76 90.8529 23.9615C89.5236 23.4999 88.1646 23.1797 86.9244 22.5543C86.0555 22.0926 86.3451 21.4225 87.0952 20.8417C87.7338 20.3503 88.1646 19.5685 88.7735 19.0622C89.4642 18.4665 90.333 17.5507 91.0311 17.6549C91.7366 17.7145 92.4941 18.7867 92.8357 19.5983C93.1476 20.3279 92.8877 21.3108 92.8877 22.182Z" fill="#C7C7C7"/>
<path fill-rule="evenodd" clip-rule="evenodd" d="M397.973 241.611C397.713 244.076 395.092 245.014 394.609 247.598C392.448 247.188 392.018 249.452 390.889 250.762C390.161 251.589 389.478 252.415 388.691 253.137C388.022 253.748 387.332 253.77 386.752 252.936C386.681 252.809 386.582 252.7 386.463 252.616C384.977 251.283 384.888 251.008 386.403 249.586C388.134 247.977 390.109 246.689 391.958 245.222C392.418 244.813 392.834 244.299 393.243 243.778C394.171 242.557 395.033 241.343 396.035 240.04C396.384 240.539 396.614 240.904 396.837 241.298C397.038 241.142 397.246 240.963 397.535 240.718C397.684 241.053 397.795 241.358 397.944 241.663L397.973 241.611Z" fill="#C7C7C7"/>
<path fill-rule="evenodd" clip-rule="evenodd" d="M176.7 65.7851C176.53 66.2616 176.47 67.1179 176.069 67.4827C174.25 68.9942 172.364 70.5132 169.891 70.2079C169.016 70.062 168.177 69.7512 167.418 69.2921C167.247 69.2176 167.447 68.4358 167.477 67.9592C167.618 67.8848 167.767 67.8029 167.937 67.7433L165.918 66.5669L167.885 65.7404C167.856 65.6213 167.826 65.5096 167.826 65.3904C167.195 65.3606 166.556 65.3011 165.918 65.2713L165.747 64.7501C166.504 64.1395 167.254 63.1567 168.064 63.0673C168.524 63.0226 169.178 64.3703 169.816 65.1968C169.898 64.6607 169.987 64.2289 170.017 64.0129C170.507 63.9385 170.856 63.864 171.205 63.8268C172.46 63.7077 173.737 63.7077 174.948 63.4024C175.846 63.1567 175.787 63.8417 176.017 64.2884C176.24 64.698 176.411 65.1298 176.7 65.7851Z" fill="#C7C7C7"/>
<path fill-rule="evenodd" clip-rule="evenodd" d="M397.973 241.686C399.622 240.405 399.733 239.936 398.553 238.462C397.973 237.71 398.144 237.234 398.842 236.809C399.882 236.199 400.691 234.024 400.461 232.781C400.082 230.838 399.822 228.864 399.414 226.556C401.493 228.284 402.021 230.123 401.389 232.52L402.11 231.679C402.281 232.49 402.399 233.131 402.548 233.764C402.793 234.665 403.172 235.216 404.122 234.605C404.352 234.456 404.672 234.531 404.961 234.516C404.961 234.776 405.065 235.097 404.932 235.312C404.494 236.37 404.263 237.643 402.852 237.807C402.682 237.837 402.377 238.194 402.347 238.425C401.998 240.599 400.209 241.426 398.998 243.093C398.661 242.612 398.332 242.126 398.01 241.634L397.973 241.686Z" fill="#C7C7C7"/>
<path fill-rule="evenodd" clip-rule="evenodd" d="M97.7296 34.4307C97.6702 33.6787 97.6405 32.9564 97.5811 32.1001C98.8213 30.6407 98.8213 30.6407 102.022 30.5514C102.341 32.1746 101.992 33.418 100.329 34.0882H101.443C101.413 37.2154 99.6605 38.8759 96.9722 39.9183C96.8236 39.479 96.6825 38.928 96.482 38.4365C96.1627 37.5952 95.6429 36.7836 95.4721 35.9124C95.3235 35.1008 95.2418 33.8722 95.6726 33.4329C96.7419 32.3161 96.831 33.9541 97.3212 34.4902C97.4541 34.4522 97.5914 34.4322 97.7296 34.4307Z" fill="#C7C7C7"/>
<path fill-rule="evenodd" clip-rule="evenodd" d="M309.311 10.2911L311.569 11.5494C311.717 10.9389 311.799 10.4475 311.918 9.92624C313.277 10.0975 314.547 10.4772 315.802 10.4177C317.22 10.3283 317.309 11.609 317.28 12.2791C317.22 13.061 316.47 14.364 315.973 14.4235C314.866 14.4831 314.658 15.4064 314.019 15.8755C313.581 16.1808 313.061 16.6275 312.608 16.5828C310.098 16.3669 308.353 13.1801 309.311 10.2911Z" fill="#C7C7C7"/>
<path fill-rule="evenodd" clip-rule="evenodd" d="M126.841 92.7164C127.375 92.5183 127.905 92.3073 128.43 92.0835C128.519 92.2175 128.578 92.3143 128.66 92.4111C128.222 93.0812 127.791 93.7141 127.301 94.4736C128.081 94.5928 127.591 97.2584 129.67 95.2405C129.841 96.1266 129.989 96.7818 130.13 97.519H130.517C130.546 97.6679 130.576 97.7498 130.546 97.8391C130.427 98.1742 129.692 98.2412 130.427 98.8965C131.125 99.507 130.836 100.639 130.182 101.071C129.833 101.309 129.024 100.706 128.385 100.46C128.445 100.304 128.445 100.155 128.504 99.9985C128.014 100.304 127.553 100.564 127.056 100.87C126.996 100.795 126.937 100.713 126.855 100.654C126.945 100.393 127.056 100.132 127.294 99.6187L122.771 99.1124C124.264 96.8042 125.563 94.7342 126.893 92.6717L126.841 92.7164Z" fill="#C7C7C7"/>
<path fill-rule="evenodd" clip-rule="evenodd" d="M344.207 176.52C344.133 177.071 344.074 177.607 344.022 178.15C343.962 178.269 343.851 178.381 343.673 178.59C342.933 178.258 342.286 177.748 341.791 177.105C341.296 176.462 340.968 175.705 340.836 174.904C340.717 176.065 340.635 177.249 340.516 178.515C340.167 178.56 339.766 178.59 339.395 178.619C339.276 178.418 339.194 178.299 339.165 178.158C339.076 177.212 339.744 176.17 338.526 175.343C338.296 175.194 338.645 173.549 339.046 172.745C339.655 171.546 339.395 169.714 341.044 169.208C341.244 169.133 341.482 168.903 341.653 168.932C343.331 169.468 345.017 169.856 346.584 168.322C346.524 169.826 345.566 170.667 344.415 170.57C343.531 170.481 342.663 170.384 341.794 170.414C341.356 170.429 340.546 170.645 340.516 170.876C340.427 171.397 340.717 172 340.776 172.35C342.187 171.97 343.353 171.68 344.497 171.367L344.66 171.851L342.276 173.698C342.856 174.725 343.405 175.686 343.962 176.639C344.047 176.607 344.129 176.567 344.207 176.52Z" fill="#C7C7C7"/>
<path fill-rule="evenodd" clip-rule="evenodd" d="M345.395 155.895C345.341 155.146 345.291 154.396 345.247 153.646C344.786 153.676 344.385 153.818 344.081 153.706C343.91 153.617 343.91 153.147 343.791 152.842C343.91 152.783 344.022 152.738 344.14 152.671C343.271 152.246 342.402 151.819 341.534 151.39V153.415L341.125 153.587C340.747 153.013 340.346 152.462 340.086 151.837C339.737 151.033 339.596 150.139 339.276 149.298C338.608 147.563 339.536 146.029 339.826 144.428C339.855 144.205 341.155 144.205 342.083 144.071C342.083 145.374 342.172 146.521 342.054 147.645C341.994 148.427 341.645 149.209 341.326 150.311C343.026 150.11 344.103 150.206 344.527 151.829C344.645 152.224 345.358 152.515 345.856 152.701C346.821 153.066 347.111 154.048 346.636 155.091C346.405 155.552 346.547 156.23 346.547 156.826L346.576 156.766L345.477 155.992C345.425 155.932 345.425 155.902 345.395 155.895Z" fill="#C7C7C7"/>
<path fill-rule="evenodd" clip-rule="evenodd" d="M93.0288 12.9417C93.0288 13.5224 93.5486 14.3638 92.3381 14.6542C92.1673 14.684 92.1896 15.3765 91.9594 15.5849C91.0757 16.3965 90.1845 17.1486 89.2859 17.8783C89.1745 17.9676 88.8255 17.9378 88.7958 17.8485C88.677 17.6028 88.5359 17.2379 88.6473 17.0369C88.8181 16.5603 89.1671 16.1359 89.2265 15.4732C88.9072 15.8828 88.6176 16.3146 88.2388 16.6348C87.5836 17.2412 86.889 17.8034 86.1595 18.3176C86.0109 18.4293 85.6396 18.2878 85.4688 18.1463C85.1792 17.9453 84.949 17.5953 84.6891 17.3719C84.3475 17.0965 83.9539 16.8954 83.5454 16.6646C84.0504 16.2029 84.4886 15.652 85.0084 15.3318C86.5456 14.5053 88.0754 13.7681 89.635 13.0533C90.1251 12.8374 90.6746 12.8672 91.2242 12.8374C91.7589 12.83 92.3084 12.8821 93.0288 12.9417Z" fill="#C7C7C7"/>
<path fill-rule="evenodd" clip-rule="evenodd" d="M204.72 23.5002C204.66 23.3512 204.549 23.2246 204.49 23.0905C203.999 21.8322 204.319 20.827 205.329 20.1643C205.997 20.5738 206.688 20.9759 207.416 21.4078C207.475 20.8866 207.557 20.4398 207.557 20.2611L212.102 21.3184C211.752 22.1002 211.463 23.1426 210.884 23.9468C210.408 24.6244 209.539 25.5104 208.96 25.436C207.817 25.2871 206.747 24.535 205.648 24.0138C205.329 23.8947 205.039 23.6714 204.72 23.5002Z" fill="#C7C7C7"/>
<path fill-rule="evenodd" clip-rule="evenodd" d="M265.095 8.91374C267.308 8.33296 268.237 8.7946 269.18 10.8571C269.521 11.6687 269.982 12.4505 270.479 13.411C269.811 15.0491 268.415 14.3641 267.256 14.1333C266.083 13.8578 264.947 13.3217 263.766 12.9122V10.2465C264.234 9.81469 264.672 9.37538 265.095 8.91374Z" fill="#C7C7C7"/>
<path fill-rule="evenodd" clip-rule="evenodd" d="M362.179 96.0969C362.179 97.1691 362.268 97.9137 362.149 98.6211C362.09 98.971 361.741 99.5518 361.451 99.589C360.24 99.7901 360.01 100.639 360.04 101.823C358.852 101.853 357.901 100.013 356.654 101.473C357.003 101.719 357.411 101.979 357.931 102.329C357.371 102.805 356.804 103.271 356.23 103.729C355.941 102.121 355.748 100.803 355.48 99.321C356.112 99.3954 356.386 99.4252 356.765 99.455C356.535 97.8914 356.29 96.3948 356.052 94.6003C356.706 95.0024 357.166 95.1662 357.433 95.4864C358.815 97.1691 360.24 98.3828 362.179 96.0969Z" fill="#C7C7C7"/>
<path fill-rule="evenodd" clip-rule="evenodd" d="M104.785 25.7556C104.584 25.9269 104.205 26.0758 104.146 26.2769C103.567 28.3394 102.341 27.2969 100.819 27.0512C101.383 26.1652 101.755 25.5099 102.104 24.9813C99.6604 24.4005 99.3114 23.2389 100.73 19.9181C101.614 20.4393 101.844 21.37 101.614 23.1198C101.844 22.6284 102.104 22.1519 102.482 21.3254C102.831 22.0029 103.032 22.4422 103.232 22.8666C103.478 20.9233 104.168 20.4765 105.705 21.5041C106.025 21.7349 106.314 22.6358 106.166 23.0677C105.854 24.0208 105.238 24.8845 104.755 25.7631H104.785V25.7556Z" fill="#C7C7C7"/>
<path fill-rule="evenodd" clip-rule="evenodd" d="M184.104 87.2368C184.453 88.0931 185.003 88.9642 184.015 89.7758C183.956 89.8205 183.926 89.962 183.956 90.0365C184.765 92.8212 182.686 93.2531 181.112 93.9306C180.622 94.1466 179.923 93.7966 179.314 93.6849C179.433 93.1637 179.604 92.6127 179.664 92.0766C179.768 91.6149 179.817 91.1426 179.812 90.6694C179.782 90.0588 179.693 89.4482 179.612 88.7558L181.089 88.6664C181.416 86.5816 182.805 86.9837 184.142 87.2889L184.104 87.2368Z" fill="#C7C7C7"/>
<path fill-rule="evenodd" clip-rule="evenodd" d="M102.869 57.9446C103.06 57.8166 103.258 57.6997 103.463 57.5946L104.681 57.2892C104.042 59.0017 105.371 59.7835 106.069 60.9004C106.5 61.6599 107.05 62.3375 107.399 63.1342C107.48 63.365 107.05 64.1766 106.938 64.1468C106.309 64.0553 105.703 63.8483 105.148 63.5362C104.889 63.365 104.77 62.9257 104.658 62.6949L101.896 64.7946C101.53 64.1599 101.178 63.5169 100.841 62.8661C101.42 61.3918 102.141 59.6497 102.869 57.9446Z" fill="#C7C7C7"/>
<path fill-rule="evenodd" clip-rule="evenodd" d="M106.062 12.5767C106.002 12.0406 105.772 11.2588 105.832 10.5217C105.832 10.1047 106.292 9.46434 106.582 9.43456C107.102 9.37499 107.911 9.52391 108.201 9.8962C108.862 10.8493 109.3 11.981 109.76 13.083C109.869 13.4086 109.858 13.7623 109.73 14.0808C109.373 15.0283 108.938 15.9448 108.431 16.8209C108.201 17.1634 107.621 17.2825 107.213 17.5133C107.094 17.1038 106.864 16.6719 106.894 16.2699C107.012 15.0487 106.225 14.5648 105.445 14.252C104.866 14.0361 104.257 13.9914 104.636 13.1649C104.785 12.882 105.423 12.8299 106.062 12.5767Z" fill="#C7C7C7"/>
<path fill-rule="evenodd" clip-rule="evenodd" d="M322.82 178.769C323.948 179.149 325.092 179.67 326.251 179.915C326.911 180.064 327.676 179.811 328.374 179.714C328.568 179.685 328.805 179.528 328.946 179.58C330.105 179.856 331.234 180.191 332.503 180.541C332.095 180.772 331.776 180.943 331.404 181.174C332.273 181.39 333.09 181.524 333.803 181.844C334.093 181.978 334.182 182.514 334.382 182.894V182.849C331.894 182.693 329.347 182.648 326.882 181.732C326.25 181.472 325.441 181.628 324.743 181.442C323.807 181.152 322.909 180.735 321.891 180.332C322.185 179.807 322.487 179.285 322.797 178.769" fill="#C7C7C7"/>
<path fill-rule="evenodd" clip-rule="evenodd" d="M265.095 8.91374C264.669 9.3746 264.226 9.81919 263.766 10.2465C263.647 10.4774 263.417 10.6481 263.358 10.8938C263.187 11.5193 263.068 12.1671 262.838 13.1722C262.186 12.5 261.53 11.8323 260.87 11.1693C261.243 10.989 261.609 10.7953 261.969 10.5885C261.508 10.3875 261.07 10.1567 260.632 9.95563C260.461 8.27286 259.83 6.38906 261.39 4.75097C262.147 5.28707 263.038 5.89763 264.078 6.59754L265.095 8.91374Z" fill="#C7C7C7"/>
<path fill-rule="evenodd" clip-rule="evenodd" d="M362.639 236.116C363.865 237.903 363.894 237.903 366.828 237.322C366.657 238.231 366.679 239.162 366.337 239.876C365.714 241.06 365.276 242.564 363.865 242.944C363.412 243.063 362.491 242.743 362.379 242.43C361.741 240.301 362.09 238.186 362.639 236.116Z" fill="#C7C7C7"/>
<path fill-rule="evenodd" clip-rule="evenodd" d="M87.2586 140.422C88.6473 138.159 90.0063 137.459 92.0188 138.203C94.7517 139.238 97.3212 140.534 99.9575 141.763C100.188 141.867 100.336 142.165 100.826 142.775L96.2889 143.252C96.4077 142.745 96.4597 142.44 96.5488 142.112C93.8531 140.05 90.994 138.367 87.2586 140.422Z" fill="#C7C7C7"/>
<path fill-rule="evenodd" clip-rule="evenodd" d="M272.588 17.1784C271.727 15.9052 270.888 11.6387 271.378 10.3953C272.677 11.0058 274.029 11.5122 275.247 12.2567C276.249 12.8673 276.249 14.0661 275.336 14.8926C274.497 15.6744 273.576 16.3668 272.588 17.1784Z" fill="#C7C7C7"/>
<path fill-rule="evenodd" clip-rule="evenodd" d="M346.517 156.803C346.65 156.602 346.784 156.379 346.903 156.178C348.73 160.057 348.73 160.057 347.92 161.732L347.482 161.047C347.252 161.613 347.193 162.551 346.814 162.685C345.908 163.095 345.098 161.993 344.92 160.139C344.133 160.34 343.346 160.511 342.596 160.712C342.395 159.32 343.405 158.367 344.92 158.739C345.41 158.858 346.368 157.712 346.546 156.736L346.517 156.803Z" fill="#C7C7C7"/>
<path fill-rule="evenodd" clip-rule="evenodd" d="M103.039 145.91C102.023 145.647 101.005 145.387 99.9872 145.128C100.015 145.031 100.045 144.934 100.076 144.838L102.349 144.004C102.02 143.676 101.693 143.346 101.368 143.014C101.628 142.88 101.77 142.723 101.918 142.753C103.812 142.872 105.869 142.448 107.339 144.294C107.51 144.488 107.569 144.808 107.651 145.069C107.391 145.128 107.102 145.218 106.842 145.27C105.713 145.471 104.614 145.635 103.039 145.91Z" fill="#C7C7C7"/>
<path fill-rule="evenodd" clip-rule="evenodd" d="M226.345 18.3401C225.743 18.2657 225.135 18.2657 224.555 18.1093C224.436 18.0497 224.295 17.3647 224.407 17.1339C225.016 15.8755 225.855 15.7341 227.489 16.5531C227.808 16.0468 228.098 15.5554 228.447 15.0416C229.902 16.017 229.486 16.9999 228.818 17.9976C228.699 18.1838 228.447 18.3327 228.387 18.5337C228.268 19.3453 228.068 20.1122 227.125 19.6059C226.694 19.3825 226.523 18.638 226.345 18.3401Z" fill="#C7C7C7"/>
<path fill-rule="evenodd" clip-rule="evenodd" d="M94.67 48.2272L94.6106 48.1081C94.061 47.6166 93.4669 47.1252 92.858 46.5742L95.7097 44.199C96.3409 44.7798 96.9499 45.3307 97.5885 45.8817C97.388 46.4625 97.1281 47.2146 96.8385 47.9889C96.8979 48.1602 96.9276 48.3314 96.987 48.5101C96.2155 48.4089 95.4431 48.3146 94.67 48.2272Z" fill="#C7C7C7"/>
<path fill-rule="evenodd" clip-rule="evenodd" d="M289.996 156.952C291.384 157.406 292.996 159.997 292.565 161.181C292.365 161.762 291.674 162.268 291.124 162.477C290.894 162.544 290.077 161.762 290.048 161.3C289.906 159.886 289.996 158.426 289.996 156.952Z" fill="#C7C7C7"/>
<path fill-rule="evenodd" clip-rule="evenodd" d="M99.6678 13.15C99.0589 14.0212 98.6282 14.602 98.2271 15.1529C97.5291 16.0837 96.3706 16.1135 95.7988 15.0934C95.3903 14.3414 95.1601 13.4255 94.9002 12.5543C94.8705 12.3682 95.1007 12.0182 95.2789 11.847C95.368 11.7427 95.769 11.8172 95.769 11.847C96.029 13.2245 97.0686 12.4278 97.7073 12.6586C98.3385 12.8596 99.0069 12.9713 99.6678 13.15Z" fill="#C7C7C7"/>
<path fill-rule="evenodd" clip-rule="evenodd" d="M234.707 14.4677C233.838 15.875 232.917 16.7462 231.35 15.5101C231.439 15.3538 231.581 15.1453 231.729 14.8698C231.52 14.75 231.317 14.6208 231.12 14.4826C231.12 14.3337 231.12 14.222 231.15 14.1327C231.469 13.4253 231.759 12.6956 232.108 11.9882C232.279 11.6681 232.568 11.4075 232.806 11.1171C233.423 12.2435 234.056 13.3605 234.707 14.4677Z" fill="#C7C7C7"/>
<path fill-rule="evenodd" clip-rule="evenodd" d="M111.468 13.5227C111.817 14.8407 113.302 15.8012 112.337 17.5212C111.758 18.6231 110.889 18.1913 110.124 17.9754C109.923 17.9307 109.775 16.9627 109.864 16.4787C110.065 15.4363 110.473 14.4535 110.778 13.4483C111 13.4855 111.238 13.5227 111.468 13.5227Z" fill="#C7C7C7"/>
<path fill-rule="evenodd" clip-rule="evenodd" d="M104.785 25.7556L104.755 25.756C105.416 25.9273 106.144 25.9869 106.753 26.307C107.993 27.0218 107.562 28.1685 107.102 29.1663C106.953 29.4715 106.144 29.814 106.062 29.7172C105.512 29.062 104.035 28.9727 104.874 27.409C105.044 27.0069 104.814 26.3364 104.785 25.7556Z" fill="#C7C7C7"/>
<path fill-rule="evenodd" clip-rule="evenodd" d="M339.417 139.238C337.628 136.878 337.732 135.173 339.618 133.497C340.717 134.249 340.717 134.599 339.417 139.238Z" fill="#C7C7C7"/>
<path fill-rule="evenodd" clip-rule="evenodd" d="M334.405 182.879C335.466 182.574 336.499 182.097 337.62 182.037C339.009 181.963 340.449 182.268 341.838 182.328C342.44 182.328 343.049 182.127 343.977 181.948C343.628 182.41 343.427 182.879 343.219 182.879C340.271 183.08 337.353 183.921 334.397 182.819C334.402 182.839 334.405 182.859 334.405 182.879Z" fill="#C7C7C7"/>
<path fill-rule="evenodd" clip-rule="evenodd" d="M318.394 10.5065C319.515 10.3874 320.621 10.1938 321.721 10.2459C322.181 10.2459 322.641 10.8267 323.109 11.132C322.701 11.5489 322.381 12.2191 321.921 12.3382C320.503 12.7105 319.003 11.8393 318.394 10.5065Z" fill="#C7C7C7"/>
<path fill-rule="evenodd" clip-rule="evenodd" d="M375.398 178.336L377.841 177.577C378.331 178.292 378.821 178.187 379.46 177.123C379.63 176.803 380.069 176.631 380.358 176.393C380.418 176.832 380.529 177.294 380.418 177.644C379.601 179.855 376.252 180.205 375.398 178.336Z" fill="#C7C7C7"/>
<path fill-rule="evenodd" clip-rule="evenodd" d="M232.071 17.5282C231.84 17.4388 231.491 17.2974 231.113 17.1633V16.7612C232.65 16.657 234.18 16.5751 236.029 16.456C235.227 17.8483 234.959 19.2407 233.311 18.1089C232.94 17.8483 232.011 18.511 231.313 18.7418C231.223 18.6381 231.136 18.5313 231.053 18.4217C231.402 18.1089 231.722 17.8037 232.071 17.5282Z" fill="#C7C7C7"/>
<path fill-rule="evenodd" clip-rule="evenodd" d="M317.079 20.7749C317.636 19.7176 317.896 18.3401 318.505 18.1688C319.545 17.8487 320.644 18.5113 321.193 20.0526L317.079 20.7749Z" fill="#C7C7C7"/>
<path fill-rule="evenodd" clip-rule="evenodd" d="M327.053 141.911C327.186 142.06 327.676 142.313 327.706 142.663C327.855 143.594 326.674 144.994 325.931 144.778C325.655 144.658 325.408 144.48 325.208 144.255C325.008 144.03 324.86 143.764 324.773 143.475C324.52 142.715 325.753 141.881 327.053 141.911Z" fill="#C7C7C7"/>
<path fill-rule="evenodd" clip-rule="evenodd" d="M97.5068 10.6555C98.6356 10.5066 99.7347 10.3353 100.863 10.3055C100.953 10.2906 101.287 11.5267 101.079 11.9585C100.893 12.3383 100.054 12.651 99.6753 12.5095C98.9252 12.2489 98.2866 11.6086 97.5959 11.1469L97.5068 10.6555Z" fill="#C7C7C7"/>
<path fill-rule="evenodd" clip-rule="evenodd" d="M20.6079 66.3207C20.6673 65.3378 20.4593 64.2656 20.8084 63.9752C21.7367 63.2008 22.8283 62.4116 24.4918 63.4391C23.8309 63.9901 23.3333 64.4369 22.7763 64.8464C22.2268 65.2485 21.655 65.6208 20.6079 66.3207Z" fill="#C7C7C7"/>
<path fill-rule="evenodd" clip-rule="evenodd" d="M348.96 182.774C347.014 183.914 345.21 184.993 343.286 186.103C344.69 183.139 346.197 182.268 348.96 182.774Z" fill="#C7C7C7"/>
<path fill-rule="evenodd" clip-rule="evenodd" d="M116.473 52.8591C116.384 54.1323 115.983 55.2046 114.676 55.5098C113.897 55.6811 113.488 55.3088 113.666 54.4227C113.956 53.0006 115.256 52.3081 116.503 52.8814L116.473 52.8591Z" fill="#C7C7C7"/>
<path fill-rule="evenodd" clip-rule="evenodd" d="M237.611 16.3222C237.024 16.2477 235.977 16.3371 235.917 16.1063C235.628 15.1458 235.658 14.1331 235.628 13.1503C235.628 13.0758 236.326 12.8599 236.437 12.979C236.928 13.3711 237.326 13.8669 237.603 14.431C237.722 14.7809 237.492 15.2872 237.41 15.734C237.499 15.935 237.551 16.1212 237.611 16.3222Z" fill="#C7C7C7"/>
<path fill-rule="evenodd" clip-rule="evenodd" d="M42.0401 77.2363L43.2951 77.7129C43.0055 79.2244 42.6564 80.6986 42.3594 82.0761C41.3717 81.2794 41.0821 78.8148 42.0401 77.2363Z" fill="#C7C7C7"/>
<path fill-rule="evenodd" clip-rule="evenodd" d="M345.395 155.895C345.425 155.91 345.425 155.939 345.485 156.014C345.544 156.274 345.715 156.639 345.633 156.81C345.195 157.682 343.65 157.816 342.93 157.101C343.101 156.46 343.309 155.828 343.509 155.187L343.45 155.217C344.14 155.329 345.046 154.719 345.395 155.895Z" fill="#C7C7C7"/>
<path fill-rule="evenodd" clip-rule="evenodd" d="M11.7038 40.3424C12.5727 41.4295 13.293 42.3677 14.199 43.4771C13.4787 43.7228 12.996 43.8494 12.5058 44.0281C12.0974 43.2165 12.3053 41.8241 10.3968 42.4347C10.9835 41.4742 11.2731 41.0274 11.7038 40.3424Z" fill="#C7C7C7"/>
<path fill-rule="evenodd" clip-rule="evenodd" d="M123.031 250.248C123.491 248.231 124.42 247.829 126.328 248.774C125.749 250.487 124.279 249.876 123.031 250.248Z" fill="#C7C7C7"/>
<path fill-rule="evenodd" clip-rule="evenodd" d="M350.222 170.667C350.371 171.077 350.482 171.509 350.631 171.955C349.324 171.218 349.071 169.454 349.933 167.853C350.371 168.113 350.802 168.404 351.374 168.784C351.151 169.364 350.913 170.012 350.653 170.667H350.222Z" fill="#C7C7C7"/>
<path fill-rule="evenodd" clip-rule="evenodd" d="M112.953 19.7025C111.825 20.6034 110.191 20.4843 109.641 19.7174C109.523 19.561 109.471 19.1813 109.552 19.0696C109.753 18.8388 110.102 18.5484 110.302 18.6079C111.134 18.8611 111.914 19.2483 112.953 19.7025Z" fill="#C7C7C7"/>
<path fill-rule="evenodd" clip-rule="evenodd" d="M353.676 175.946C352.487 175.857 351.359 175.775 349.97 175.656C350.118 175.425 350.23 174.844 350.549 174.695C350.835 174.562 351.145 174.488 351.46 174.479C351.776 174.47 352.089 174.526 352.382 174.643C352.675 174.76 352.941 174.936 353.164 175.16C353.386 175.384 353.56 175.652 353.676 175.946Z" fill="#C7C7C7"/>
<path fill-rule="evenodd" clip-rule="evenodd" d="M0 72.672C0.579248 72.0614 0.750051 70.6169 2.01994 71.4285C2.16847 71.5179 2.48037 71.2126 2.71801 71.0786C3.40866 70.6616 4.06216 70.2521 4.81222 69.9468C3.85423 72.3369 1.58922 71.7413 0 72.672Z" fill="#C7C7C7"/>
<path fill-rule="evenodd" clip-rule="evenodd" d="M238.234 13.9616C236.809 12.9192 236.779 12.2789 238.116 10.8344C238.316 11.1099 238.494 11.3407 238.665 11.6162C238.836 11.8768 239.014 12.1672 239.155 12.4278C238.865 12.9488 238.558 13.4603 238.234 13.9616Z" fill="#C7C7C7"/>
<path fill-rule="evenodd" clip-rule="evenodd" d="M239.423 54.6982C238.818 55.0364 238.219 55.3839 237.626 55.7406L237.284 53.827H239.222C239.282 54.1174 239.341 54.3929 239.423 54.6982Z" fill="#C7C7C7"/>
<path fill-rule="evenodd" clip-rule="evenodd" d="M393.666 200.295C394.654 201.479 395.701 202.7 396.837 204.033C395.255 203.98 393.837 202.469 393.666 200.295Z" fill="#C7C7C7"/>
<path fill-rule="evenodd" clip-rule="evenodd" d="M336.484 158.516C337.368 157.332 338.177 156.155 339.046 154.942C339.194 155.143 339.425 155.463 339.685 155.798C338.727 156.811 337.739 157.816 336.773 158.821C336.687 158.71 336.59 158.608 336.484 158.516Z" fill="#C7C7C7"/>
<path fill-rule="evenodd" clip-rule="evenodd" d="M105.304 65.9862C104.495 66.4627 103.715 66.9393 102.779 67.4754C102.579 65.5618 103.21 65.1523 105.134 65.5618C105.193 65.7107 105.245 65.8596 105.304 65.9862Z" fill="#C7C7C7"/>
<path fill-rule="evenodd" clip-rule="evenodd" d="M118.115 94.444C119.043 94.9801 119.994 95.5162 120.966 96.0523C119.503 96.7075 118.984 96.4022 117.944 94.8088L118.115 94.444Z" fill="#C7C7C7"/>
<path fill-rule="evenodd" clip-rule="evenodd" d="M290.367 26.6121C290.597 26.1951 290.805 25.6739 291.147 25.3537C291.295 25.2122 291.956 25.3537 292.045 25.5399C292.209 25.9643 292.186 26.478 292.238 26.9471L290.679 27.0216C290.575 26.8876 290.486 26.7461 290.367 26.6121Z" fill="#C7C7C7"/>
<path fill-rule="evenodd" clip-rule="evenodd" d="M343.465 155.188C343.205 155.433 342.945 155.679 342.707 155.94C342.536 155.642 342.269 155.366 342.217 155.061C342.135 154.376 342.106 153.676 342.054 152.872L343.754 154.637C343.661 154.843 343.544 155.038 343.405 155.217L343.465 155.188Z" fill="#C7C7C7"/>
</svg>
